SplineFontDB: 3.2
FontName: MitraMono
FullName: Mitra Mono
FamilyName: Mitra 
Weight: Book
Copyright: GNU GPL2+ FE 2002-2002 Dr Anirban Mitra"As a special exception, if you create a document which uses this font, and embed this font or unaltered portions of this font into the document, this font does not by itself cause the resulting document to be covered by the GNU General Public License. This exception does not however invalidate any other reasons why the document might be covered by the GNU General Public License. If you modify this font, you may extend this exception to your version of the font, but you are not obligated to do so. If you do not wish to do so, delete this exception statement from your version." 
Version: 1.0.0
ItalicAngle: 0
UnderlinePosition: 0
UnderlineWidth: 0
Ascent: 1600
Descent: 448
InvalidEm: 0
sfntRevision: 0x00000000
LayerCount: 2
Layer: 0 1 "Back" 1
Layer: 1 1 "Fore" 0
XUID: [1021 162 -509335450 1826450]
StyleMap: 0x0040
FSType: 0
OS2Version: 0
OS2_WeightWidthSlopeOnly: 0
OS2_UseTypoMetrics: 0
CreationTime: 1031905939
ModificationTime: 1643560183
PfmFamily: 49
TTFWeight: 400
TTFWidth: 5
LineGap: 0
VLineGap: 0
Panose: 0 11 0 9 0 0 0 0 0 0
OS2TypoAscent: 1600
OS2TypoAOffset: 0
OS2TypoDescent: -448
OS2TypoDOffset: 0
OS2TypoLinegap: 0
OS2WinAscent: 1600
OS2WinAOffset: 0
OS2WinDescent: 448
OS2WinDOffset: 0
HheadAscent: 2123
HheadAOffset: 0
HheadDescent: -898
HheadDOffset: 0
OS2SubXSize: 1024
OS2SubYSize: 1024
OS2SubXOff: 0
OS2SubYOff: -828
OS2SupXSize: 1024
OS2SupYSize: 1024
OS2SupXOff: 0
OS2SupYOff: 644
OS2StrikeYSize: 0
OS2StrikeYPos: 0
OS2Vendor: '    '
OS2UnicodeRanges: 00010001.00000000.00000000.00000000
Lookup: 4 0 0 "'akhn' Akhand in Bengali lookup 0" { "'akhn' Akhand in Bengali lookup 0 subtable"  } ['akhn' ('beng' <'dflt' > ) ]
Lookup: 4 0 0 "'rphf' Reph Form in Bengali lookup 1" { "'rphf' Reph Form in Bengali lookup 1 subtable"  } ['rphf' ('beng' <'dflt' > ) 'zz02' ('beng' <'zz01' > ) ]

StartChar: .notdef
Encoding: 65536 -1 0
Width: 1050
GlyphClass: 2
Flags: W
LayerCount: 2
Fore
SplineSet
21 1553 m 1,0,-1
 1008 1553 l 1,1,-1
 1008 281 l 1,2,-1
 21 281 l 1,3,-1
 21 1553 l 1,0,-1
872 530 m 1,4,-1
 872 1371 l 1,5,-1
 151 1371 l 1,6,-1
 151 530 l 1,7,-1
 872 530 l 1,4,-1
EndSplineSet
EndChar

StartChar: exclam
Encoding: 33 33 3
Width: 1050
GlyphClass: 2
Flags: W
LayerCount: 2
Fore
SplineSet
593 1515 m 2,0,-1
 593 1450 l 1,1,-1
 504 690 l 1,2,-1
 473 690 l 1,3,-1
 384 1450 l 1,4,-1
 384 1525 l 2,5,6
 384 1582 384 1582 413 1618 c 0,7,8
 443 1654 443 1654 489 1654 c 0,9,10
 531 1654 531 1654 562 1619 c 0,11,12
 593 1583 593 1583 593 1515 c 2,0,-1
610 270 m 2,13,14
 610 234 610 234 577 201 c 0,15,16
 569 189 569 189 549 180 c 1,17,-1
 506 172 l 1,18,19
 457 172 457 172 432 201 c 1,20,21
 401 229 401 229 401 271 c 0,22,23
 401 312 401 312 431 342 c 0,24,25
 459 373 459 373 506 373 c 0,26,27
 542 373 542 373 576 344 c 256,28,29
 610 315 610 315 610 271 c 2,30,-1
 610 270 l 2,13,14
EndSplineSet
EndChar

StartChar: quotedbl
Encoding: 34 34 4
Width: 1050
GlyphClass: 2
Flags: W
LayerCount: 2
Fore
SplineSet
390 773 m 1,0,-1
 348 1009 l 1,1,-1
 348 1212 l 1,2,-1
 521 1212 l 1,3,-1
 521 1009 l 1,4,-1
 483 773 l 1,5,-1
 390 773 l 1,0,-1
670 773 m 1,6,-1
 628 1009 l 1,7,-1
 628 1212 l 1,8,-1
 802 1212 l 1,9,-1
 802 1009 l 1,10,-1
 761 773 l 1,11,-1
 670 773 l 1,6,-1
EndSplineSet
EndChar

StartChar: numbersign
Encoding: 35 35 5
Width: 1050
GlyphClass: 2
Flags: W
LayerCount: 2
Fore
SplineSet
80 323 m 1,0,-1
 153 683 l 1,1,-1
 11 683 l 1,2,-1
 11 808 l 1,3,-1
 179 808 l 1,4,-1
 241 1115 l 1,5,-1
 11 1115 l 1,6,-1
 11 1241 l 1,7,-1
 267 1241 l 1,8,-1
 340 1603 l 1,9,-1
 467 1603 l 1,10,-1
 394 1241 l 1,11,-1
 660 1241 l 1,12,-1
 733 1603 l 1,13,-1
 861 1603 l 1,14,-1
 787 1241 l 1,15,-1
 932 1241 l 1,16,-1
 932 1115 l 1,17,-1
 761 1115 l 1,18,-1
 698 808 l 1,19,-1
 932 808 l 1,20,-1
 932 683 l 1,21,-1
 673 683 l 1,22,-1
 600 323 l 1,23,-1
 473 323 l 1,24,-1
 545 683 l 1,25,-1
 280 683 l 1,26,-1
 207 323 l 1,27,-1
 80 323 l 1,0,-1
304 808 m 1,28,-1
 569 808 l 1,29,-1
 633 1114 l 1,30,-1
 367 1114 l 1,31,-1
 304 808 l 1,28,-1
EndSplineSet
EndChar

StartChar: dollar
Encoding: 36 36 6
Width: 1050
GlyphClass: 2
Flags: W
LayerCount: 2
Fore
SplineSet
388 -31 m 1,0,-1
 388 122 l 1,1,2
 274 136 274 136 203 172.5 c 128,-1,3
 132 209 132 209 79.5 291.5 c 128,-1,4
 27 374 27 374 20 492 c 1,5,-1
 172 520 l 1,6,7
 190 398 190 398 235 340 c 0,8,9
 299 259 299 259 388 250 c 1,10,-1
 388 733 l 1,11,12
 295 751 295 751 196 806 c 0,13,14
 125 847 125 847 85 919 c 128,-1,15
 45 991 45 991 45 1082 c 0,16,17
 45 1244 45 1244 160 1345 c 0,18,19
 237 1412 237 1412 388 1427 c 1,20,-1
 388 1500 l 1,21,-1
 478 1500 l 1,22,-1
 478 1427 l 1,23,24
 611 1414 611 1414 689 1349 c 0,25,26
 788 1267 788 1267 808 1123 c 1,27,-1
 652 1098 l 1,28,29
 638 1188 638 1188 595 1236 c 128,-1,30
 552 1284 552 1284 478 1299 c 1,31,-1
 478 860 l 1,32,33
 593 832 593 832 630 815 c 0,34,35
 702 785 702 785 746 740 c 128,-1,36
 790 695 790 695 814.5 633.5 c 128,-1,37
 839 572 839 572 839 500 c 0,38,39
 839 342 839 342 738.5 236.5 c 128,-1,40
 638 131 638 131 478 123 c 1,41,-1
 478 -31 l 1,42,-1
 388 -31 l 1,0,-1
379 1304 m 1,43,44
 290 1292 290 1292 238.5 1234 c 128,-1,45
 187 1176 187 1176 187 1098 c 256,46,47
 187 1020 187 1020 230.5 967.5 c 128,-1,48
 274 915 274 915 379 884 c 1,49,-1
 379 1304 l 1,43,44
496 238 m 1,50,51
 584 250 584 250 642.5 315.5 c 128,-1,52
 701 381 701 381 701 479 c 0,53,54
 701 561 701 561 660 611.5 c 128,-1,55
 619 662 619 662 496 701 c 1,56,-1
 496 238 l 1,50,51
EndSplineSet
EndChar

StartChar: percent
Encoding: 37 37 7
Width: 1050
GlyphClass: 2
Flags: W
LayerCount: 2
Fore
SplineSet
10 959 m 0,0,1
 10 1089 10 1089 64 1179.5 c 128,-1,2
 118 1270 118 1270 222 1270 c 0,3,4
 316 1270 316 1270 378.5 1189 c 128,-1,5
 441 1108 441 1108 441 951 c 0,6,7
 441 798 441 798 378 716 c 128,-1,8
 315 634 315 634 223 634 c 0,9,10
 132 634 132 634 71 714.5 c 128,-1,11
 10 795 10 795 10 959 c 0,0,1
226 1167 m 0,12,13
 178 1167 178 1167 148 1120 c 128,-1,14
 118 1073 118 1073 118 945 c 0,15,16
 118 829 118 829 149 782.5 c 128,-1,17
 180 736 180 736 226 736 c 0,18,19
 271 736 271 736 302 783 c 128,-1,20
 333 830 333 830 333 958 c 0,21,22
 333 1073 333 1073 302 1120 c 128,-1,23
 271 1167 271 1167 226 1167 c 0,12,13
260 20 m 1,24,-1
 811 1289 l 1,25,-1
 912 1289 l 1,26,-1
 362 20 l 1,27,-1
 260 20 l 1,24,-1
662 328 m 0,28,29
 662 457 662 457 716 547.5 c 128,-1,30
 770 638 770 638 874 638 c 0,31,32
 969 638 969 638 1031 556.5 c 128,-1,33
 1093 475 1093 475 1093 319 c 0,34,35
 1093 166 1093 166 1030 83 c 128,-1,36
 967 0 967 0 874 0 c 0,37,38
 783 0 783 0 722.5 82 c 128,-1,39
 662 164 662 164 662 328 c 0,28,29
874 524 m 0,40,41
 828 524 828 524 797 477 c 128,-1,42
 766 430 766 430 766 301 c 0,43,44
 766 187 766 187 797.5 139 c 128,-1,45
 829 91 829 91 873 91 c 0,46,47
 921 91 921 91 952 139 c 128,-1,48
 983 187 983 187 983 314 c 0,49,50
 983 430 983 430 952 477 c 128,-1,51
 921 524 921 524 874 524 c 0,40,41
EndSplineSet
EndChar

StartChar: ampersand
Encoding: 38 38 8
Width: 1050
GlyphClass: 2
Flags: W
LayerCount: 2
Fore
SplineSet
744 153 m 1,0,1
 668 68 668 68 580 26.5 c 128,-1,2
 492 -15 492 -15 388 -15 c 0,3,4
 198 -15 198 -15 87 113 c 0,5,6
 -4 218 -4 218 -4 347 c 0,7,8
 -4 463 -4 463 70.5 555 c 128,-1,9
 145 647 145 647 291 717 c 1,10,11
 207 813 207 813 179.5 873.5 c 128,-1,12
 152 934 152 934 152 990 c 0,13,14
 152 1101 152 1101 239 1183.5 c 128,-1,15
 326 1266 326 1266 460 1266 c 0,16,17
 586 1266 586 1266 667 1188 c 128,-1,18
 748 1110 748 1110 748 1001 c 0,19,20
 748 825 748 825 513 699 c 1,21,-1
 736 416 l 1,22,23
 773 491 773 491 795 589 c 1,24,-1
 952 556 l 1,25,26
 913 393 913 393 842 288 c 1,27,28
 928 176 928 176 1037 98 c 1,29,-1
 934 -23 l 1,30,31
 842 36 842 36 744 153 c 1,0,1
435 798 m 1,32,33
 534 856 534 856 562.5 900 c 128,-1,34
 591 944 591 944 591 998 c 0,35,36
 591 1060 591 1060 551.5 1100.5 c 128,-1,37
 512 1141 512 1141 452 1141 c 0,38,39
 390 1141 390 1141 349.5 1101.5 c 128,-1,40
 309 1062 309 1062 309 1004 c 0,41,42
 309 976 309 976 323.5 944 c 128,-1,43
 338 912 338 912 367 876 c 2,44,-1
 435 798 l 1,32,33
649 272 m 1,45,-1
 370 617 l 1,46,47
 246 544 246 544 203 481.5 c 128,-1,48
 160 419 160 419 160 356 c 0,49,50
 160 282 160 282 220 201 c 128,-1,51
 280 120 280 120 390 120 c 0,52,53
 458 120 458 120 531 162.5 c 128,-1,54
 604 205 604 205 649 272 c 1,45,-1
EndSplineSet
EndChar

StartChar: quotesingle
Encoding: 39 39 9
Width: 1050
GlyphClass: 2
Flags: W
LayerCount: 2
Fore
SplineSet
559 846 m 1,0,-1
 520 1078 l 1,1,-1
 520 1285 l 1,2,-1
 693 1285 l 1,3,-1
 693 1078 l 1,4,-1
 652 846 l 1,5,-1
 559 846 l 1,0,-1
EndSplineSet
EndChar

StartChar: parenleft
Encoding: 40 40 10
Width: 1050
GlyphClass: 2
Flags: W
LayerCount: 2
Fore
SplineSet
407 -305 m 1,0,1
 280 -146 280 -146 193 66.5 c 128,-1,2
 106 279 106 279 106 508 c 0,3,4
 106 709 106 709 172 893 c 0,5,6
 248 1107 248 1107 407 1318 c 1,7,-1
 516 1318 l 1,8,9
 413 1143 413 1143 380 1068 c 0,10,11
 329 951 329 951 300 824 c 0,12,13
 262 667 262 667 262 507 c 0,14,15
 262 101 262 101 516 -305 c 1,16,-1
 407 -305 l 1,0,1
EndSplineSet
EndChar

StartChar: parenright
Encoding: 41 41 11
Width: 1050
GlyphClass: 2
Flags: W
LayerCount: 2
Fore
SplineSet
278 -306 m 1,0,-1
 169 -306 l 1,1,2
 422 100 422 100 422 506 c 0,3,4
 422 664 422 664 385 820 c 0,5,6
 357 947 357 947 306 1064 c 0,7,8
 273 1140 273 1140 169 1317 c 1,9,-1
 278 1317 l 1,10,11
 438 1106 438 1106 513 892 c 0,12,13
 579 708 579 708 579 507 c 0,14,15
 579 278 579 278 491 65.5 c 128,-1,16
 403 -147 403 -147 278 -306 c 1,0,-1
EndSplineSet
EndChar

StartChar: asterisk
Encoding: 42 42 12
Width: 1050
GlyphClass: 2
Flags: W
LayerCount: 2
Fore
SplineSet
209 1024 m 1,0,-1
 248 1144 l 1,1,2
 381 1097 381 1097 443 1063 c 1,3,4
 426 1215 426 1215 426 1272 c 1,5,-1
 549 1272 l 1,6,7
 547 1189 547 1189 529 1063 c 1,8,9
 616 1107 616 1107 728 1144 c 1,10,-1
 767 1024 l 1,11,12
 660 988 660 988 557 977 c 1,13,14
 608 932 608 932 703 817 c 1,15,-1
 600 745 l 1,16,17
 552 812 552 812 485 927 c 1,18,19
 422 808 422 808 375 745 c 1,20,-1
 275 817 l 1,21,22
 374 938 374 938 416 977 c 1,23,24
 307 997 307 997 209 1024 c 1,0,-1
EndSplineSet
EndChar

StartChar: plus
Encoding: 43 43 13
Width: 1050
GlyphClass: 2
Flags: W
LayerCount: 2
Fore
SplineSet
484 198 m 1,0,-1
 484 538 l 1,1,-1
 147 538 l 1,2,-1
 147 680 l 1,3,-1
 484 680 l 1,4,-1
 484 1016 l 1,5,-1
 627 1016 l 1,6,-1
 627 680 l 1,7,-1
 964 680 l 1,8,-1
 964 538 l 1,9,-1
 627 538 l 1,10,-1
 627 198 l 1,11,-1
 484 198 l 1,0,-1
EndSplineSet
EndChar

StartChar: comma
Encoding: 44 44 14
Width: 1050
GlyphClass: 2
Flags: W
LayerCount: 2
Fore
SplineSet
343 -44 m 1,0,-1
 343 129 l 1,1,-1
 515 129 l 1,2,-1
 515 -44 l 2,3,4
 515 -140 515 -140 481.5 -198.5 c 128,-1,5
 448 -257 448 -257 375 -289 c 1,6,-1
 332 -224 l 1,7,8
 380 -202 380 -202 403 -161 c 128,-1,9
 426 -120 426 -120 428 -44 c 1,10,-1
 343 -44 l 1,0,-1
EndSplineSet
EndChar

StartChar: hyphen
Encoding: 45 45 15
Width: 1050
GlyphClass: 2
Flags: W
LayerCount: 2
Fore
SplineSet
327 593 m 1,0,-1
 327 745 l 1,1,-1
 794 745 l 1,2,-1
 794 593 l 1,3,-1
 327 593 l 1,0,-1
EndSplineSet
EndChar

StartChar: period
Encoding: 46 46 16
Width: 1050
GlyphClass: 2
Flags: W
LayerCount: 2
Fore
SplineSet
443 -3 m 1,0,-1
 443 170 l 1,1,-1
 616 170 l 1,2,-1
 616 -3 l 1,3,-1
 443 -3 l 1,0,-1
EndSplineSet
EndChar

StartChar: slash
Encoding: 47 47 17
Width: 1050
GlyphClass: 2
Flags: W
LayerCount: 2
Fore
SplineSet
211 -4 m 1,0,-1
 570 1276 l 1,1,-1
 691 1276 l 1,2,-1
 333 -4 l 1,3,-1
 211 -4 l 1,0,-1
EndSplineSet
EndChar

StartChar: zero
Encoding: 48 48 18
Width: 1050
GlyphClass: 2
Flags: W
LayerCount: 2
Fore
SplineSet
102 641 m 0,0,1
 102 861 102 861 147 995 c 128,-1,2
 192 1129 192 1129 281 1201.5 c 128,-1,3
 370 1274 370 1274 506 1274 c 0,4,5
 605 1274 605 1274 680 1234 c 128,-1,6
 755 1194 755 1194 804.5 1118 c 128,-1,7
 854 1042 854 1042 881.5 934 c 128,-1,8
 909 826 909 826 909 641 c 0,9,10
 909 424 909 424 864.5 290 c 128,-1,11
 820 156 820 156 730.5 82.5 c 128,-1,12
 641 9 641 9 506 9 c 0,13,14
 326 9 326 9 224 138 c 0,15,16
 102 292 102 292 102 641 c 0,0,1
259 641 m 0,17,18
 259 337 259 337 330 235.5 c 128,-1,19
 401 134 401 134 506 134 c 256,20,21
 611 134 611 134 682 235.5 c 128,-1,22
 753 337 753 337 753 641 c 0,23,24
 753 947 753 947 682 1047.5 c 128,-1,25
 611 1148 611 1148 504 1148 c 0,26,27
 399 1148 399 1148 337 1060 c 0,28,29
 259 946 259 946 259 641 c 0,17,18
EndSplineSet
EndChar

StartChar: one
Encoding: 49 49 19
Width: 1050
GlyphClass: 2
Flags: W
LayerCount: 2
Fore
SplineSet
605 -14 m 1,0,-1
 453 -14 l 1,1,-1
 453 955 l 1,2,3
 399 903 399 903 309.5 850.5 c 128,-1,4
 220 798 220 798 149 772 c 1,5,-1
 149 920 l 1,6,7
 276 980 276 980 372 1065 c 128,-1,8
 468 1150 468 1150 508 1231 c 1,9,-1
 605 1231 l 1,10,-1
 605 -14 l 1,0,-1
EndSplineSet
EndChar

StartChar: two
Encoding: 50 50 20
Width: 1050
GlyphClass: 2
Flags: W
LayerCount: 2
Fore
SplineSet
904 148 m 1,0,-1
 904 3 l 1,1,-1
 86 3 l 1,2,3
 83 58 83 58 102 109 c 0,4,5
 134 192 134 192 202.5 273.5 c 128,-1,6
 271 355 271 355 402 461 c 0,7,8
 604 626 604 626 675 722.5 c 128,-1,9
 746 819 746 819 746 906 c 0,10,11
 746 996 746 996 681.5 1058 c 128,-1,12
 617 1120 617 1120 513 1120 c 0,13,14
 403 1120 403 1120 337 1054 c 128,-1,15
 271 988 271 988 270 872 c 1,16,-1
 114 888 l 1,17,18
 131 1064 131 1064 235 1155.5 c 128,-1,19
 339 1247 339 1247 516 1247 c 0,20,21
 694 1247 694 1247 798 1147.5 c 128,-1,22
 902 1048 902 1048 902 902 c 0,23,24
 902 828 902 828 871.5 756.5 c 128,-1,25
 841 685 841 685 770.5 605.5 c 128,-1,26
 700 526 700 526 536 388 c 0,27,28
 399 273 399 273 360 232 c 128,-1,29
 321 191 321 191 297 148 c 1,30,-1
 904 148 l 1,0,-1
EndSplineSet
EndChar

StartChar: three
Encoding: 51 51 21
Width: 1050
GlyphClass: 2
Flags: W
LayerCount: 2
Fore
SplineSet
119 348 m 1,0,-1
 271 369 l 1,1,2
 297 239 297 239 360.5 182 c 128,-1,3
 424 125 424 125 513 125 c 0,4,5
 621 125 621 125 695 199.5 c 128,-1,6
 769 274 769 274 769 384 c 0,7,8
 769 489 769 489 700.5 557 c 128,-1,9
 632 625 632 625 526 625 c 0,10,11
 484 625 484 625 420 608 c 1,12,-1
 436 741 l 1,13,14
 452 740 452 740 461 740 c 0,15,16
 558 740 558 740 635.5 790.5 c 128,-1,17
 713 841 713 841 713 947 c 0,18,19
 713 1030 713 1030 656.5 1085 c 128,-1,20
 600 1140 600 1140 511 1140 c 0,21,22
 421 1140 421 1140 362 1084.5 c 128,-1,23
 303 1029 303 1029 287 916 c 1,24,-1
 134 945 l 1,25,26
 163 1097 163 1097 261.5 1181 c 128,-1,27
 360 1265 360 1265 507 1265 c 0,28,29
 608 1265 608 1265 694 1221.5 c 128,-1,30
 780 1178 780 1178 824.5 1103 c 128,-1,31
 869 1028 869 1028 869 943 c 0,32,33
 869 863 869 863 826 797 c 128,-1,34
 783 731 783 731 699 692 c 1,35,36
 809 667 809 667 870 587 c 128,-1,37
 931 507 931 507 931 388 c 0,38,39
 931 225 931 225 812.5 112.5 c 128,-1,40
 694 0 694 0 513 0 c 0,41,42
 349 0 349 0 241.5 96.5 c 128,-1,43
 134 193 134 193 119 348 c 1,0,-1
EndSplineSet
EndChar

StartChar: four
Encoding: 52 52 22
Width: 1050
GlyphClass: 2
Flags: W
LayerCount: 2
Fore
SplineSet
618 -5 m 1,0,-1
 618 292 l 1,1,-1
 81 292 l 1,2,-1
 81 431 l 1,3,-1
 646 1234 l 1,4,-1
 771 1234 l 1,5,-1
 771 431 l 1,6,-1
 938 431 l 1,7,-1
 938 292 l 1,8,-1
 771 292 l 1,9,-1
 771 -5 l 1,10,-1
 618 -5 l 1,0,-1
618 431 m 1,11,-1
 618 989 l 1,12,-1
 230 431 l 1,13,-1
 618 431 l 1,11,-1
EndSplineSet
EndChar

StartChar: five
Encoding: 53 53 23
Width: 1050
GlyphClass: 2
Flags: W
LayerCount: 2
Fore
SplineSet
123 347 m 1,0,-1
 283 360 l 1,1,2
 301 243 301 243 365.5 185 c 128,-1,3
 430 127 430 127 521 127 c 0,4,5
 631 127 631 127 707 209.5 c 128,-1,6
 783 292 783 292 783 429 c 0,7,8
 783 558 783 558 710 633.5 c 128,-1,9
 637 709 637 709 518 709 c 0,10,11
 445 709 445 709 385.5 676 c 128,-1,12
 326 643 326 643 293 589 c 1,13,-1
 150 608 l 1,14,-1
 270 1244 l 1,15,-1
 886 1244 l 1,16,-1
 886 1098 l 1,17,-1
 392 1098 l 1,18,-1
 325 765 l 1,19,20
 436 844 436 844 559 844 c 0,21,22
 722 844 722 844 833.5 731 c 128,-1,23
 945 618 945 618 945 442 c 0,24,25
 945 274 945 274 846 151 c 0,26,27
 727 1 727 1 521 1 c 0,28,29
 352 1 352 1 245 96 c 128,-1,30
 138 191 138 191 123 347 c 1,0,-1
EndSplineSet
EndChar

StartChar: six
Encoding: 54 54 24
Width: 1050
GlyphClass: 2
Flags: W
LayerCount: 2
Fore
SplineSet
890 957 m 1,0,-1
 739 946 l 1,1,2
 718 1036 718 1036 681 1076 c 0,3,4
 620 1142 620 1142 529 1142 c 0,5,6
 457 1142 457 1142 402 1101 c 0,7,8
 330 1048 330 1048 288.5 947.5 c 128,-1,9
 247 847 247 847 246 662 c 1,10,11
 301 745 301 745 380.5 785.5 c 128,-1,12
 460 826 460 826 547 826 c 0,13,14
 698 826 698 826 804.5 714.5 c 128,-1,15
 911 603 911 603 911 425 c 0,16,17
 911 308 911 308 861.5 208 c 128,-1,18
 812 108 812 108 724 54.5 c 128,-1,19
 636 1 636 1 525 1 c 0,20,21
 334 1 334 1 214.5 141.5 c 128,-1,22
 95 282 95 282 95 603 c 0,23,24
 95 961 95 961 227 1124 c 0,25,26
 343 1266 343 1266 539 1266 c 0,27,28
 685 1266 685 1266 778.5 1184 c 128,-1,29
 872 1102 872 1102 890 957 c 1,0,-1
269 424 m 0,30,31
 269 346 269 346 302 274 c 128,-1,32
 335 202 335 202 395.5 164.5 c 128,-1,33
 456 127 456 127 522 127 c 0,34,35
 618 127 618 127 687 204.5 c 128,-1,36
 756 282 756 282 756 416 c 0,37,38
 756 544 756 544 688 618 c 128,-1,39
 620 692 620 692 516 692 c 256,40,41
 412 692 412 692 340.5 618 c 128,-1,42
 269 544 269 544 269 424 c 0,30,31
EndSplineSet
EndChar

StartChar: seven
Encoding: 55 55 25
Width: 1050
GlyphClass: 2
Flags: W
LayerCount: 2
Fore
SplineSet
129 1079 m 1,0,-1
 129 1225 l 1,1,-1
 932 1225 l 1,2,-1
 932 1106 l 1,3,4
 813 980 813 980 697 771.5 c 128,-1,5
 581 563 581 563 517 343 c 0,6,7
 471 187 471 187 460 3 c 1,8,-1
 302 3 l 1,9,10
 305 148 305 148 360 355 c 128,-1,11
 415 562 415 562 518 754.5 c 128,-1,12
 621 947 621 947 736 1079 c 1,13,-1
 129 1079 l 1,0,-1
EndSplineSet
EndChar

StartChar: eight
Encoding: 56 56 26
Width: 1050
GlyphClass: 2
Flags: W
LayerCount: 2
Fore
SplineSet
344 680 m 1,0,1
 250 714 250 714 204.5 778 c 128,-1,2
 159 842 159 842 159 932 c 0,3,4
 159 1066 159 1066 256 1158.5 c 128,-1,5
 353 1251 353 1251 515 1251 c 256,6,7
 677 1251 677 1251 775.5 1156.5 c 128,-1,8
 874 1062 874 1062 874 928 c 0,9,10
 874 841 874 841 829.5 777.5 c 128,-1,11
 785 714 785 714 692 680 c 1,12,13
 806 641 806 641 865.5 558.5 c 128,-1,14
 925 476 925 476 925 361 c 0,15,16
 925 202 925 202 812.5 94 c 128,-1,17
 700 -14 700 -14 517 -14 c 256,18,19
 334 -14 334 -14 221.5 95 c 128,-1,20
 109 204 109 204 109 366 c 0,21,22
 109 486 109 486 170.5 567.5 c 128,-1,23
 232 649 232 649 344 680 c 1,0,1
315 937 m 0,24,25
 315 849 315 849 371.5 793 c 128,-1,26
 428 737 428 737 518 737 c 0,27,28
 605 737 605 737 661.5 793 c 128,-1,29
 718 849 718 849 718 928 c 0,30,31
 718 1012 718 1012 660.5 1069 c 128,-1,32
 603 1126 603 1126 516 1126 c 256,33,34
 429 1126 429 1126 372 1070.5 c 128,-1,35
 315 1015 315 1015 315 937 c 0,24,25
265 365 m 0,36,37
 265 300 265 300 296.5 239 c 128,-1,38
 328 178 328 178 388.5 144.5 c 128,-1,39
 449 111 449 111 518 111 c 0,40,41
 627 111 627 111 698 181.5 c 128,-1,42
 769 252 769 252 769 360 c 0,43,44
 769 470 769 470 696 541.5 c 128,-1,45
 623 613 623 613 513 613 c 0,46,47
 407 613 407 613 336 542 c 128,-1,48
 265 471 265 471 265 365 c 0,36,37
EndSplineSet
EndChar

StartChar: nine
Encoding: 57 57 27
Width: 1050
GlyphClass: 2
Flags: W
LayerCount: 2
Fore
SplineSet
134 302 m 1,0,-1
 280 315 l 1,1,2
 298 212 298 212 350.5 165.5 c 128,-1,3
 403 119 403 119 485 119 c 0,4,5
 556 119 556 119 609 151 c 128,-1,6
 662 183 662 183 695 237 c 128,-1,7
 728 291 728 291 751 382.5 c 128,-1,8
 774 474 774 474 774 567 c 0,9,10
 774 577 774 577 773 598 c 1,11,12
 728 525 728 525 649 480 c 128,-1,13
 570 435 570 435 477 435 c 0,14,15
 324 435 324 435 217.5 546.5 c 128,-1,16
 111 658 111 658 111 841 c 0,17,18
 111 1029 111 1029 222 1143.5 c 128,-1,19
 333 1258 333 1258 500 1258 c 0,20,21
 622 1258 622 1258 722 1193.5 c 128,-1,22
 822 1129 822 1129 873.5 1008.5 c 128,-1,23
 925 888 925 888 925 659 c 0,24,25
 925 422 925 422 874 281.5 c 128,-1,26
 823 141 823 141 721.5 67.5 c 128,-1,27
 620 -6 620 -6 483 -6 c 0,28,29
 337 -6 337 -6 244.5 74.5 c 128,-1,30
 152 155 152 155 134 302 c 1,0,-1
756 849 m 0,31,32
 756 979 756 979 686.5 1056 c 128,-1,33
 617 1133 617 1133 520 1133 c 0,34,35
 417 1133 417 1133 342.5 1050.5 c 128,-1,36
 268 968 268 968 268 836 c 0,37,38
 268 717 268 717 339.5 643.5 c 128,-1,39
 411 570 411 570 515 570 c 0,40,41
 621 570 621 570 688.5 643.5 c 128,-1,42
 756 717 756 717 756 849 c 0,31,32
EndSplineSet
EndChar

StartChar: colon
Encoding: 58 58 28
Width: 1050
GlyphClass: 2
Flags: W
LayerCount: 2
Fore
SplineSet
411 960 m 1,0,-1
 411 1133 l 1,1,-1
 584 1133 l 1,2,-1
 584 960 l 1,3,-1
 411 960 l 1,0,-1
418 272 m 1,4,-1
 418 444 l 1,5,-1
 591 444 l 1,6,-1
 591 272 l 1,7,-1
 418 272 l 1,4,-1
EndSplineSet
EndChar

StartChar: semicolon
Encoding: 59 59 29
Width: 1050
GlyphClass: 2
Flags: W
LayerCount: 2
Fore
SplineSet
220 726 m 1,0,-1
 220 899 l 1,1,-1
 393 899 l 1,2,-1
 393 726 l 1,3,-1
 220 726 l 1,0,-1
220 1 m 1,4,-1
 220 175 l 1,5,-1
 393 175 l 1,6,-1
 393 1 l 2,7,8
 393 -93 393 -93 359 -152 c 128,-1,9
 325 -211 325 -211 252 -243 c 1,10,-1
 210 -178 l 1,11,12
 257 -157 257 -157 280 -116.5 c 128,-1,13
 303 -76 303 -76 306 1 c 1,14,-1
 220 1 l 1,4,-1
EndSplineSet
EndChar

StartChar: less
Encoding: 60 60 30
Width: 1050
GlyphClass: 2
Flags: W
LayerCount: 2
Fore
SplineSet
145 494 m 1,0,-1
 145 635 l 1,1,-1
 965 982 l 1,2,-1
 965 831 l 1,3,-1
 315 563 l 1,4,-1
 965 294 l 1,5,-1
 965 143 l 1,6,-1
 145 494 l 1,0,-1
EndSplineSet
EndChar

StartChar: equal
Encoding: 61 61 31
Width: 1050
GlyphClass: 2
Flags: W
LayerCount: 2
Fore
SplineSet
895 774 m 1,0,-1
 78 774 l 1,1,-1
 78 916 l 1,2,-1
 895 916 l 1,3,-1
 895 774 l 1,0,-1
895 398 m 1,4,-1
 78 398 l 1,5,-1
 78 540 l 1,6,-1
 895 540 l 1,7,-1
 895 398 l 1,4,-1
EndSplineSet
EndChar

StartChar: greater
Encoding: 62 62 32
Width: 1050
GlyphClass: 2
Flags: W
LayerCount: 2
Fore
SplineSet
970 504 m 1,0,-1
 150 154 l 1,1,-1
 150 305 l 1,2,-1
 799 573 l 1,3,-1
 150 841 l 1,4,-1
 150 992 l 1,5,-1
 970 645 l 1,6,-1
 970 504 l 1,0,-1
EndSplineSet
EndChar

StartChar: question
Encoding: 63 63 33
Width: 1050
GlyphClass: 2
Flags: W
LayerCount: 2
Fore
SplineSet
436 308 m 1,0,1
 435 338 435 338 435 353 c 0,2,3
 435 443 435 443 461 508 c 0,4,5
 480 557 480 557 521 607 c 0,6,7
 552 644 552 644 630.5 713 c 128,-1,8
 709 782 709 782 732.5 823.5 c 128,-1,9
 756 865 756 865 756 914 c 0,10,11
 756 1004 756 1004 687 1071 c 128,-1,12
 618 1138 618 1138 517 1138 c 0,13,14
 420 1138 420 1138 355.5 1077 c 128,-1,15
 291 1016 291 1016 270 887 c 1,16,-1
 114 905 l 1,17,18
 134 1078 134 1078 238.5 1170 c 128,-1,19
 343 1262 343 1262 515 1262 c 0,20,21
 696 1262 696 1262 804.5 1163.5 c 128,-1,22
 913 1065 913 1065 913 924 c 0,23,24
 913 844 913 844 875 775.5 c 128,-1,25
 837 707 837 707 726 609 c 0,26,27
 652 543 652 543 629.5 511.5 c 128,-1,28
 607 480 607 480 595.5 439.5 c 128,-1,29
 584 399 584 399 582 308 c 1,30,-1
 436 308 l 1,0,1
428 3 m 1,31,-1
 428 177 l 1,32,-1
 600 177 l 1,33,-1
 600 3 l 1,34,-1
 428 3 l 1,31,-1
EndSplineSet
EndChar

StartChar: at
Encoding: 64 64 34
Width: 1050
GlyphClass: 2
Flags: W
LayerCount: 2
Fore
SplineSet
645 442 m 1,0,1
 615 408 615 408 578 386.5 c 128,-1,2
 541 365 541 365 503 365 c 0,3,4
 462 365 462 365 423.5 389 c 128,-1,5
 385 413 385 413 360 463 c 128,-1,6
 335 513 335 513 335 573 c 0,7,8
 335 647 335 647 372.5 720.5 c 128,-1,9
 410 794 410 794 466.5 831.5 c 128,-1,10
 523 869 523 869 576 869 c 0,11,12
 615 869 615 869 652 848 c 128,-1,13
 689 827 689 827 715 784 c 1,14,-1
 731 856 l 1,15,-1
 814 856 l 1,16,-1
 748 545 l 2,17,18
 733 480 733 480 733 473 c 0,19,20
 733 460 733 460 742.5 451 c 128,-1,21
 752 442 752 442 766 442 c 0,22,23
 791 442 791 442 830 470 c 0,24,25
 883 508 883 508 913.5 570 c 128,-1,26
 944 632 944 632 944 698 c 0,27,28
 944 775 944 775 905 842.5 c 128,-1,29
 866 910 866 910 787 950 c 128,-1,30
 708 990 708 990 614 990 c 0,31,32
 505 990 505 990 415.5 939.5 c 128,-1,33
 326 889 326 889 277 794 c 128,-1,34
 228 699 228 699 228 591 c 0,35,36
 228 478 228 478 277 396 c 128,-1,37
 326 314 326 314 419.5 275 c 128,-1,38
 513 236 513 236 626 236 c 0,39,40
 748 236 748 236 829.5 276.5 c 128,-1,41
 911 317 911 317 953 375 c 1,42,-1
 1036 375 l 1,43,44
 1012 327 1012 327 955 277 c 128,-1,45
 898 227 898 227 818.5 197 c 128,-1,46
 739 167 739 167 628 167 c 0,47,48
 524 167 524 167 437.5 193.5 c 128,-1,49
 351 220 351 220 290 273 c 128,-1,50
 229 326 229 326 197 395 c 0,51,52
 159 483 159 483 159 584 c 0,53,54
 159 696 159 696 205 798 c 0,55,56
 261 924 261 924 365.5 991 c 128,-1,57
 470 1058 470 1058 618 1058 c 0,58,59
 733 1058 733 1058 824 1011 c 128,-1,60
 915 964 915 964 968 870 c 0,61,62
 1014 790 1014 790 1014 696 c 0,63,64
 1014 563 1014 563 919 458 c 0,65,66
 834 365 834 365 734 365 c 0,67,68
 703 365 703 365 683 374.5 c 128,-1,69
 663 384 663 384 654 402 c 0,70,71
 648 414 648 414 645 442 c 1,0,1
414 576 m 0,72,73
 414 512 414 512 444 476.5 c 128,-1,74
 474 441 474 441 514 441 c 0,75,76
 539 441 539 441 568 457 c 128,-1,77
 597 473 597 473 623 503.5 c 128,-1,78
 649 534 649 534 665.5 581 c 128,-1,79
 682 628 682 628 682 675 c 0,80,81
 682 739 682 739 651 773.5 c 128,-1,82
 620 808 620 808 576 808 c 0,83,84
 545 808 545 808 519 793 c 128,-1,85
 493 778 493 778 468.5 744.5 c 128,-1,86
 444 711 444 711 429 663.5 c 128,-1,87
 414 616 414 616 414 576 c 0,72,73
EndSplineSet
EndChar

StartChar: A
Encoding: 65 65 35
Width: 1050
GlyphClass: 2
Flags: W
LayerCount: 2
Fore
SplineSet
-1 0 m 1,0,-1
 430 1239 l 1,1,-1
 591 1239 l 1,2,-1
 1050 0 l 1,3,-1
 881 0 l 1,4,-1
 749 375 l 1,5,-1
 280 375 l 1,6,-1
 157 0 l 1,7,-1
 -1 0 l 1,0,-1
322 509 m 1,8,-1
 703 509 l 1,9,-1
 586 852 l 2,10,11
 533 1009 533 1009 507 1108 c 1,12,13
 485 989 485 989 447 872 c 2,14,-1
 322 509 l 1,8,-1
EndSplineSet
EndChar

StartChar: B
Encoding: 66 66 36
Width: 1050
GlyphClass: 2
Flags: W
LayerCount: 2
Fore
SplineSet
148 10 m 1,0,-1
 148 1249 l 1,1,-1
 563 1249 l 2,2,3
 689 1249 689 1249 765.5 1211.5 c 128,-1,4
 842 1174 842 1174 885.5 1095.5 c 128,-1,5
 929 1017 929 1017 929 932 c 0,6,7
 929 852 929 852 890.5 782.5 c 128,-1,8
 852 713 852 713 774 669 c 1,9,10
 875 636 875 636 929 556.5 c 128,-1,11
 983 477 983 477 983 370 c 0,12,13
 983 283 983 283 950 208 c 128,-1,14
 917 133 917 133 868.5 92.5 c 128,-1,15
 820 52 820 52 747.5 31 c 128,-1,16
 675 10 675 10 569 10 c 2,17,-1
 148 10 l 1,0,-1
283 718 m 1,18,-1
 552 718 l 2,19,20
 661 718 661 718 708 732 c 0,21,22
 771 751 771 751 802 794 c 128,-1,23
 833 837 833 837 833 902 c 0,24,25
 833 964 833 964 803.5 1011.5 c 128,-1,26
 774 1059 774 1059 719 1076 c 128,-1,27
 664 1093 664 1093 531 1093 c 2,28,-1
 283 1093 l 1,29,-1
 283 718 l 1,18,-1
283 146 m 1,30,-1
 591 146 l 2,31,32
 671 146 671 146 703 152 c 0,33,34
 760 163 760 163 798 186.5 c 128,-1,35
 836 210 836 210 860.5 255.5 c 128,-1,36
 885 301 885 301 885 360 c 0,37,38
 885 429 885 429 849.5 480 c 128,-1,39
 814 531 814 531 751.5 551.5 c 128,-1,40
 689 572 689 572 570 572 c 2,41,-1
 283 572 l 1,42,-1
 283 146 l 1,30,-1
EndSplineSet
EndChar

StartChar: C
Encoding: 67 67 37
Width: 1050
GlyphClass: 2
Flags: W
LayerCount: 2
Fore
SplineSet
934 463 m 1,0,-1
 1098 422 l 1,1,2
 1045 220 1045 220 911.5 114.5 c 128,-1,3
 778 9 778 9 584 9 c 0,4,5
 385 9 385 9 259.5 90.5 c 128,-1,6
 134 172 134 172 68 326.5 c 128,-1,7
 2 481 2 481 2 658 c 0,8,9
 2 851 2 851 76 995 c 128,-1,10
 150 1139 150 1139 286.5 1214 c 128,-1,11
 423 1289 423 1289 587 1289 c 0,12,13
 772 1289 772 1289 899 1194.5 c 128,-1,14
 1026 1100 1026 1100 1076 928 c 1,15,-1
 914 891 l 1,16,17
 871 1025 871 1025 789 1087 c 128,-1,18
 707 1149 707 1149 583 1149 c 0,19,20
 441 1149 441 1149 345 1080.5 c 128,-1,21
 249 1012 249 1012 210 897 c 128,-1,22
 171 782 171 782 171 659 c 0,23,24
 171 502 171 502 217 383.5 c 128,-1,25
 263 265 263 265 360.5 206.5 c 128,-1,26
 458 148 458 148 571 148 c 0,27,28
 708 148 708 148 803.5 227.5 c 128,-1,29
 899 307 899 307 934 463 c 1,0,-1
EndSplineSet
EndChar

StartChar: D
Encoding: 68 68 38
Width: 1050
GlyphClass: 2
Flags: W
LayerCount: 2
Fore
SplineSet
98 10 m 1,0,-1
 98 1249 l 1,1,-1
 481 1249 l 2,2,3
 611 1249 611 1249 679 1231 c 0,4,5
 775 1207 775 1207 843 1143 c 0,6,7
 931 1060 931 1060 974.5 931 c 128,-1,8
 1018 802 1018 802 1018 636 c 0,9,10
 1018 495 1018 495 988 386.5 c 128,-1,11
 958 278 958 278 912 206 c 128,-1,12
 866 134 866 134 811 93 c 128,-1,13
 756 52 756 52 678.5 31 c 128,-1,14
 601 10 601 10 500 10 c 2,15,-1
 98 10 l 1,0,-1
188 156 m 1,16,-1
 453 156 l 2,17,18
 576 156 576 156 645.5 179 c 128,-1,19
 715 202 715 202 756 243 c 0,20,21
 814 302 814 302 846.5 400.5 c 128,-1,22
 879 499 879 499 879 638 c 0,23,24
 879 833 879 833 816 937.5 c 128,-1,25
 753 1042 753 1042 660 1078 c 0,26,27
 595 1103 595 1103 449 1103 c 2,28,-1
 188 1103 l 1,29,-1
 188 156 l 1,16,-1
EndSplineSet
EndChar

StartChar: E
Encoding: 69 69 39
Width: 1050
GlyphClass: 2
Flags: W
LayerCount: 2
Fore
SplineSet
92 -15 m 1,0,-1
 92 1224 l 1,1,-1
 904 1224 l 1,2,-1
 904 1078 l 1,3,-1
 241 1078 l 1,4,-1
 241 698 l 1,5,-1
 862 698 l 1,6,-1
 862 553 l 1,7,-1
 241 553 l 1,8,-1
 241 131 l 1,9,-1
 929 131 l 1,10,-1
 929 -15 l 1,11,-1
 92 -15 l 1,0,-1
EndSplineSet
EndChar

StartChar: F
Encoding: 70 70 40
Width: 1050
GlyphClass: 2
Flags: W
LayerCount: 2
Fore
SplineSet
147 2 m 1,0,-1
 147 1241 l 1,1,-1
 948 1241 l 1,2,-1
 948 1095 l 1,3,-1
 304 1095 l 1,4,-1
 304 711 l 1,5,-1
 862 711 l 1,6,-1
 862 566 l 1,7,-1
 304 566 l 1,8,-1
 304 2 l 1,9,-1
 147 2 l 1,0,-1
EndSplineSet
EndChar

StartChar: G
Encoding: 71 71 41
Width: 1050
GlyphClass: 2
Flags: W
LayerCount: 2
Fore
SplineSet
562 495 m 1,0,-1
 562 640 l 1,1,-1
 1040 641 l 1,2,-1
 1040 182 l 1,3,4
 930 86 930 86 812.5 37 c 128,-1,5
 695 -12 695 -12 573 -12 c 0,6,7
 406 -12 406 -12 270 66.5 c 128,-1,8
 134 145 134 145 65 292.5 c 128,-1,9
 -4 440 -4 440 -4 622 c 256,10,11
 -4 804 -4 804 65 960 c 128,-1,12
 134 1116 134 1116 263 1192 c 128,-1,13
 392 1268 392 1268 561 1268 c 0,14,15
 684 1268 684 1268 783 1224.5 c 128,-1,16
 882 1181 882 1181 938 1104 c 128,-1,17
 994 1027 994 1027 1024 901 c 1,18,-1
 889 860 l 1,19,20
 864 955 864 955 826 1009.5 c 128,-1,21
 788 1064 788 1064 718 1096.5 c 128,-1,22
 648 1129 648 1129 562 1129 c 0,23,24
 460 1129 460 1129 385 1094.5 c 128,-1,25
 310 1060 310 1060 264 1004 c 128,-1,26
 218 948 218 948 192 882 c 0,27,28
 150 767 150 767 150 632 c 0,29,30
 150 467 150 467 202 355.5 c 128,-1,31
 254 244 254 244 353 190 c 128,-1,32
 452 136 452 136 565 136 c 0,33,34
 661 136 661 136 754 177 c 128,-1,35
 847 218 847 218 894 265 c 1,36,-1
 894 495 l 1,37,-1
 562 495 l 1,0,-1
EndSplineSet
EndChar

StartChar: H
Encoding: 72 72 42
Width: 1050
GlyphClass: 2
Flags: W
LayerCount: 2
Fore
SplineSet
196 0 m 1,0,-1
 196 1239 l 1,1,-1
 320 1239 l 1,2,-1
 320 730 l 1,3,-1
 805 730 l 1,4,-1
 805 1239 l 1,5,-1
 929 1239 l 1,6,-1
 929 0 l 1,7,-1
 805 0 l 1,8,-1
 805 584 l 1,9,-1
 320 584 l 1,10,-1
 320 0 l 1,11,-1
 196 0 l 1,0,-1
EndSplineSet
EndChar

StartChar: I
Encoding: 73 73 43
Width: 1050
GlyphClass: 2
Flags: W
LayerCount: 2
Fore
SplineSet
462 -23 m 1,0,-1
 462 1216 l 1,1,-1
 626 1216 l 1,2,-1
 626 -23 l 1,3,-1
 462 -23 l 1,0,-1
EndSplineSet
EndChar

StartChar: J
Encoding: 74 74 44
Width: 1050
GlyphClass: 2
Flags: W
LayerCount: 2
Fore
SplineSet
82 357 m 1,0,-1
 229 378 l 1,1,2
 236 236 236 236 283 183.5 c 128,-1,3
 330 131 330 131 413 131 c 0,4,5
 475 131 475 131 519.5 159.5 c 128,-1,6
 564 188 564 188 581.5 236.5 c 128,-1,7
 599 285 599 285 599 392 c 2,8,-1
 599 1244 l 1,9,-1
 763 1244 l 1,10,-1
 763 401 l 2,11,12
 763 246 763 246 725 160 c 128,-1,13
 687 74 687 74 606 29.5 c 128,-1,14
 525 -15 525 -15 415 -15 c 0,15,16
 251 -15 251 -15 164.5 79 c 128,-1,17
 78 173 78 173 82 357 c 1,0,-1
EndSplineSet
EndChar

StartChar: K
Encoding: 75 75 45
Width: 1050
GlyphClass: 2
Flags: W
LayerCount: 2
Fore
SplineSet
10 -5 m 1,0,-1
 10 1234 l 1,1,-1
 174 1234 l 1,2,-1
 174 620 l 1,3,-1
 789 1234 l 1,4,-1
 1011 1234 l 1,5,-1
 491 732 l 1,6,-1
 1034 -5 l 1,7,-1
 817 -5 l 1,8,-1
 376 622 l 1,9,-1
 174 425 l 1,10,-1
 174 -5 l 1,11,-1
 10 -5 l 1,0,-1
EndSplineSet
EndChar

StartChar: L
Encoding: 76 76 46
Width: 1050
GlyphClass: 2
Flags: W
LayerCount: 2
Fore
SplineSet
196 3 m 1,0,-1
 196 1242 l 1,1,-1
 360 1242 l 1,2,-1
 360 148 l 1,3,-1
 969 148 l 1,4,-1
 969 3 l 1,5,-1
 196 3 l 1,0,-1
EndSplineSet
EndChar

StartChar: M
Encoding: 77 77 47
Width: 1050
GlyphClass: 2
Flags: W
LayerCount: 2
Fore
SplineSet
7 3 m 1,0,-1
 7 1242 l 1,1,-1
 218 1242 l 1,2,-1
 469 365 l 2,3,4
 505 242 505 242 521 180 c 1,5,6
 539 248 539 248 577 380 c 2,7,-1
 831 1242 l 1,8,-1
 1021 1242 l 1,9,-1
 1021 3 l 1,10,-1
 886 3 l 1,11,-1
 886 1039 l 1,12,-1
 576 3 l 1,13,-1
 449 3 l 1,14,-1
 142 1057 l 1,15,-1
 142 3 l 1,16,-1
 7 3 l 1,0,-1
EndSplineSet
EndChar

StartChar: N
Encoding: 78 78 48
Width: 1050
GlyphClass: 2
Flags: W
LayerCount: 2
Fore
SplineSet
110 14 m 1,0,-1
 110 1253 l 1,1,-1
 261 1253 l 1,2,-1
 841 280 l 1,3,-1
 841 1253 l 1,4,-1
 980 1253 l 1,5,-1
 980 14 l 1,6,-1
 830 14 l 1,7,-1
 250 988 l 1,8,-1
 250 14 l 1,9,-1
 110 14 l 1,0,-1
EndSplineSet
EndChar

StartChar: O
Encoding: 79 79 49
Width: 1050
GlyphClass: 2
Flags: W
LayerCount: 2
Fore
SplineSet
2 612 m 0,0,1
 2 920 2 920 148.5 1095 c 128,-1,2
 295 1270 295 1270 526 1270 c 0,3,4
 678 1270 678 1270 799 1188 c 128,-1,5
 920 1106 920 1106 984 959.5 c 128,-1,6
 1048 813 1048 813 1048 627 c 0,7,8
 1048 439 1048 439 980.5 290 c 128,-1,9
 913 141 913 141 790 64.5 c 128,-1,10
 667 -12 667 -12 525 -12 c 0,11,12
 371 -12 371 -12 249 72.5 c 128,-1,13
 127 157 127 157 64.5 303 c 128,-1,14
 2 449 2 449 2 612 c 0,0,1
148 613 m 0,15,16
 148 390 148 390 254.5 261 c 128,-1,17
 361 132 361 132 521 132 c 0,18,19
 684 132 684 132 790 262.5 c 128,-1,20
 896 393 896 393 896 631 c 0,21,22
 896 782 896 782 850.5 895.5 c 128,-1,23
 805 1009 805 1009 718 1071 c 128,-1,24
 631 1133 631 1133 523 1133 c 0,25,26
 369 1133 369 1133 258.5 1013 c 128,-1,27
 148 893 148 893 148 613 c 0,15,16
EndSplineSet
EndChar

StartChar: P
Encoding: 80 80 50
Width: 1050
GlyphClass: 2
Flags: W
LayerCount: 2
Fore
SplineSet
95 -5 m 1,0,-1
 95 1234 l 1,1,-1
 562 1234 l 2,2,3
 685 1234 685 1234 750 1222 c 0,4,5
 842 1207 842 1207 903.5 1164 c 128,-1,6
 965 1121 965 1121 1003 1044 c 128,-1,7
 1041 967 1041 967 1041 875 c 0,8,9
 1041 718 1041 718 940.5 608.5 c 128,-1,10
 840 499 840 499 576 499 c 2,11,-1
 259 499 l 1,12,-1
 259 -5 l 1,13,-1
 95 -5 l 1,0,-1
249 645 m 1,14,-1
 569 645 l 2,15,16
 727 645 727 645 794.5 704 c 128,-1,17
 862 763 862 763 862 870 c 0,18,19
 862 948 862 948 822 1003 c 128,-1,20
 782 1058 782 1058 718 1076 c 0,21,22
 677 1088 677 1088 566 1088 c 2,23,-1
 249 1088 l 1,24,-1
 249 645 l 1,14,-1
EndSplineSet
EndChar

StartChar: Q
Encoding: 81 81 51
Width: 1050
GlyphClass: 2
Flags: W
LayerCount: 2
Fore
SplineSet
859 152 m 1,0,1
 957 74 957 74 1040 37 c 1,2,-1
 999 -77 l 1,3,4
 884 -28 884 -28 770 76 c 1,5,6
 652 -1 652 -1 508 -1 c 0,7,8
 362 -1 362 -1 245 79.5 c 128,-1,9
 128 160 128 160 64 307 c 128,-1,10
 0 454 0 454 0 639 c 0,11,12
 0 822 0 822 64 972.5 c 128,-1,13
 128 1123 128 1123 246.5 1201.5 c 128,-1,14
 365 1280 365 1280 511 1280 c 0,15,16
 658 1280 658 1280 777 1198.5 c 128,-1,17
 896 1117 896 1117 957.5 970.5 c 128,-1,18
 1019 824 1019 824 1019 640 c 0,19,20
 1019 486 1019 486 979.5 364.5 c 128,-1,21
 940 243 940 243 859 152 c 1,0,1
549 362 m 1,22,23
 672 323 672 323 751 243 c 1,24,25
 874 375 874 375 874 640 c 0,26,27
 874 790 874 790 830.5 902.5 c 128,-1,28
 787 1015 787 1015 702 1077 c 128,-1,29
 617 1139 617 1139 511 1139 c 0,30,31
 354 1139 354 1139 249.5 1013.5 c 128,-1,32
 145 888 145 888 145 639 c 0,33,34
 145 397 145 397 248 267.5 c 128,-1,35
 351 138 351 138 511 138 c 0,36,37
 587 138 587 138 653 172 c 1,38,39
 587 221 587 221 515 243 c 1,40,-1
 549 362 l 1,22,23
EndSplineSet
EndChar

StartChar: R
Encoding: 82 82 52
Width: 1050
GlyphClass: 2
Flags: W
LayerCount: 2
Fore
SplineSet
9 -15 m 1,0,-1
 9 1224 l 1,1,-1
 558 1224 l 2,2,3
 723 1224 723 1224 809.5 1190.5 c 128,-1,4
 896 1157 896 1157 947 1072.5 c 128,-1,5
 998 988 998 988 998 886 c 0,6,7
 998 754 998 754 913 664 c 128,-1,8
 828 574 828 574 650 548 c 1,9,10
 714 517 714 517 748 487 c 0,11,12
 820 421 820 421 884 323 c 2,13,-1
 1099 -15 l 1,14,-1
 893 -15 l 1,15,-1
 729 243 l 2,16,17
 658 355 658 355 611.5 414 c 128,-1,18
 565 473 565 473 528 496.5 c 128,-1,19
 491 520 491 520 453 529 c 0,20,21
 426 535 426 535 362 535 c 2,22,-1
 172 535 l 1,23,-1
 172 -15 l 1,24,-1
 9 -15 l 1,0,-1
172 677 m 1,25,-1
 524 677 l 2,26,27
 637 677 637 677 700.5 700 c 128,-1,28
 764 723 764 723 796.5 774.5 c 128,-1,29
 829 826 829 826 829 886 c 0,30,31
 829 973 829 973 765 1030 c 128,-1,32
 701 1087 701 1087 564 1087 c 2,33,-1
 172 1087 l 1,34,-1
 172 677 l 1,25,-1
EndSplineSet
EndChar

StartChar: S
Encoding: 83 83 53
Width: 1050
GlyphClass: 2
Flags: W
LayerCount: 2
Fore
SplineSet
4 411 m 1,0,-1
 159 425 l 1,1,2
 170 332 170 332 210 272.5 c 128,-1,3
 250 213 250 213 334.5 176.5 c 128,-1,4
 419 140 419 140 525 140 c 0,5,6
 618 140 618 140 690 167.5 c 128,-1,7
 762 195 762 195 797 243.5 c 128,-1,8
 832 292 832 292 832 350 c 0,9,10
 832 407 832 407 798 450.5 c 128,-1,11
 764 494 764 494 686 525 c 0,12,13
 638 544 638 544 467 585 c 128,-1,14
 296 626 296 626 227 662 c 0,15,16
 138 708 138 708 94.5 777 c 128,-1,17
 51 846 51 846 51 932 c 0,18,19
 51 1026 51 1026 104.5 1107 c 128,-1,20
 158 1188 158 1188 260 1230.5 c 128,-1,21
 362 1273 362 1273 488 1273 c 0,22,23
 625 1273 625 1273 730.5 1228.5 c 128,-1,24
 836 1184 836 1184 892.5 1097.5 c 128,-1,25
 949 1011 949 1011 952 903 c 1,26,-1
 796 891 l 1,27,28
 783 1009 783 1009 710.5 1068.5 c 128,-1,29
 638 1128 638 1128 494 1128 c 0,30,31
 346 1128 346 1128 278 1073.5 c 128,-1,32
 210 1019 210 1019 210 942 c 0,33,34
 210 876 210 876 257 832 c 0,35,36
 305 790 305 790 504.5 744.5 c 128,-1,37
 704 699 704 699 778 666 c 0,38,39
 887 616 887 616 938.5 539 c 128,-1,40
 990 462 990 462 990 362 c 0,41,42
 990 264 990 264 933.5 177 c 128,-1,43
 877 90 877 90 770.5 41.5 c 128,-1,44
 664 -7 664 -7 533 -7 c 0,45,46
 364 -7 364 -7 250.5 41.5 c 128,-1,47
 137 90 137 90 72.5 188.5 c 128,-1,48
 8 287 8 287 4 411 c 1,0,-1
EndSplineSet
EndChar

StartChar: T
Encoding: 84 84 54
Width: 1050
GlyphClass: 2
Flags: W
LayerCount: 2
Fore
SplineSet
466 3 m 1,0,-1
 466 1096 l 1,1,-1
 59 1096 l 1,2,-1
 59 1242 l 1,3,-1
 1039 1242 l 1,4,-1
 1039 1096 l 1,5,-1
 630 1096 l 1,6,-1
 630 3 l 1,7,-1
 466 3 l 1,0,-1
EndSplineSet
EndChar

StartChar: U
Encoding: 85 85 55
Width: 1050
GlyphClass: 2
Flags: W
LayerCount: 2
Fore
SplineSet
859 1253 m 1,0,-1
 1023 1253 l 1,1,-1
 1023 538 l 2,2,3
 1023 351 1023 351 980.5 241.5 c 128,-1,4
 938 132 938 132 828 63 c 128,-1,5
 718 -6 718 -6 539 -6 c 0,6,7
 365 -6 365 -6 254 54 c 128,-1,8
 143 114 143 114 96 228 c 128,-1,9
 49 342 49 342 49 538 c 2,10,-1
 49 1253 l 1,11,-1
 212 1253 l 1,12,-1
 212 539 l 2,13,14
 212 378 212 378 242.5 301 c 128,-1,15
 273 224 273 224 346 183 c 128,-1,16
 419 142 419 142 524 142 c 0,17,18
 705 142 705 142 782 224 c 128,-1,19
 859 306 859 306 859 539 c 2,20,-1
 859 1253 l 1,0,-1
EndSplineSet
EndChar

StartChar: V
Encoding: 86 86 56
Width: 1050
GlyphClass: 2
Flags: W
LayerCount: 2
Fore
SplineSet
453 -1 m 1,0,-1
 5 1238 l 1,1,-1
 170 1238 l 1,2,-1
 471 338 l 2,3,4
 507 229 507 229 532 134 c 1,5,6
 558 237 558 237 594 338 c 2,7,-1
 906 1238 l 1,8,-1
 1062 1238 l 1,9,-1
 610 -1 l 1,10,-1
 453 -1 l 1,0,-1
EndSplineSet
EndChar

StartChar: W
Encoding: 87 87 57
Width: 1050
GlyphClass: 2
Flags: W
LayerCount: 2
Fore
SplineSet
215 3 m 1,0,-1
 0 1242 l 1,1,-1
 110 1242 l 1,2,-1
 233 430 l 2,3,4
 253 302 253 302 268 177 c 1,5,6
 298 375 298 375 304 404 c 2,7,-1
 457 1242 l 1,8,-1
 587 1242 l 1,9,-1
 702 614 l 2,10,11
 746 381 746 381 766 177 c 1,12,13
 781 293 781 293 806 445 c 2,14,-1
 933 1242 l 1,15,-1
 1040 1242 l 1,16,-1
 818 3 l 1,17,-1
 716 3 l 1,18,-1
 545 946 l 2,19,20
 524 1065 524 1065 519 1092 c 1,21,22
 507 1006 507 1006 496 946 c 2,23,-1
 324 3 l 1,24,-1
 215 3 l 1,0,-1
EndSplineSet
EndChar

StartChar: X
Encoding: 88 88 58
Width: 1050
GlyphClass: 2
Flags: W
LayerCount: 2
Fore
SplineSet
3 2 m 1,0,-1
 449 648 l 1,1,-1
 57 1241 l 1,2,-1
 238 1241 l 1,3,-1
 447 924 l 2,4,5
 512 824 512 824 540 772 c 1,6,7
 578 840 578 840 631 913 c 2,8,-1
 863 1241 l 1,9,-1
 1027 1241 l 1,10,-1
 623 658 l 1,11,-1
 1060 2 l 1,12,-1
 870 2 l 1,13,-1
 581 444 l 2,14,15
 557 482 557 482 530 527 c 1,16,17
 492 459 492 459 476 434 c 2,18,-1
 186 2 l 1,19,-1
 3 2 l 1,0,-1
EndSplineSet
EndChar

StartChar: Y
Encoding: 89 89 59
Width: 1050
GlyphClass: 2
Flags: W
LayerCount: 2
Fore
SplineSet
449 -9 m 1,0,-1
 449 516 l 1,1,-1
 3 1230 l 1,2,-1
 189 1230 l 1,3,-1
 418 856 l 2,4,5
 482 751 482 751 535 646 c 1,6,7
 588 744 588 744 662 865 c 2,8,-1
 886 1230 l 1,9,-1
 1065 1230 l 1,10,-1
 602 516 l 1,11,-1
 602 -9 l 1,12,-1
 449 -9 l 1,0,-1
EndSplineSet
EndChar

StartChar: Z
Encoding: 90 90 60
Width: 1050
GlyphClass: 2
Flags: W
LayerCount: 2
Fore
SplineSet
131 -9 m 1,0,-1
 131 143 l 1,1,-1
 765 937 l 2,2,3
 832 1021 832 1021 893 1084 c 1,4,-1
 202 1084 l 1,5,-1
 202 1230 l 1,6,-1
 1089 1230 l 1,7,-1
 1089 1084 l 1,8,-1
 394 224 l 1,9,-1
 319 137 l 1,10,-1
 1110 137 l 1,11,-1
 1110 -9 l 1,12,-1
 131 -9 l 1,0,-1
EndSplineSet
EndChar

StartChar: bracketleft
Encoding: 91 91 61
Width: 1050
GlyphClass: 2
Flags: W
LayerCount: 2
Fore
SplineSet
210 -301 m 1,0,-1
 210 1281 l 1,1,-1
 545 1281 l 1,2,-1
 545 1156 l 1,3,-1
 362 1156 l 1,4,-1
 362 -174 l 1,5,-1
 545 -174 l 1,6,-1
 545 -301 l 1,7,-1
 210 -301 l 1,0,-1
EndSplineSet
EndChar

StartChar: backslash
Encoding: 92 92 62
Width: 1050
GlyphClass: 2
Flags: W
LayerCount: 2
Fore
SplineSet
521 9 m 1,0,-1
 163 1289 l 1,1,-1
 284 1289 l 1,2,-1
 643 9 l 1,3,-1
 521 9 l 1,0,-1
EndSplineSet
EndChar

StartChar: braceright
Encoding: 93 93 63
Width: 1050
GlyphClass: 2
Flags: W
LayerCount: 2
Fore
SplineSet
465 -278 m 1,0,-1
 129 -278 l 1,1,-1
 129 -151 l 1,2,-1
 314 -151 l 1,3,-1
 314 1179 l 1,4,-1
 129 1179 l 1,5,-1
 129 1304 l 1,6,-1
 465 1304 l 1,7,-1
 465 -278 l 1,0,-1
EndSplineSet
EndChar

StartChar: caron
Encoding: 94 94 64
Width: 1050
GlyphClass: 2
Flags: W
LayerCount: 2
Fore
SplineSet
253 599 m 1,0,-1
 97 599 l 1,1,-1
 396 1276 l 1,2,-1
 518 1276 l 1,3,-1
 818 599 l 1,4,-1
 664 599 l 1,5,-1
 456 1103 l 1,6,-1
 253 599 l 1,0,-1
EndSplineSet
EndChar

StartChar: underscore
Encoding: 95 95 65
Width: 1050
GlyphClass: 2
Flags: W
LayerCount: 2
Fore
SplineSet
1 -456 m 1,0,-1
 1 -346 l 1,1,-1
 1009 -346 l 1,2,-1
 1009 -456 l 1,3,-1
 1 -456 l 1,0,-1
EndSplineSet
EndChar

StartChar: grave
Encoding: 96 96 66
Width: 1050
GlyphClass: 2
Flags: W
LayerCount: 2
Fore
SplineSet
595 1528 m 1,0,-1
 410 1528 l 1,1,-1
 114 1887 l 1,2,-1
 422 1887 l 1,3,-1
 595 1528 l 1,0,-1
EndSplineSet
EndChar

StartChar: a
Encoding: 97 97 67
Width: 1050
GlyphClass: 2
Flags: W
LayerCount: 2
Fore
SplineSet
753 119 m 1,0,1
 668 47 668 47 590 17.5 c 128,-1,2
 512 -12 512 -12 422 -12 c 0,3,4
 274 -12 274 -12 194.5 60.5 c 128,-1,5
 115 133 115 133 115 244 c 0,6,7
 115 311 115 311 145 365.5 c 128,-1,8
 175 420 175 420 224 452.5 c 128,-1,9
 273 485 273 485 334 503 c 0,10,11
 379 515 379 515 468 525 c 0,12,13
 653 548 653 548 740 577 c 1,14,15
 741 609 741 609 741 617 c 0,16,17
 741 710 741 710 698 749 c 0,18,19
 639 800 639 800 525 800 c 0,20,21
 417 800 417 800 366 762 c 128,-1,22
 315 724 315 724 291 630 c 1,23,-1
 142 649 l 1,24,25
 163 745 163 745 209 804 c 128,-1,26
 255 863 255 863 342.5 894 c 128,-1,27
 430 925 430 925 547 925 c 0,28,29
 662 925 662 925 733.5 898.5 c 128,-1,30
 805 872 805 872 839 831 c 128,-1,31
 873 790 873 790 886 727 c 0,32,33
 893 689 893 689 893 588 c 2,34,-1
 893 384 l 2,35,36
 893 173 893 173 903 116.5 c 128,-1,37
 913 60 913 60 942 9 c 1,38,-1
 783 9 l 1,39,40
 759 56 759 56 753 119 c 1,0,1
722 466 m 1,41,42
 639 433 639 433 474 408 c 0,43,44
 380 396 380 396 341 378.5 c 128,-1,45
 302 361 302 361 281 329 c 128,-1,46
 260 297 260 297 260 257 c 0,47,48
 260 196 260 196 306 155.5 c 128,-1,49
 352 115 352 115 440 115 c 0,50,51
 529 115 529 115 597.5 153.5 c 128,-1,52
 666 192 666 192 698 259 c 0,53,54
 722 310 722 310 722 411 c 2,55,-1
 722 466 l 1,41,42
EndSplineSet
EndChar

StartChar: b
Encoding: 98 98 68
Width: 1050
GlyphClass: 2
Flags: W
LayerCount: 2
Fore
SplineSet
229 4 m 1,0,-1
 87 4 l 1,1,-1
 87 1243 l 1,2,-1
 239 1243 l 1,3,-1
 239 801 l 1,4,5
 335 922 335 922 485 922 c 0,6,7
 568 922 568 922 642 888.5 c 128,-1,8
 716 855 716 855 764 794 c 128,-1,9
 812 733 812 733 838.5 648 c 128,-1,10
 865 563 865 563 865 466 c 0,11,12
 865 236 865 236 751 109.5 c 128,-1,13
 637 -17 637 -17 477 -17 c 0,14,15
 319 -17 319 -17 229 116 c 1,16,-1
 229 4 l 1,0,-1
257 462 m 0,17,18
 257 301 257 301 301 229 c 0,19,20
 372 111 372 111 495 111 c 0,21,22
 595 111 595 111 668 197.5 c 128,-1,23
 741 284 741 284 741 456 c 0,24,25
 741 632 741 632 671.5 715.5 c 128,-1,26
 602 799 602 799 502 799 c 0,27,28
 403 799 403 799 330 712.5 c 128,-1,29
 257 626 257 626 257 462 c 0,17,18
EndSplineSet
EndChar

StartChar: c
Encoding: 99 99 69
Width: 1050
GlyphClass: 2
Flags: W
LayerCount: 2
Fore
SplineSet
724 348 m 1,0,-1
 874 329 l 1,1,2
 849 174 849 174 748.5 87 c 128,-1,3
 648 0 648 0 500 0 c 0,4,5
 316 0 316 0 204 120.5 c 128,-1,6
 92 241 92 241 92 465 c 0,7,8
 92 611 92 611 140 719.5 c 128,-1,9
 188 828 188 828 286.5 882.5 c 128,-1,10
 385 937 385 937 502 937 c 0,11,12
 648 937 648 937 740.5 863.5 c 128,-1,13
 833 790 833 790 859 654 c 1,14,-1
 712 631 l 1,15,16
 690 721 690 721 637 767 c 128,-1,17
 584 813 584 813 507 813 c 0,18,19
 392 813 392 813 320 730.5 c 128,-1,20
 248 648 248 648 248 470 c 0,21,22
 248 288 248 288 317.5 206 c 128,-1,23
 387 124 387 124 499 124 c 0,24,25
 589 124 589 124 648.5 179 c 128,-1,26
 708 234 708 234 724 348 c 1,0,-1
EndSplineSet
EndChar

StartChar: d
Encoding: 100 100 70
Width: 1050
GlyphClass: 2
Flags: W
LayerCount: 2
Fore
SplineSet
719 8 m 1,0,-1
 719 122 l 1,1,2
 634 -13 634 -13 468 -13 c 0,3,4
 361 -13 361 -13 271.5 46.5 c 128,-1,5
 182 106 182 106 132 211.5 c 128,-1,6
 82 317 82 317 82 456 c 0,7,8
 82 590 82 590 127 699.5 c 128,-1,9
 172 809 172 809 261.5 867 c 128,-1,10
 351 925 351 925 462 925 c 0,11,12
 543 925 543 925 606 890.5 c 128,-1,13
 669 856 669 856 709 803 c 1,14,-1
 709 1247 l 1,15,-1
 860 1247 l 1,16,-1
 860 8 l 1,17,-1
 719 8 l 1,0,-1
215 456 m 0,18,19
 215 283 215 283 288 198 c 128,-1,20
 361 113 361 113 460 113 c 256,21,22
 559 113 559 113 629 194 c 128,-1,23
 699 275 699 275 699 443 c 0,24,25
 699 627 699 627 628 713.5 c 128,-1,26
 557 800 557 800 453 800 c 0,27,28
 352 800 352 800 283.5 717 c 128,-1,29
 215 634 215 634 215 456 c 0,18,19
EndSplineSet
EndChar

StartChar: e
Encoding: 101 101 71
Width: 1050
GlyphClass: 2
Flags: W
LayerCount: 2
Fore
SplineSet
763 308 m 1,0,-1
 919 289 l 1,1,2
 882 151 882 151 781.5 75.5 c 128,-1,3
 681 0 681 0 525 0 c 0,4,5
 328 0 328 0 212.5 121 c 128,-1,6
 97 242 97 242 97 461 c 0,7,8
 97 687 97 687 213.5 812 c 128,-1,9
 330 937 330 937 517 937 c 0,10,11
 696 937 696 937 810 814.5 c 128,-1,12
 924 692 924 692 924 470 c 0,13,14
 924 457 924 457 924 430 c 1,15,-1
 255 430 l 1,16,17
 264 282 264 282 338.5 203 c 128,-1,18
 413 124 413 124 526 124 c 0,19,20
 609 124 609 124 668.5 168 c 128,-1,21
 728 212 728 212 763 308 c 1,0,-1
264 554 m 1,22,-1
 764 554 l 1,23,24
 754 668 754 668 707 724 c 0,25,26
 634 813 634 813 518 813 c 0,27,28
 413 813 413 813 342 742.5 c 128,-1,29
 271 672 271 672 264 554 c 1,22,-1
EndSplineSet
EndChar

StartChar: f
Encoding: 102 102 72
Width: 1050
GlyphClass: 2
Flags: W
LayerCount: 2
Fore
SplineSet
284 3 m 1,0,-1
 284 782 l 1,1,-1
 150 782 l 1,2,-1
 150 900 l 1,3,-1
 284 900 l 1,4,-1
 284 996 l 2,5,6
 284 1085 284 1085 301 1130 c 0,7,8
 323 1189 323 1189 378 1225.5 c 128,-1,9
 433 1262 433 1262 532 1262 c 0,10,11
 598 1262 598 1262 675 1247 c 1,12,-1
 652 1115 l 1,13,14
 604 1123 604 1123 562 1123 c 0,15,16
 493 1123 493 1123 464 1093.5 c 128,-1,17
 435 1064 435 1064 435 983 c 2,18,-1
 435 900 l 1,19,-1
 611 900 l 1,20,-1
 611 782 l 1,21,-1
 435 782 l 1,22,-1
 435 3 l 1,23,-1
 284 3 l 1,0,-1
EndSplineSet
EndChar

StartChar: g
Encoding: 103 103 73
Width: 1050
GlyphClass: 2
Flags: W
LayerCount: 2
Fore
SplineSet
212 -90 m 1,0,-1
 360 -111 l 1,1,2
 370 -180 370 -180 412 -211 c 0,3,4
 468 -253 468 -253 566 -253 c 0,5,6
 672 -253 672 -253 729.5 -211 c 128,-1,7
 787 -169 787 -169 808 -93 c 0,8,9
 819 -46 819 -46 818 102 c 1,10,11
 718 -15 718 -15 570 -15 c 0,12,13
 385 -15 385 -15 283.5 118.5 c 128,-1,14
 182 252 182 252 182 439 c 0,15,16
 182 567 182 567 228.5 676 c 128,-1,17
 275 785 275 785 363.5 843.5 c 128,-1,18
 452 902 452 902 571 902 c 0,19,20
 730 902 730 902 832 774 c 1,21,-1
 832 882 l 1,22,-1
 973 882 l 1,23,-1
 973 106 l 2,24,25
 973 -102 973 -102 930 -190 c 128,-1,26
 887 -278 887 -278 795 -328.5 c 128,-1,27
 703 -379 703 -379 567 -379 c 0,28,29
 407 -379 407 -379 308 -306.5 c 128,-1,30
 209 -234 209 -234 212 -90 c 1,0,-1
324 463 m 0,31,32
 324 287 324 287 393.5 205.5 c 128,-1,33
 463 124 463 124 570 124 c 0,34,35
 675 124 675 124 745 204.5 c 128,-1,36
 815 285 815 285 815 458 c 0,37,38
 815 623 815 623 742 706.5 c 128,-1,39
 669 790 669 790 567 790 c 0,40,41
 466 790 466 790 395 708 c 128,-1,42
 324 626 324 626 324 463 c 0,31,32
EndSplineSet
EndChar

StartChar: h
Encoding: 104 104 74
Width: 1050
GlyphClass: 2
Flags: W
LayerCount: 2
Fore
SplineSet
124 -1 m 1,0,-1
 124 1238 l 1,1,-1
 276 1238 l 1,2,-1
 276 794 l 1,3,4
 383 916 383 916 545 916 c 0,5,6
 644 916 644 916 717.5 877 c 128,-1,7
 791 838 791 838 823 768.5 c 128,-1,8
 855 699 855 699 855 567 c 2,9,-1
 855 -1 l 1,10,-1
 703 -1 l 1,11,-1
 703 567 l 2,12,13
 703 681 703 681 653.5 733.5 c 128,-1,14
 604 786 604 786 513 786 c 0,15,16
 445 786 445 786 385.5 751 c 128,-1,17
 326 716 326 716 301 655.5 c 128,-1,18
 276 595 276 595 276 490 c 2,19,-1
 276 -1 l 1,20,-1
 124 -1 l 1,0,-1
EndSplineSet
EndChar

StartChar: i
Encoding: 105 105 75
Width: 1050
GlyphClass: 2
Flags: W
LayerCount: 2
Fore
SplineSet
371 1048 m 1,0,-1
 371 1223 l 1,1,-1
 523 1223 l 1,2,-1
 523 1048 l 1,3,-1
 371 1048 l 1,0,-1
377 -16 m 1,4,-1
 377 881 l 1,5,-1
 529 881 l 1,6,-1
 529 -16 l 1,7,-1
 377 -16 l 1,4,-1
EndSplineSet
EndChar

StartChar: j
Encoding: 106 106 76
Width: 1050
GlyphClass: 2
Flags: W
LayerCount: 2
Fore
SplineSet
344 1146 m 1,0,-1
 344 1322 l 1,1,-1
 497 1322 l 1,2,-1
 497 1146 l 1,3,-1
 344 1146 l 1,0,-1
151 -264 m 1,4,-1
 180 -134 l 1,5,6
 225 -146 225 -146 252 -146 c 0,7,8
 298 -146 298 -146 321 -115 c 128,-1,9
 344 -84 344 -84 344 38 c 2,10,-1
 344 982 l 1,11,-1
 497 982 l 1,12,-1
 497 36 l 2,13,14
 497 -131 497 -131 453 -196 c 0,15,16
 398 -280 398 -280 270 -280 c 0,17,18
 209 -280 209 -280 151 -264 c 1,4,-1
EndSplineSet
EndChar

StartChar: k
Encoding: 107 107 77
Width: 1050
GlyphClass: 2
Flags: W
LayerCount: 2
Fore
SplineSet
178 3 m 1,0,-1
 178 1242 l 1,1,-1
 329 1242 l 1,2,-1
 329 535 l 1,3,-1
 690 900 l 1,4,-1
 886 900 l 1,5,-1
 543 567 l 1,6,-1
 920 3 l 1,7,-1
 733 3 l 1,8,-1
 436 462 l 1,9,-1
 329 358 l 1,10,-1
 329 3 l 1,11,-1
 178 3 l 1,0,-1
EndSplineSet
EndChar

StartChar: l
Encoding: 108 108 78
Width: 1050
GlyphClass: 2
Flags: W
LayerCount: 2
Fore
SplineSet
170 3 m 1,0,-1
 170 1242 l 1,1,-1
 321 1242 l 1,2,-1
 321 3 l 1,3,-1
 170 3 l 1,0,-1
EndSplineSet
EndChar

StartChar: m
Encoding: 109 109 79
Width: 1050
GlyphClass: 2
Flags: W
LayerCount: 2
Fore
SplineSet
132 6 m 1,0,-1
 132 904 l 1,1,-1
 255 904 l 1,2,-1
 255 777 l 1,3,4
 292 844 292 844 354.5 883.5 c 128,-1,5
 417 923 417 923 497 923 c 0,6,7
 587 923 587 923 644 882 c 128,-1,8
 701 841 701 841 724 767 c 1,9,10
 819 923 819 923 972 923 c 0,11,12
 1091 923 1091 923 1155.5 849.5 c 128,-1,13
 1220 776 1220 776 1220 622 c 2,14,-1
 1220 6 l 1,15,-1
 1085 6 l 1,16,-1
 1085 571 l 2,17,18
 1085 662 1085 662 1071.5 702 c 128,-1,19
 1058 742 1058 742 1023 766.5 c 128,-1,20
 988 791 988 791 942 791 c 0,21,22
 857 791 857 791 801.5 728.5 c 128,-1,23
 746 666 746 666 746 527 c 2,24,-1
 746 6 l 1,25,-1
 610 6 l 1,26,-1
 610 589 l 2,27,28
 610 690 610 690 576.5 740.5 c 128,-1,29
 543 791 543 791 468 791 c 0,30,31
 410 791 410 791 361.5 757.5 c 128,-1,32
 313 724 313 724 290.5 659 c 128,-1,33
 268 594 268 594 268 471 c 2,34,-1
 268 6 l 1,35,-1
 132 6 l 1,0,-1
EndSplineSet
EndChar

StartChar: n
Encoding: 110 110 80
Width: 1050
GlyphClass: 2
Flags: W
LayerCount: 2
Fore
SplineSet
119 -3 m 1,0,-1
 119 895 l 1,1,-1
 255 895 l 1,2,-1
 255 767 l 1,3,4
 355 914 355 914 541 914 c 0,5,6
 622 914 622 914 690 885 c 128,-1,7
 758 856 758 856 792 809 c 128,-1,8
 826 762 826 762 840 696 c 0,9,10
 847 654 847 654 847 549 c 2,11,-1
 847 -3 l 1,12,-1
 695 -3 l 1,13,-1
 695 543 l 2,14,15
 695 636 695 636 677.5 682 c 128,-1,16
 660 728 660 728 615 755 c 128,-1,17
 570 782 570 782 508 782 c 0,18,19
 412 782 412 782 341 720.5 c 128,-1,20
 270 659 270 659 270 486 c 2,21,-1
 270 -3 l 1,22,-1
 119 -3 l 1,0,-1
EndSplineSet
EndChar

StartChar: o
Encoding: 111 111 81
Width: 1050
GlyphClass: 2
Flags: W
LayerCount: 2
Fore
SplineSet
122 475 m 0,0,1
 122 724 122 724 260 844 c 0,2,3
 376 943 376 943 543 943 c 0,4,5
 727 943 727 943 845 822 c 128,-1,6
 963 701 963 701 963 488 c 0,7,8
 963 315 963 315 910.5 215 c 128,-1,9
 858 115 858 115 758.5 60.5 c 128,-1,10
 659 6 659 6 543 6 c 0,11,12
 353 6 353 6 237.5 126.5 c 128,-1,13
 122 247 122 247 122 475 c 0,0,1
259 475 m 256,14,15
 259 302 259 302 333.5 216.5 c 128,-1,16
 408 131 408 131 522 131 c 256,17,18
 636 131 636 131 711 217 c 128,-1,19
 786 303 786 303 786 480 c 0,20,21
 786 646 786 646 710.5 732 c 128,-1,22
 635 818 635 818 522 818 c 0,23,24
 408 818 408 818 333.5 733 c 128,-1,25
 259 648 259 648 259 475 c 256,14,15
EndSplineSet
EndChar

StartChar: p
Encoding: 112 112 82
Width: 1050
GlyphClass: 2
Flags: W
LayerCount: 2
Fore
SplineSet
137 -330 m 1,0,-1
 137 910 l 1,1,-1
 275 910 l 1,2,-1
 275 794 l 1,3,4
 324 863 324 863 386 897 c 128,-1,5
 448 931 448 931 535 931 c 0,6,7
 650 931 650 931 738 872 c 128,-1,8
 826 813 826 813 870.5 704.5 c 128,-1,9
 915 596 915 596 915 468 c 0,10,11
 915 330 915 330 866 220 c 128,-1,12
 817 110 817 110 722.5 51 c 128,-1,13
 628 -8 628 -8 525 -8 c 0,14,15
 448 -8 448 -8 388 25 c 128,-1,16
 328 58 328 58 289 106 c 1,17,-1
 289 -330 l 1,18,-1
 137 -330 l 1,0,-1
303 460 m 0,19,20
 303 285 303 285 373.5 202.5 c 128,-1,21
 444 120 444 120 544 120 c 0,22,23
 645 120 645 120 717.5 206 c 128,-1,24
 790 292 790 292 790 472 c 0,25,26
 790 644 790 644 719.5 729 c 128,-1,27
 649 814 649 814 550 814 c 0,28,29
 453 814 453 814 378 723 c 128,-1,30
 303 632 303 632 303 460 c 0,19,20
EndSplineSet
EndChar

StartChar: q
Encoding: 113 113 83
Width: 1050
GlyphClass: 2
Flags: W
LayerCount: 2
Fore
SplineSet
745 -319 m 1,0,-1
 745 120 l 1,1,2
 709 70 709 70 645 37 c 128,-1,3
 581 4 581 4 509 4 c 0,4,5
 351 4 351 4 235 132 c 128,-1,6
 119 260 119 260 119 481 c 0,7,8
 119 617 119 617 166.5 724.5 c 128,-1,9
 214 832 214 832 303 887 c 128,-1,10
 392 942 392 942 498 942 c 0,11,12
 664 942 664 942 760 801 c 1,13,-1
 760 922 l 1,14,-1
 897 922 l 1,15,-1
 897 -319 l 1,16,-1
 745 -319 l 1,0,-1
259 476 m 0,17,18
 259 302 259 302 331 215.5 c 128,-1,19
 403 129 403 129 504 129 c 0,20,21
 602 129 602 129 672 211.5 c 128,-1,22
 742 294 742 294 742 462 c 0,23,24
 742 641 742 641 668 731.5 c 128,-1,25
 594 822 594 822 494 822 c 0,26,27
 396 822 396 822 327.5 738 c 128,-1,28
 259 654 259 654 259 476 c 0,17,18
EndSplineSet
EndChar

StartChar: r
Encoding: 114 114 84
Width: 1050
GlyphClass: 2
Flags: W
LayerCount: 2
Fore
SplineSet
105 0 m 1,0,-1
 105 897 l 1,1,-1
 242 897 l 1,2,-1
 242 760 l 1,3,4
 294 856 294 856 338.5 886 c 128,-1,5
 383 916 383 916 436 916 c 0,6,7
 513 916 513 916 593 868 c 1,8,-1
 540 727 l 1,9,10
 484 760 484 760 429 760 c 0,11,12
 379 760 379 760 339.5 730 c 128,-1,13
 300 700 300 700 283 646 c 0,14,15
 257 566 257 566 257 470 c 2,16,-1
 257 0 l 1,17,-1
 105 0 l 1,0,-1
EndSplineSet
EndChar

StartChar: s
Encoding: 115 115 85
Width: 1050
GlyphClass: 2
Flags: W
LayerCount: 2
Fore
SplineSet
118 283 m 1,0,-1
 268 306 l 1,1,2
 280 216 280 216 338.5 167.5 c 128,-1,3
 397 119 397 119 500 119 c 0,4,5
 605 119 605 119 656 162 c 128,-1,6
 707 205 707 205 707 262 c 0,7,8
 707 314 707 314 662 343 c 0,9,10
 631 364 631 364 507 396 c 0,11,12
 339 438 339 438 274.5 468.5 c 128,-1,13
 210 499 210 499 176.5 553.5 c 128,-1,14
 143 608 143 608 143 673 c 0,15,16
 143 733 143 733 170.5 784.5 c 128,-1,17
 198 836 198 836 246 869 c 0,18,19
 280 896 280 896 341.5 914 c 128,-1,20
 403 932 403 932 474 932 c 0,21,22
 579 932 579 932 659 902 c 128,-1,23
 739 872 739 872 776.5 820 c 128,-1,24
 814 768 814 768 829 681 c 1,25,-1
 681 660 l 1,26,27
 671 730 671 730 622 769 c 128,-1,28
 573 808 573 808 484 808 c 0,29,30
 380 808 380 808 335.5 772.5 c 128,-1,31
 291 737 291 737 291 691 c 0,32,33
 291 662 291 662 308 639 c 0,34,35
 328 613 328 613 367 598 c 0,36,37
 389 589 389 589 502 559 c 0,38,39
 663 516 663 516 726.5 488.5 c 128,-1,40
 790 461 790 461 826.5 408.5 c 128,-1,41
 863 356 863 356 863 278 c 0,42,43
 863 202 863 202 818.5 135 c 128,-1,44
 774 68 774 68 690.5 31.5 c 128,-1,45
 607 -5 607 -5 502 -5 c 0,46,47
 326 -5 326 -5 234.5 67.5 c 128,-1,48
 143 140 143 140 118 283 c 1,0,-1
EndSplineSet
EndChar

StartChar: t
Encoding: 116 116 86
Width: 1050
GlyphClass: 2
Flags: W
LayerCount: 2
Fore
SplineSet
554 154 m 1,0,-1
 576 19 l 1,1,2
 512 6 512 6 461 6 c 0,3,4
 379 6 379 6 333 32.5 c 128,-1,5
 287 59 287 59 268.5 101 c 128,-1,6
 250 143 250 143 250 280 c 2,7,-1
 250 797 l 1,8,-1
 138 797 l 1,9,-1
 138 915 l 1,10,-1
 250 915 l 1,11,-1
 250 1138 l 1,12,-1
 401 1229 l 1,13,-1
 401 915 l 1,14,-1
 554 915 l 1,15,-1
 554 797 l 1,16,-1
 401 797 l 1,17,-1
 401 273 l 2,18,19
 401 207 401 207 409 188.5 c 128,-1,20
 417 170 417 170 435 159 c 128,-1,21
 453 148 453 148 488 148 c 0,22,23
 512 148 512 148 554 154 c 1,0,-1
EndSplineSet
EndChar

StartChar: u
Encoding: 117 117 87
Width: 1050
GlyphClass: 2
Flags: W
LayerCount: 2
Fore
SplineSet
695 6 m 1,0,-1
 695 138 l 1,1,2
 590 -13 590 -13 411 -13 c 0,3,4
 332 -13 332 -13 262.5 17 c 128,-1,5
 193 47 193 47 160 93.5 c 128,-1,6
 127 140 127 140 113 206 c 0,7,8
 104 251 104 251 104 348 c 2,9,-1
 104 904 l 1,10,-1
 256 904 l 1,11,-1
 256 407 l 2,12,13
 256 288 256 288 265 246 c 0,14,15
 279 186 279 186 325.5 152 c 128,-1,16
 372 118 372 118 442 118 c 0,17,18
 509 118 509 118 569.5 153 c 128,-1,19
 630 188 630 188 655 248 c 128,-1,20
 680 308 680 308 680 424 c 2,21,-1
 680 904 l 1,22,-1
 831 904 l 1,23,-1
 831 6 l 1,24,-1
 695 6 l 1,0,-1
EndSplineSet
EndChar

StartChar: v
Encoding: 118 118 88
Width: 1050
GlyphClass: 2
Flags: W
LayerCount: 2
Fore
SplineSet
453 3 m 1,0,-1
 113 899 l 1,1,-1
 273 899 l 1,2,-1
 465 362 l 2,3,4
 497 275 497 275 522 180 c 1,5,6
 543 252 543 252 580 352 c 2,7,-1
 778 899 l 1,8,-1
 934 899 l 1,9,-1
 595 3 l 1,10,-1
 453 3 l 1,0,-1
EndSplineSet
EndChar

StartChar: w
Encoding: 119 119 89
Width: 1050
GlyphClass: 2
Flags: W
LayerCount: 2
Fore
SplineSet
343 -3 m 1,0,-1
 109 893 l 1,1,-1
 242 893 l 1,2,-1
 364 376 l 1,3,-1
 410 183 l 1,4,5
 413 198 413 198 450 369 c 2,6,-1
 571 893 l 1,7,-1
 705 893 l 1,8,-1
 820 374 l 1,9,-1
 858 202 l 1,10,-1
 903 375 l 1,11,-1
 1034 893 l 1,12,-1
 1160 893 l 1,13,-1
 921 -3 l 1,14,-1
 786 -3 l 1,15,-1
 664 534 l 1,16,-1
 634 687 l 1,17,-1
 478 -3 l 1,18,-1
 343 -3 l 1,0,-1
EndSplineSet
EndChar

StartChar: x
Encoding: 120 120 90
Width: 1050
GlyphClass: 2
Flags: W
LayerCount: 2
Fore
SplineSet
118 5 m 1,0,-1
 445 471 l 1,1,-1
 142 901 l 1,2,-1
 333 901 l 1,3,-1
 470 691 l 2,4,5
 509 631 509 631 532 591 c 1,6,7
 570 646 570 646 602 690 c 2,8,-1
 753 901 l 1,9,-1
 934 901 l 1,10,-1
 623 479 l 1,11,-1
 957 5 l 1,12,-1
 771 5 l 1,13,-1
 586 283 l 1,14,-1
 538 358 l 1,15,-1
 302 5 l 1,16,-1
 118 5 l 1,0,-1
EndSplineSet
EndChar

StartChar: y
Encoding: 121 121 91
Width: 1050
GlyphClass: 2
Flags: W
LayerCount: 2
Fore
SplineSet
205 -355 m 1,0,-1
 188 -211 l 1,1,2
 238 -225 238 -225 275 -225 c 0,3,4
 326 -225 326 -225 356.5 -208 c 128,-1,5
 387 -191 387 -191 406 -161 c 0,6,7
 421 -138 421 -138 453 -47 c 0,8,9
 457 -35 457 -35 466 -10 c 1,10,-1
 125 888 l 1,11,-1
 289 888 l 1,12,-1
 476 369 l 2,13,14
 513 270 513 270 541 161 c 1,15,16
 567 266 567 266 604 365 c 2,17,-1
 796 888 l 1,18,-1
 947 888 l 1,19,-1
 607 -24 l 2,20,21
 552 -172 552 -172 521 -228 c 0,22,23
 480 -303 480 -303 428 -337.5 c 128,-1,24
 376 -372 376 -372 303 -372 c 0,25,26
 260 -372 260 -372 205 -355 c 1,0,-1
EndSplineSet
EndChar

StartChar: z
Encoding: 122 122 92
Width: 1050
GlyphClass: 2
Flags: W
LayerCount: 2
Fore
SplineSet
116 3 m 1,0,-1
 116 125 l 1,1,-1
 687 781 l 1,2,3
 590 776 590 776 516 776 c 2,4,-1
 150 776 l 1,5,-1
 150 899 l 1,6,-1
 883 899 l 1,7,-1
 883 799 l 1,8,-1
 398 229 l 1,9,-1
 303 125 l 1,10,11
 406 133 406 133 495 133 c 2,12,-1
 910 133 l 1,13,-1
 910 3 l 1,14,-1
 116 3 l 1,0,-1
EndSplineSet
EndChar

StartChar: braceleft
Encoding: 123 123 93
Width: 1050
GlyphClass: 2
Flags: W
LayerCount: 2
Fore
SplineSet
81 623 m 1,0,1
 146 625 146 625 187 658.5 c 128,-1,2
 228 692 228 692 241.5 750.5 c 128,-1,3
 255 809 255 809 256 950 c 128,-1,4
 257 1091 257 1091 261 1135 c 0,5,6
 269 1207 269 1207 289.5 1250 c 128,-1,7
 310 1293 310 1293 340.5 1318.5 c 128,-1,8
 371 1344 371 1344 419 1358 c 0,9,10
 451 1366 451 1366 522 1366 c 2,11,-1
 570 1366 l 1,12,-1
 570 1234 l 1,13,-1
 544 1234 l 2,14,15
 456 1234 456 1234 427 1202 c 128,-1,16
 398 1170 398 1170 398 1060 c 0,17,18
 398 838 398 838 389 781 c 0,19,20
 374 690 374 690 337.5 641.5 c 128,-1,21
 301 593 301 593 221 554 c 1,22,23
 315 516 315 516 356.5 436 c 128,-1,24
 398 356 398 356 398 174 c 0,25,26
 398 9 398 9 402 -22 c 0,27,28
 408 -79 408 -79 435.5 -102 c 128,-1,29
 463 -125 463 -125 544 -125 c 2,30,-1
 570 -125 l 1,31,-1
 570 -257 l 1,32,-1
 522 -257 l 2,33,34
 440 -257 440 -257 403 -244 c 0,35,36
 348 -225 348 -225 313 -181.5 c 128,-1,37
 278 -138 278 -138 267.5 -71 c 128,-1,38
 257 -4 257 -4 256 148 c 128,-1,39
 255 300 255 300 241.5 358 c 128,-1,40
 228 416 228 416 187 450 c 128,-1,41
 146 484 146 484 81 486 c 1,42,-1
 81 623 l 1,0,1
EndSplineSet
EndChar

StartChar: bar
Encoding: 124 124 94
Width: 1050
GlyphClass: 2
Flags: W
LayerCount: 2
Fore
SplineSet
246 -202 m 1,0,-1
 246 1421 l 1,1,-1
 378 1421 l 1,2,-1
 378 -202 l 1,3,-1
 246 -202 l 1,0,-1
EndSplineSet
EndChar

StartChar: glyph96
Encoding: 125 125 95
Width: 1050
GlyphClass: 2
Flags: W
LayerCount: 2
Fore
SplineSet
582 545 m 1,0,-1
 582 408 l 1,1,2
 518 406 518 406 477 372 c 128,-1,3
 436 338 436 338 422 280.5 c 128,-1,4
 408 223 408 223 407.5 82 c 128,-1,5
 407 -59 407 -59 403 -104 c 0,6,7
 396 -177 396 -177 375.5 -219 c 128,-1,8
 355 -261 355 -261 324 -286.5 c 128,-1,9
 293 -312 293 -312 246 -326 c 0,10,11
 214 -335 214 -335 141 -335 c 2,12,-1
 93 -335 l 1,13,-1
 93 -204 l 1,14,-1
 120 -204 l 2,15,16
 207 -204 207 -204 236 -172 c 128,-1,17
 265 -140 265 -140 265 -29 c 0,18,19
 265 182 265 182 273 239 c 0,20,21
 287 333 287 333 327 389 c 128,-1,22
 367 445 367 445 442 476 c 1,23,24
 344 522 344 522 304.5 599 c 128,-1,25
 265 676 265 676 265 858 c 0,26,27
 265 1021 265 1021 261 1053 c 0,28,29
 255 1111 255 1111 227.5 1133.5 c 128,-1,30
 200 1156 200 1156 120 1156 c 2,31,-1
 93 1156 l 1,32,-1
 93 1288 l 1,33,-1
 141 1288 l 2,34,35
 224 1288 224 1288 261 1275 c 0,36,37
 315 1256 315 1256 351 1212.5 c 128,-1,38
 387 1169 387 1169 397 1101.5 c 128,-1,39
 407 1034 407 1034 407.5 882.5 c 128,-1,40
 408 731 408 731 422 672.5 c 128,-1,41
 436 614 436 614 477 580.5 c 128,-1,42
 518 547 518 547 582 545 c 1,0,-1
EndSplineSet
EndChar

StartChar: asciitilde
Encoding: 126 126 96
Width: 1050
GlyphClass: 2
Flags: W
LayerCount: 2
Fore
SplineSet
110 561 m 1,0,-1
 110 733 l 1,1,2
 200 835 200 835 344 835 c 0,3,4
 396 835 396 835 451.5 820 c 128,-1,5
 507 805 507 805 609 762 c 0,6,7
 668 737 668 737 697.5 729.5 c 128,-1,8
 727 722 727 722 756 722 c 0,9,10
 812 722 812 722 870 754.5 c 128,-1,11
 928 787 928 787 974 837 c 1,12,-1
 974 658 l 1,13,14
 920 608 920 608 864.5 585 c 128,-1,15
 809 562 809 562 740 562 c 0,16,17
 689 562 689 562 643.5 574 c 128,-1,18
 598 586 598 586 497.5 631 c 128,-1,19
 397 676 397 676 330 676 c 0,20,21
 276 676 276 676 228 652 c 128,-1,22
 180 628 180 628 110 561 c 1,0,-1
EndSplineSet
EndChar

StartChar: uni0964
Encoding: 2404 2404 97
Width: 1050
GlyphClass: 2
Flags: W
LayerCount: 2
Fore
SplineSet
0 1010 m 1,0,-1
 200 1010 l 1,1,-1
 200 80 l 1,2,-1
 0 80 l 1,3,-1
 0 1010 l 1,0,-1
EndSplineSet
EndChar

StartChar: uni0965
Encoding: 2405 2405 98
Width: 1050
GlyphClass: 2
Flags: W
LayerCount: 2
Fore
SplineSet
450 990 m 1,0,-1
 650 990 l 1,1,-1
 650 60 l 1,2,-1
 450 60 l 1,3,-1
 450 990 l 1,0,-1
0 1010 m 1,4,-1
 200 1010 l 1,5,-1
 200 80 l 1,6,-1
 0 80 l 1,7,-1
 0 1010 l 1,4,-1
EndSplineSet
EndChar

StartChar: exclamdown
Encoding: 161 161 99
AltUni2: 000981.ffffffff.0
Width: 1050
GlyphClass: 2
Flags: W
LayerCount: 2
Fore
SplineSet
-581 1271 m 1024,0,-1
-127 1678 m 1,1,-1
 -198 1610 l 1,2,-1
 -268 1678 l 1,3,-1
 -198 1747 l 1,4,-1
 -127 1678 l 1,1,-1
100 1712 m 1,5,6
 100 1570 100 1570 18 1481 c 0,7,8
 -68 1388 -68 1388 -212 1388 c 256,9,10
 -356 1388 -356 1388 -443 1481 c 0,11,12
 -525 1570 -525 1570 -525 1712 c 1,13,-1
 -423 1712 l 1,14,15
 -423 1611 -423 1611 -369 1549 c 0,16,17
 -313 1484 -313 1484 -213 1484 c 0,18,19
 -112 1484 -112 1484 -57 1549 c 0,20,21
 -2 1611 -2 1611 -2 1712 c 1,22,-1
 100 1712 l 1,5,6
-30 1310 m 1,23,-1
 16 1140 l 1,24,-1
 1001 1160 l 1,25,-1
 991 1310 l 1,26,-1
 -30 1310 l 1,23,-1
EndSplineSet
EndChar

StartChar: cent
Encoding: 162 162 100
AltUni2: 000982.ffffffff.0
Width: 1050
GlyphClass: 2
Flags: W
LayerCount: 2
Fore
SplineSet
769 1047 m 1,0,-1
 565 815 l 1,1,-1
 363 1047 l 1,2,-1
 565 1280 l 1,3,-1
 769 1047 l 1,0,-1
199 510 m 1,4,-1
 357 624 l 1,5,-1
 784 76 l 1,6,-1
 621 -52 l 1,7,-1
 199 510 l 1,4,-1
EndSplineSet
EndChar

StartChar: sterling
Encoding: 163 163 101
AltUni2: 000983.ffffffff.0
Width: 1050
GlyphClass: 2
Flags: W
LayerCount: 2
Fore
SplineSet
653 1092 m 1,0,-1
 427 835 l 1,1,-1
 203 1092 l 1,2,-1
 427 1350 l 1,3,-1
 653 1092 l 1,0,-1
681 387 m 1,4,-1
 440 110 l 1,5,-1
 202 387 l 1,6,-1
 440 660 l 1,7,-1
 681 387 l 1,4,-1
EndSplineSet
EndChar

StartChar: bna
Encoding: 164 164 102
AltUni2: 000985.ffffffff.0
Width: 1050
GlyphClass: 2
Flags: W
LayerCount: 2
Fore
SplineSet
247 783 m 1,0,-1
 188 851 l 1,1,2
 240 980 240 980 315 1059 c 1,3,-1
 433 1069 l 1,4,5
 535 891 535 891 585 703 c 1,6,7
 585 426 585 426 556 322 c 128,-1,8
 527 218 527 218 480 159 c 128,-1,9
 433 100 433 100 399.5 65.5 c 128,-1,10
 366 31 366 31 241.5 69.5 c 128,-1,11
 117 108 117 108 16 681 c 1,12,-1
 82 858 l 1,13,14
 166 297 166 297 253 257.5 c 128,-1,15
 340 218 340 218 397.5 278 c 128,-1,16
 455 338 455 338 467 486 c 1,17,18
 488 535 488 535 463 733 c 1,19,20
 421 822 421 822 387 871 c 1,21,22
 328 891 328 891 256 802 c 1,23,-1
 247 783 l 1,0,-1
1045 1108 m 1,24,-1
 796 1108 l 1,25,-1
 796 0 l 1,26,-1
 704 0 l 1,27,-1
 704 191 l 1,28,-1
 542 279 l 1,29,-1
 589 444 l 1,30,-1
 704 353 l 1,31,-1
 704 1108 l 1,32,-1
 4 1108 l 1,33,-1
 9 1265 l 1,34,-1
 1045 1265 l 1,35,-1
 1045 1108 l 1,24,-1
EndSplineSet
EndChar

StartChar: bnaa
Encoding: 165 165 103
AltUni2: 000986.ffffffff.0
Width: 1050
GlyphClass: 2
Flags: W
LayerCount: 2
Fore
SplineSet
247 783 m 1,0,-1
 188 851 l 1,1,2
 240 980 240 980 315 1059 c 1,3,-1
 433 1069 l 1,4,5
 535 891 535 891 585 703 c 1,6,7
 585 426 585 426 556 322 c 128,-1,8
 527 218 527 218 480 159 c 128,-1,9
 433 100 433 100 399.5 65.5 c 128,-1,10
 366 31 366 31 241.5 69.5 c 128,-1,11
 117 108 117 108 16 681 c 1,12,-1
 82 858 l 1,13,14
 166 297 166 297 253 257.5 c 128,-1,15
 340 218 340 218 397.5 278 c 128,-1,16
 455 338 455 338 467 486 c 1,17,18
 488 535 488 535 463 733 c 1,19,20
 421 822 421 822 387 871 c 1,21,22
 328 891 328 891 256 802 c 1,23,-1
 247 783 l 1,0,-1
1045 1108 m 1,24,-1
 796 1108 l 1,25,-1
 796 0 l 1,26,-1
 704 0 l 1,27,-1
 704 191 l 1,28,-1
 542 279 l 1,29,-1
 589 444 l 1,30,-1
 704 353 l 1,31,-1
 704 1108 l 1,32,-1
 4 1108 l 1,33,-1
 9 1265 l 1,34,-1
 1045 1265 l 1,35,-1
 1045 1108 l 1,24,-1
1052 1106 m 1,36,-1
 1052 -10 l 1,37,-1
 939 -10 l 1,38,-1
 939 1106 l 1,39,-1
 1052 1106 l 1,36,-1
EndSplineSet
EndChar

StartChar: bni
Encoding: 166 166 104
AltUni2: 000987.ffffffff.0
Width: 1050
GlyphClass: 2
Flags: W
LayerCount: 2
Fore
SplineSet
-30 1310 m 1,0,-1
 16 1140 l 1,1,-1
 1001 1160 l 1,2,-1
 991 1310 l 1,3,-1
 -30 1310 l 1,0,-1
511 1300 m 1,4,5
 627 1430 627 1430 555.5 1500 c 128,-1,6
 484 1570 484 1570 355.5 1625 c 128,-1,7
 227 1680 227 1680 71 1750 c 1,8,-1
 174 1850 l 1,9,10
 368 1780 368 1780 484.5 1720 c 128,-1,11
 601 1660 601 1660 691.5 1580 c 128,-1,12
 782 1500 782 1500 756 1430 c 128,-1,13
 730 1360 730 1360 653 1300 c 1,14,-1
 511 1300 l 1,4,5
286 806 m 1,15,16
 348 868 348 868 490.5 903 c 128,-1,17
 633 938 633 938 720 871 c 128,-1,18
 807 804 807 804 792.5 727.5 c 128,-1,19
 778 651 778 651 660 650 c 128,-1,20
 542 649 542 649 91 509 c 1,21,-1
 129 164 l 1,22,-1
 922 -40 l 1,23,-1
 1020 122 l 1,24,-1
 277 376 l 1,25,-1
 292 407 l 1,26,-1
 478 412 l 2,27,28
 664 417 664 417 799.5 493.5 c 128,-1,29
 935 570 935 570 971 636 c 128,-1,30
 1007 702 1007 702 999.5 768.5 c 128,-1,31
 992 835 992 835 942.5 916.5 c 128,-1,32
 893 998 893 998 807 1054 c 128,-1,33
 721 1110 721 1110 528 1120 c 128,-1,34
 335 1130 335 1130 34 937 c 1,35,-1
 286 806 l 1,15,16
EndSplineSet
EndChar

StartChar: bnii
Encoding: 167 167 105
AltUni2: 000988.ffffffff.0
Width: 1050
GlyphClass: 2
Flags: W
LayerCount: 2
Fore
SplineSet
56 1050 m 1,0,-1
 118 930 l 1,1,2
 195 930 195 930 306 930 c 1,3,4
 382 890 382 890 424 860 c 128,-1,5
 466 830 466 830 473 620 c 1,6,7
 501 470 501 470 250 450 c 1,8,-1
 327 260 l 1,9,10
 535 330 535 330 626 490 c 1,11,12
 675 400 675 400 688.5 320 c 128,-1,13
 702 240 702 240 764.5 175 c 128,-1,14
 827 110 827 110 1008 -10 c 1,15,-1
 1043 140 l 1,16,17
 918 250 918 250 862.5 300 c 128,-1,18
 807 350 807 350 803.5 435 c 128,-1,19
 800 520 800 520 817 625 c 128,-1,20
 834 730 834 730 886.5 820 c 128,-1,21
 939 910 939 910 1050 990 c 1,22,-1
 946 1150 l 1,23,24
 793 1010 793 1010 754.5 945 c 128,-1,25
 716 880 716 880 681.5 790 c 128,-1,26
 647 700 647 700 633 670 c 1,27,-1
 605 700 l 1,28,29
 633 810 633 810 601.5 910 c 128,-1,30
 570 1010 570 1010 514.5 1050 c 128,-1,31
 459 1090 459 1090 396.5 1120 c 128,-1,32
 334 1150 334 1150 247 1135 c 128,-1,33
 160 1120 160 1120 56 1050 c 1,0,-1
0 1300 m 1,34,-1
 0 1150 l 1,35,-1
 1001 1150 l 1,36,-1
 992 1300 l 1,37,-1
 0 1300 l 1,34,-1
520 1310 m 1,38,39
 608 1440 608 1440 554 1510 c 128,-1,40
 500 1580 500 1580 402.5 1635 c 128,-1,41
 305 1690 305 1690 188 1760 c 1,42,-1
 266 1860 l 1,43,44
 412 1790 412 1790 500 1730 c 128,-1,45
 588 1670 588 1670 656.5 1590 c 128,-1,46
 725 1510 725 1510 705.5 1440 c 128,-1,47
 686 1370 686 1370 627 1310 c 1,48,-1
 520 1310 l 1,38,39
EndSplineSet
EndChar

StartChar: bnu
Encoding: 168 168 106
AltUni2: 000989.ffffffff.0
Width: 1050
GlyphClass: 2
Flags: W
LayerCount: 2
Fore
SplineSet
438 1320 m 1,0,1
 523 1450 523 1450 471 1520 c 128,-1,2
 419 1590 419 1590 324 1645 c 128,-1,3
 229 1700 229 1700 115 1770 c 1,4,-1
 191 1870 l 1,5,6
 334 1800 334 1800 419 1740 c 128,-1,7
 504 1680 504 1680 570.5 1600 c 128,-1,8
 637 1520 637 1520 618.5 1450 c 128,-1,9
 600 1380 600 1380 543 1320 c 1,10,-1
 438 1320 l 1,0,1
407 1132 m 1,11,-1
 407 434 l 1,12,13
 674 610 674 610 782 530 c 128,-1,14
 890 450 890 450 828 303 c 128,-1,15
 766 156 766 156 637.5 151 c 128,-1,16
 509 146 509 146 98 383 c 1,17,-1
 6 288 l 1,18,19
 448 -37 448 -37 650 -33.5 c 128,-1,20
 852 -30 852 -30 957 121 c 128,-1,21
 1062 272 1062 272 1035.5 466 c 128,-1,22
 1009 660 1009 660 862.5 758 c 128,-1,23
 716 856 716 856 561 676 c 1,24,-1
 561 1151 l 1,25,-1
 417 1141 l 1,26,-1
 407 1132 l 1,11,-1
-7 1310 m 1,27,-1
 -7 1134 l 1,28,-1
 1034 1122 l 1,29,-1
 1035 1310 l 1,30,-1
 -7 1310 l 1,27,-1
EndSplineSet
EndChar

StartChar: bnuu
Encoding: 169 169 107
AltUni2: 00098a.ffffffff.0
Width: 1050
GlyphClass: 2
Flags: W
LayerCount: 2
Fore
SplineSet
438 1320 m 1,0,1
 523 1450 523 1450 471 1520 c 128,-1,2
 419 1590 419 1590 324 1645 c 128,-1,3
 229 1700 229 1700 115 1770 c 1,4,-1
 191 1870 l 1,5,6
 334 1800 334 1800 419 1740 c 128,-1,7
 504 1680 504 1680 570.5 1600 c 128,-1,8
 637 1520 637 1520 618.5 1450 c 128,-1,9
 600 1380 600 1380 543 1320 c 1,10,-1
 438 1320 l 1,0,1
407 1132 m 1,11,-1
 407 434 l 1,12,13
 674 610 674 610 782 530 c 128,-1,14
 890 450 890 450 828 303 c 128,-1,15
 766 156 766 156 637.5 151 c 128,-1,16
 509 146 509 146 98 383 c 1,17,-1
 6 288 l 1,18,19
 448 -37 448 -37 650 -33.5 c 128,-1,20
 852 -30 852 -30 957 121 c 128,-1,21
 1062 272 1062 272 1035.5 466 c 128,-1,22
 1009 660 1009 660 862.5 758 c 128,-1,23
 716 856 716 856 561 676 c 1,24,-1
 561 1151 l 1,25,-1
 417 1141 l 1,26,-1
 407 1132 l 1,11,-1
-7 1310 m 1,27,-1
 -7 1134 l 1,28,-1
 1034 1122 l 1,29,-1
 1035 1310 l 1,30,-1
 -7 1310 l 1,27,-1
357 70 m 1,31,-1
 6 90 l 1,32,-1
 6 -40 l 1,33,-1
 513 -30 l 1,34,-1
 357 70 l 1,31,-1
EndSplineSet
EndChar

StartChar: bnri
Encoding: 170 170 108
AltUni2: 00098b.ffffffff.0
Width: 1050
GlyphClass: 2
Flags: W
LayerCount: 2
Fore
SplineSet
1030 1150 m 1,0,-1
 920 1150 l 1,1,-1
 920 -10 l 1,2,-1
 812 -10 l 1,3,-1
 812 190 l 1,4,-1
 658 242 l 1,5,-1
 658 455 l 1,6,-1
 812 360 l 1,7,-1
 812 1150 l 1,8,-1
 735 1150 l 1,9,-1
 735 1310 l 1,10,-1
 1030 1315 l 1,11,-1
 1030 1150 l 1,0,-1
265 1177 m 1,12,-1
 277 1192 l 1,13,-1
 313 1081 l 1,14,15
 348 1003 348 1003 460 1145 c 1,16,-1
 458 1017 l 1,17,18
 415 939 415 939 373 917 c 0,19,20
 319 888 319 888 286 963 c 1,21,-1
 266 977 l 1,22,23
 208 899 208 899 152 877 c 0,24,25
 80 848 80 848 33 923 c 0,26,27
 -13 998 -13 998 -19.5 1110 c 128,-1,28
 -26 1222 -26 1222 8 1336 c 0,29,30
 19 1375 19 1375 32 1400 c 1,31,-1
 79 1322 l 1,32,33
 64 1302 64 1302 54 1266 c 0,34,35
 16 1133 16 1133 70 1041 c 0,36,37
 118 963 118 963 265 1177 c 1,12,-1
663 1100 m 1,38,-1
 663 -10 l 1,39,-1
 560 -20 l 1,40,-1
 78 485 l 1,41,-1
 66 595 l 1,42,-1
 541 1100 l 1,43,-1
 663 1100 l 1,38,-1
496 845 m 1,44,-1
 244 567 l 1,45,-1
 251 505 l 1,46,-1
 503 222 l 1,47,-1
 557 227 l 1,48,-1
 557 850 l 1,49,-1
 496 845 l 1,44,-1
EndSplineSet
EndChar

StartChar: bnli
Encoding: 2444 2444 109
Width: 1050
GlyphClass: 2
Flags: W
LayerCount: 2
Fore
SplineSet
410 1290 m 1,0,1
 900 970 900 970 1035 780 c 128,-1,2
 1170 590 1170 590 1095 425 c 128,-1,3
 1020 260 1020 260 795 160 c 128,-1,4
 570 60 570 60 560 80 c 1,5,-1
 480 180 l 1,6,7
 700 280 700 280 850 400 c 1,8,9
 660 600 660 600 515 600 c 128,-1,10
 370 600 370 600 210 430 c 1,11,-1
 100 490 l 1,12,13
 290 690 290 690 365 715 c 128,-1,14
 440 740 440 740 560 720 c 128,-1,15
 680 700 680 700 970 490 c 1,16,17
 780 860 780 860 685 940 c 128,-1,18
 590 1020 590 1020 340 1190 c 1,19,-1
 410 1290 l 1,0,1
EndSplineSet
EndChar

StartChar: bne
Encoding: 172 172 110
AltUni2: 00098f.ffffffff.0
Width: 1050
GlyphClass: 2
Flags: W
LayerCount: 2
Fore
SplineSet
424 1170 m 1,0,-1
 531 990 l 1,1,2
 658 1170 658 1170 752.5 1135 c 128,-1,3
 847 1100 847 1100 923 1030 c 1,4,-1
 931 190 l 1,5,6
 808 370 808 370 565 420 c 1,7,8
 228 160 228 160 218 190 c 1,9,-1
 40 390 l 1,10,-1
 40 220 l 1,11,-1
 172 60 l 1,12,13
 382 20 382 20 483.5 110 c 128,-1,14
 585 200 585 200 678.5 160 c 128,-1,15
 772 120 772 120 847 75 c 128,-1,16
 922 30 922 30 1081 60 c 1,17,-1
 1090 1110 l 1,18,19
 1024 1250 1024 1250 940 1290 c 128,-1,20
 856 1330 856 1330 715 1310 c 128,-1,21
 574 1290 574 1290 424 1170 c 1,0,-1
EndSplineSet
EndChar

StartChar: bnai
Encoding: 173 173 111
AltUni2: 000990.ffffffff.0
Width: 1050
GlyphClass: 2
Flags: W
LayerCount: 2
Fore
SplineSet
840 820 m 1,0,1
 910 870 910 870 941.5 925 c 128,-1,2
 973 980 973 980 982.5 1060 c 128,-1,3
 992 1140 992 1140 982.5 1210 c 128,-1,4
 973 1280 973 1280 947.5 1350 c 128,-1,5
 922 1420 922 1420 877.5 1480 c 128,-1,6
 833 1540 833 1540 757 1600 c 128,-1,7
 681 1660 681 1660 592 1720 c 1,8,-1
 662 1840 l 1,9,10
 764 1760 764 1760 827.5 1690 c 128,-1,11
 891 1620 891 1620 941.5 1550 c 128,-1,12
 992 1480 992 1480 1030 1385 c 128,-1,13
 1068 1290 1068 1290 1084 1245 c 128,-1,14
 1100 1200 1100 1200 1100 1150 c 128,-1,15
 1100 1100 1100 1100 1090.5 1050 c 128,-1,16
 1081 1000 1081 1000 1055.5 950 c 128,-1,17
 1030 900 1030 900 998.5 855 c 128,-1,18
 967 810 967 810 938.5 770 c 128,-1,19
 910 730 910 730 840 730 c 1,20,-1
 840 820 l 1,0,1
333 1170 m 1,21,-1
 376 1090 l 1,22,23
 511 1170 511 1170 582.5 1190 c 128,-1,24
 654 1210 654 1210 726 1030 c 1,25,-1
 719 190 l 1,26,27
 625 370 625 370 440 420 c 1,28,29
 183 160 183 160 176 190 c 1,30,-1
 40 390 l 1,31,-1
 40 220 l 1,32,-1
 140 60 l 1,33,34
 211 70 211 70 336 165 c 128,-1,35
 461 260 461 260 532.5 230 c 128,-1,36
 604 200 604 200 632.5 135 c 128,-1,37
 661 70 661 70 833 60 c 1,38,-1
 840 1110 l 1,39,40
 790 1250 790 1250 725.5 1290 c 128,-1,41
 661 1330 661 1330 554 1310 c 128,-1,42
 447 1290 447 1290 333 1170 c 1,21,-1
EndSplineSet
EndChar

StartChar: bno
Encoding: 176 176 112
AltUni2: 000993.ffffffff.0
Width: 1050
GlyphClass: 2
Flags: W
LayerCount: 2
Fore
SplineSet
72 1081 m 1,0,-1
 159 992 l 1,1,2
 298 1069 298 1069 400.5 1092 c 128,-1,3
 503 1115 503 1115 617.5 1069 c 128,-1,4
 732 1023 732 1023 776.5 973.5 c 128,-1,5
 821 924 821 924 816.5 862.5 c 128,-1,6
 812 801 812 801 781.5 772 c 128,-1,7
 751 743 751 743 696 711 c 128,-1,8
 641 679 641 679 571.5 670.5 c 128,-1,9
 502 662 502 662 433 653 c 1,10,-1
 435 522 l 1,11,12
 546 526 546 526 600 507.5 c 128,-1,13
 654 489 654 489 700 459.5 c 128,-1,14
 746 430 746 430 763 392 c 128,-1,15
 780 354 780 354 788.5 304.5 c 128,-1,16
 797 255 797 255 754.5 209.5 c 128,-1,17
 712 164 712 164 638 149.5 c 128,-1,18
 564 135 564 135 474 129 c 128,-1,19
 384 123 384 123 102 228 c 1,20,-1
 27 138 l 1,21,22
 194 49 194 49 270 23 c 128,-1,23
 346 -3 346 -3 450.5 -24 c 128,-1,24
 555 -45 555 -45 691.5 -13.5 c 128,-1,25
 828 18 828 18 885.5 95.5 c 128,-1,26
 943 173 943 173 965 221 c 128,-1,27
 987 269 987 269 986.5 299.5 c 128,-1,28
 986 330 986 330 956 386.5 c 128,-1,29
 926 443 926 443 885.5 473 c 128,-1,30
 845 503 845 503 729 579 c 1,31,32
 850 645 850 645 892.5 690.5 c 128,-1,33
 935 736 935 736 957 784 c 128,-1,34
 979 832 979 832 976.5 902.5 c 128,-1,35
 974 973 974 973 918.5 1031.5 c 128,-1,36
 863 1090 863 1090 800.5 1139.5 c 128,-1,37
 738 1189 738 1189 646.5 1206 c 128,-1,38
 555 1223 555 1223 450 1214.5 c 128,-1,39
 345 1206 345 1206 271 1192 c 128,-1,40
 197 1178 197 1178 72 1081 c 1,0,-1
EndSplineSet
EndChar

StartChar: bnau
Encoding: 177 177 113
AltUni2: 000994.ffffffff.0
Width: 1050
GlyphClass: 2
Flags: W
LayerCount: 2
Fore
SplineSet
737 650 m 1,0,1
 831 700 831 700 874.5 755 c 128,-1,2
 918 810 918 810 930.5 890 c 128,-1,3
 943 970 943 970 930.5 1040 c 128,-1,4
 918 1110 918 1110 883.5 1180 c 128,-1,5
 849 1250 849 1250 788.5 1310 c 128,-1,6
 728 1370 728 1370 624.5 1430 c 128,-1,7
 521 1490 521 1490 400 1550 c 1,8,-1
 495 1670 l 1,9,10
 633 1590 633 1590 719 1520 c 128,-1,11
 805 1450 805 1450 874 1380 c 128,-1,12
 943 1310 943 1310 995 1215 c 128,-1,13
 1047 1120 1047 1120 1068.5 1075 c 128,-1,14
 1090 1030 1090 1030 1090 980 c 128,-1,15
 1090 930 1090 930 1077 880 c 128,-1,16
 1064 830 1064 830 1029.5 780 c 128,-1,17
 995 730 995 730 952 685 c 128,-1,18
 909 640 909 640 870 600 c 128,-1,19
 831 560 831 560 737 560 c 1,20,-1
 737 650 l 1,0,1
66 1081 m 1,21,-1
 141 992 l 1,22,23
 261 1069 261 1069 349 1092 c 128,-1,24
 437 1115 437 1115 536 1069 c 128,-1,25
 635 1023 635 1023 673.5 973.5 c 128,-1,26
 712 924 712 924 708 862.5 c 128,-1,27
 704 801 704 801 677.5 772 c 128,-1,28
 651 743 651 743 603.5 711 c 128,-1,29
 556 679 556 679 496.5 670.5 c 128,-1,30
 437 662 437 662 377 653 c 1,31,-1
 379 522 l 1,32,33
 474 526 474 526 521 507.5 c 128,-1,34
 568 489 568 489 607.5 459.5 c 128,-1,35
 647 430 647 430 661.5 392 c 128,-1,36
 676 354 676 354 683.5 304.5 c 128,-1,37
 691 255 691 255 654.5 209.5 c 128,-1,38
 618 164 618 164 554 149.5 c 128,-1,39
 490 135 490 135 412.5 129 c 128,-1,40
 335 123 335 123 92 228 c 1,41,-1
 27 138 l 1,42,43
 171 49 171 49 236.5 23 c 128,-1,44
 302 -3 302 -3 396.5 6 c 128,-1,45
 491 15 491 15 604.5 46.5 c 128,-1,46
 718 78 718 78 767.5 125.5 c 128,-1,47
 817 173 817 173 836 221 c 128,-1,48
 855 269 855 269 854.5 299.5 c 128,-1,49
 854 330 854 330 828 386.5 c 128,-1,50
 802 443 802 443 767 473 c 128,-1,51
 732 503 732 503 632 579 c 1,52,53
 737 645 737 645 773.5 690.5 c 128,-1,54
 810 736 810 736 829 784 c 128,-1,55
 848 832 848 832 845.5 902.5 c 128,-1,56
 843 973 843 973 795.5 1031.5 c 128,-1,57
 748 1090 748 1090 672.5 1124.5 c 128,-1,58
 597 1159 597 1159 539.5 1191 c 128,-1,59
 482 1223 482 1223 391.5 1214.5 c 128,-1,60
 301 1206 301 1206 237.5 1192 c 128,-1,61
 174 1178 174 1178 66 1081 c 1,21,-1
EndSplineSet
EndChar

StartChar: bnka
Encoding: 179 179 114
AltUni2: 000995.ffffffff.0
Width: 1050
GlyphClass: 2
Flags: W
LayerCount: 2
Fore
SplineSet
20 1310 m 1,0,-1
 20 1160 l 1,1,-1
 1049 1150 l 1,2,-1
 1050 1310 l 1,3,-1
 20 1310 l 1,0,-1
644 649 m 1,4,-1
 647 810 l 1,5,6
 719 907 719 907 788 935 c 0,7,8
 876 971 876 971 932 877 c 256,9,10
 988 783 988 783 996.5 643 c 128,-1,11
 1005 503 1005 503 964 360 c 0,12,13
 950 311 950 311 935 280 c 1,14,-1
 877 378 l 1,15,16
 894 403 894 403 907 448 c 0,17,18
 954 615 954 615 887 729 c 0,19,20
 829 827 829 827 644 649 c 1,4,-1
633 1120 m 1,21,-1
 633 10 l 1,22,-1
 524 0 l 1,23,-1
 13 505 l 1,24,-1
 0 615 l 1,25,-1
 504 1120 l 1,26,-1
 633 1120 l 1,21,-1
449 865 m 1,27,-1
 183 587 l 1,28,-1
 190 525 l 1,29,-1
 457 242 l 1,30,-1
 514 247 l 1,31,-1
 514 870 l 1,32,-1
 449 865 l 1,27,-1
EndSplineSet
Substitution2: "Single Substitution lookup 9 subtable" glyph311
EndChar

StartChar: bnkha
Encoding: 180 180 115
AltUni2: 000996.ffffffff.0
Width: 1050
GlyphClass: 2
Flags: W
LayerCount: 2
Fore
SplineSet
535 1119 m 1,0,-1
 666 1028 l 1,1,-1
 310 646 l 1,2,-1
 323 570 l 1,3,-1
 829 222 l 1,4,-1
 881 228 l 1,5,-1
 881 1304 l 1,6,-1
 1060 1310 l 1,7,-1
 1060 30 l 1,8,-1
 884 20 l 1,9,-1
 151 525 l 1,10,-1
 132 635 l 1,11,-1
 450 943 l 1,12,13
 376 889 376 889 185 872 c 1,14,15
 68 934 68 934 33.5 1040 c 128,-1,16
 -1 1146 -1 1146 56 1264 c 0,17,18
 76 1304 76 1304 99 1330 c 1,19,-1
 220 1265 l 1,20,21
 192 1244 192 1244 174 1207 c 0,22,23
 108 1069 108 1069 247 994 c 1,24,25
 444 1009 444 1009 535 1119 c 1,0,-1
EndSplineSet
EndChar

StartChar: bnga
Encoding: 181 181 116
AltUni2: 000997.ffffffff.0
Width: 1050
GlyphClass: 2
Flags: W
LayerCount: 2
Fore
SplineSet
638 1312 m 1,0,1
 501 1304 501 1304 363 1320 c 128,-1,2
 225 1336 225 1336 130.5 1245 c 128,-1,3
 36 1154 36 1154 27.5 1103 c 128,-1,4
 19 1052 19 1052 44.5 1007 c 128,-1,5
 70 962 70 962 121.5 906.5 c 128,-1,6
 173 851 173 851 280.5 756 c 128,-1,7
 388 661 388 661 341 585 c 128,-1,8
 294 509 294 509 10 556 c 1,9,-1
 27 380 l 1,10,11
 388 314 388 314 478.5 459.5 c 128,-1,12
 569 605 569 605 547.5 653.5 c 128,-1,13
 526 702 526 702 491.5 746 c 128,-1,14
 457 790 457 790 397 856 c 128,-1,15
 337 922 337 922 268 975.5 c 128,-1,16
 199 1029 199 1029 199 1077.5 c 128,-1,17
 199 1126 199 1126 250.5 1154 c 128,-1,18
 302 1182 302 1182 397 1168 c 128,-1,19
 492 1154 492 1154 638 1143 c 1,20,-1
 638 1312 l 1,0,1
1060 1150 m 1,21,-1
 906 1150 l 1,22,-1
 906 -10 l 1,23,-1
 754 -10 l 1,24,-1
 754 1150 l 1,25,-1
 646 1150 l 1,26,-1
 646 1310 l 1,27,-1
 1060 1315 l 1,28,-1
 1060 1150 l 1,21,-1
EndSplineSet
EndChar

StartChar: bngha
Encoding: 182 182 117
AltUni2: 000998.ffffffff.0
Width: 1050
GlyphClass: 2
Flags: W
LayerCount: 2
Fore
SplineSet
675 135 m 1,0,1
 471 145 471 145 394.5 191 c 128,-1,2
 318 237 318 237 299 309.5 c 128,-1,3
 280 382 280 382 368 453 c 0,4,5
 412 488 412 488 466.5 497.5 c 128,-1,6
 521 507 521 507 506 507 c 1,7,-1
 519 648 l 1,8,-1
 430 656 l 1,9,10
 362 658 362 658 336 711.5 c 128,-1,11
 310 765 310 765 310 808 c 0,12,13
 310 884 310 884 371.5 943.5 c 128,-1,14
 433 1003 433 1003 533 1003 c 1,15,-1
 673 994 l 1,16,-1
 675 135 l 1,0,1
848 1135 m 1,17,-1
 1078 1150 l 1,18,-1
 1079 1230 l 1,19,-1
 1080 1310 l 1,20,-1
 20 1310 l 1,21,-1
 20 1140 l 1,22,-1
 330 1136 l 1,23,24
 81 965 81 965 81 806 c 0,25,26
 81 708 81 708 206 637 c 0,27,28
 250 611 250 611 284.5 588.5 c 128,-1,29
 319 566 319 566 381 558 c 1,30,31
 305 533 305 533 261.5 503.5 c 128,-1,32
 218 474 218 474 172 433 c 0,33,34
 81 352 81 352 81 261 c 0,35,36
 81 135 81 135 245.5 65 c 128,-1,37
 410 -5 410 -5 853 -5 c 1,38,-1
 848 1135 l 1,17,-1
EndSplineSet
EndChar

StartChar: bnnga
Encoding: 183 183 118
AltUni2: 000999.ffffffff.0
Width: 1050
GlyphClass: 2
Flags: W
LayerCount: 2
Fore
SplineSet
844 1160 m 1,0,1
 924 1150 924 1150 934 1060 c 1,2,3
 934 980 934 980 874 950 c 1,4,5
 824 970 824 970 804 1040 c 1,6,7
 814 1100 814 1100 844 1160 c 1,0,1
708 870 m 1,8,9
 995 735 995 735 1040 850 c 128,-1,10
 1085 965 1085 965 1080 1052.5 c 128,-1,11
 1075 1140 1075 1140 1060 1185 c 128,-1,12
 1045 1230 1045 1230 949.5 1270 c 128,-1,13
 854 1310 854 1310 788.5 1280 c 128,-1,14
 723 1250 723 1250 673 1192.5 c 128,-1,15
 623 1135 623 1135 602 1045 c 1,16,-1
 201 1230 l 1,17,-1
 201 1070 l 1,18,-1
 583 940 l 1,19,-1
 362 511 l 1,20,21
 734 536 734 536 829 432 c 128,-1,22
 924 328 924 328 864 202.5 c 128,-1,23
 804 77 804 77 678.5 73 c 128,-1,24
 553 69 553 69 45 466 c 1,25,-1
 30 315 l 1,26,27
 492 -45 492 -45 663 -20.5 c 128,-1,28
 834 4 834 4 959.5 150 c 128,-1,29
 1085 296 1085 296 1025 381 c 128,-1,30
 965 466 965 466 854 557 c 128,-1,31
 743 648 743 648 583 613 c 1,32,-1
 708 870 l 1,8,9
EndSplineSet
EndChar

StartChar: bnca
Encoding: 184 184 119
AltUni2: 00099a.ffffffff.0
Width: 1050
GlyphClass: 2
Flags: W
LayerCount: 2
Fore
SplineSet
349 1142 m 1,0,-1
 351 506 l 1,1,2
 380 522 380 522 470 544 c 0,3,4
 564 568 564 568 665 568 c 0,5,6
 801 568 801 568 901 511 c 0,7,8
 981 463 981 463 1019 381 c 0,9,10
 1048 324 1048 324 1050 278 c 0,11,12
 1054 149 1054 149 926 58 c 0,13,14
 801 -30 801 -30 648 -30 c 0,15,16
 453 -30 453 -30 356 45 c 0,17,18
 231 143 231 143 229 383 c 2,19,-1
 225 1157 l 1,20,-1
 349 1142 l 1,0,-1
446 374 m 1,21,-1
 443 360 l 1,22,-1
 440 340 l 2,23,24
 431 288 431 288 449.5 246 c 128,-1,25
 468 204 468 204 492 177 c 0,26,27
 536 130 536 130 621 130 c 0,28,29
 712 130 712 130 768 180 c 0,30,31
 825 231 825 231 825 296 c 0,32,33
 825 320 825 320 812 348 c 0,34,35
 790 400 790 400 760 422 c 0,36,37
 718 450 718 450 644 450 c 2,38,-1
 593 450 l 2,39,40
 586 450 586 450 544 438 c 0,41,42
 524 433 524 433 510 429 c 128,-1,43
 496 425 496 425 488 422 c 0,44,45
 479 420 479 420 470.5 401 c 128,-1,46
 462 382 462 382 446 374 c 1,21,-1
20 1300 m 1,47,-1
 20 1157 l 1,48,-1
 1058 1148 l 1,49,-1
 1060 1300 l 1,50,-1
 20 1300 l 1,47,-1
EndSplineSet
EndChar

StartChar: bncha
Encoding: 185 185 120
AltUni2: 00099b.ffffffff.0
Width: 1050
GlyphClass: 2
Flags: W
LayerCount: 2
Fore
SplineSet
20 1292 m 1,0,-1
 20 1149 l 1,1,-1
 1078 1140 l 1,2,-1
 1080 1292 l 1,3,-1
 20 1292 l 1,0,-1
709 818 m 1,4,5
 739 930 739 930 814.5 934.5 c 128,-1,6
 890 939 890 939 917 841 c 128,-1,7
 944 743 944 743 938.5 673 c 128,-1,8
 933 603 933 603 896.5 547 c 128,-1,9
 860 491 860 491 371 392 c 1,10,-1
 383 167 l 1,11,-1
 994 14 l 1,12,-1
 1034 117 l 1,13,-1
 450 270 l 1,14,-1
 456 299 l 1,15,-1
 806 383 l 1,16,17
 884 388 884 388 941.5 458 c 128,-1,18
 999 528 999 528 1014 588.5 c 128,-1,19
 1029 649 1029 649 1025.5 710 c 128,-1,20
 1022 771 1022 771 1001.5 846 c 128,-1,21
 981 921 981 921 944.5 972.5 c 128,-1,22
 908 1024 908 1024 827 1033 c 128,-1,23
 746 1042 746 1042 619 865 c 1,24,-1
 709 818 l 1,4,5
254 1137 m 1,25,-1
 263 773 l 1,26,-1
 328 702 l 1,27,28
 316 666 316 666 341.5 637 c 128,-1,29
 367 608 367 608 403 589 c 1,30,31
 535 556 535 556 614 591 c 0,32,33
 694 626 694 626 694 671 c 0,34,35
 694 688 694 688 677 707 c 0,36,37
 645 744 645 744 602 758 c 1,38,39
 408 761 408 761 398 759 c 0,40,41
 384 758 384 758 371.5 744.5 c 128,-1,42
 359 731 359 731 337 725 c 1,43,-1
 332 716 l 1,44,-1
 278 780 l 1,45,46
 401 861 401 861 658 842 c 1,47,48
 751 761 751 761 790 716 c 0,49,50
 819 684 819 684 796 659 c 1,51,52
 826 587 826 587 694 537 c 1,53,54
 524 398 524 398 291 530 c 1,55,56
 163 584 163 584 159 717 c 2,57,-1
 156 1145 l 1,58,-1
 254 1137 l 1,25,-1
EndSplineSet
EndChar

StartChar: bnja
Encoding: 186 186 121
AltUni2: 00099c.ffffffff.0
Width: 1050
GlyphClass: 2
Flags: W
LayerCount: 2
Fore
SplineSet
316 1151 m 1,0,-1
 316 553 l 1,1,2
 499 629 499 629 541 438.5 c 128,-1,3
 583 248 583 248 487 221 c 128,-1,4
 391 194 391 194 388.5 179 c 128,-1,5
 386 164 386 164 16 641 c 1,6,-1
 12 436 l 1,7,8
 345 31 345 31 488.5 34.5 c 128,-1,9
 632 38 632 38 653 124 c 128,-1,10
 674 210 674 210 644.5 409.5 c 128,-1,11
 615 609 615 609 550 652 c 128,-1,12
 485 695 485 695 401 695 c 1,13,-1
 401 1160 l 1,14,-1
 323 1160 l 1,15,-1
 316 1151 l 1,0,-1
-20 1320 m 1,16,-1
 -20 1170 l 1,17,-1
 1038 1160 l 1,18,-1
 1040 1320 l 1,19,-1
 -20 1320 l 1,16,-1
390 960 m 1,20,21
 671 901 671 901 887 990 c 1,22,23
 875 515 875 515 893 394 c 128,-1,24
 911 273 911 273 1030 157 c 1,25,-1
 982 60 l 1,26,27
 863 186 863 186 839 263 c 128,-1,28
 815 340 815 340 797 805 c 1,29,30
 654 795 654 795 396 793 c 1,31,-1
 390 960 l 1,20,21
EndSplineSet
EndChar

StartChar: bnjha
Encoding: 187 187 122
AltUni2: 00099d.ffffffff.0
Width: 1050
GlyphClass: 2
Flags: W
LayerCount: 2
Fore
SplineSet
20 1330 m 1,0,-1
 20 1180 l 1,1,-1
 766 1170 l 1,2,-1
 767 1330 l 1,3,-1
 20 1330 l 1,0,-1
1080 1170 m 1,4,-1
 968 1170 l 1,5,-1
 968 10 l 1,6,-1
 857 10 l 1,7,-1
 857 210 l 1,8,-1
 662 302 l 1,9,-1
 669 475 l 1,10,-1
 857 380 l 1,11,-1
 857 1170 l 1,12,-1
 779 1170 l 1,13,-1
 779 1330 l 1,14,-1
 1080 1335 l 1,15,-1
 1080 1170 l 1,4,-1
661 1140 m 1,16,-1
 661 30 l 1,17,-1
 556 20 l 1,18,-1
 64 525 l 1,19,-1
 51 635 l 1,20,-1
 537 1140 l 1,21,-1
 661 1140 l 1,16,-1
484 885 m 1,22,-1
 227 607 l 1,23,-1
 234 545 l 1,24,-1
 491 262 l 1,25,-1
 546 267 l 1,26,-1
 546 890 l 1,27,-1
 484 885 l 1,22,-1
EndSplineSet
EndChar

StartChar: bnnya
Encoding: 188 188 123
AltUni2: 00099e.ffffffff.0
Width: 1050
GlyphClass: 2
Flags: W
LayerCount: 2
Fore
SplineSet
213 1170 m 1,0,-1
 281 1010 l 1,1,2
 378 1130 378 1130 427 1140 c 128,-1,3
 476 1150 476 1150 540 1030 c 1,4,-1
 534 190 l 1,5,6
 457 370 457 370 303 420 c 1,7,8
 89 160 89 160 83 190 c 1,9,-1
 -30 390 l 1,10,-1
 -30 220 l 1,11,-1
 53 60 l 1,12,13
 113 70 113 70 217 165 c 128,-1,14
 321 260 321 260 380 230 c 128,-1,15
 439 200 439 200 463 135 c 128,-1,16
 487 70 487 70 629 60 c 1,17,-1
 635 1110 l 1,18,19
 593 1250 593 1250 540 1290 c 128,-1,20
 487 1330 487 1330 397.5 1310 c 128,-1,21
 308 1290 308 1290 213 1170 c 1,0,-1
790 1026.5 m 128,-1,23
 817 1052 817 1052 860 1008 c 128,-1,24
 903 964 903 964 891 918 c 128,-1,25
 879 872 879 872 759 836 c 1,26,-1
 768 637 l 1,27,28
 970 511 970 511 967 423 c 128,-1,29
 964 335 964 335 883 311.5 c 128,-1,30
 802 288 802 288 706.5 346.5 c 128,-1,31
 611 405 611 405 625 412 c 1,32,-1
 604 276 l 1,33,34
 790 126 790 126 883 167 c 128,-1,35
 976 208 976 208 1000 319 c 128,-1,36
 1024 430 1024 430 993 550 c 128,-1,37
 962 670 962 670 851 669 c 1,38,-1
 855 773 l 1,39,40
 984 804 984 804 995.5 886 c 128,-1,41
 1007 968 1007 968 966.5 1038.5 c 128,-1,42
 926 1109 926 1109 834.5 1128 c 128,-1,43
 743 1147 743 1147 607 1032 c 1,44,-1
 626 898 l 1,45,22
 763 1001 763 1001 790 1026.5 c 128,-1,23
EndSplineSet
EndChar

StartChar: bntta
Encoding: 189 189 124
AltUni2: 00099f.ffffffff.0
Width: 1050
GlyphClass: 2
Flags: W
LayerCount: 2
Fore
SplineSet
20 1340 m 1,0,-1
 20 1197 l 1,1,-1
 1078 1188 l 1,2,-1
 1080 1340 l 1,3,-1
 20 1340 l 1,0,-1
238 1193 m 1,4,-1
 239 384 l 1,5,6
 330 265 330 265 386 256 c 1,7,8
 440 216 440 216 544 216 c 1,9,10
 628 206 628 206 708 260 c 1,11,12
 782 350 782 350 765 424 c 1,13,14
 765 450 765 450 750 480 c 0,15,16
 723 536 723 536 685 559 c 2,17,-1
 634 590 l 1,18,-1
 689 713 l 1,19,-1
 782 659 l 2,20,21
 857 614 857 614 892 537 c 0,22,23
 919 483 919 483 920 440 c 0,24,25
 925 318 925 318 822 193 c 1,26,27
 684 66 684 66 511 90 c 1,28,29
 335 90 335 90 244 161 c 0,30,31
 128 253 128 253 125 479 c 2,32,-1
 122 1207 l 1,33,-1
 238 1193 l 1,4,-1
461 1340 m 1,34,35
 538 1470 538 1470 491 1540 c 128,-1,36
 444 1610 444 1610 359.5 1665 c 128,-1,37
 275 1720 275 1720 173 1790 c 1,38,-1
 241 1890 l 1,39,40
 368 1820 368 1820 444.5 1760 c 128,-1,41
 521 1700 521 1700 580.5 1620 c 128,-1,42
 640 1540 640 1540 623 1470 c 128,-1,43
 606 1400 606 1400 555 1340 c 1,44,-1
 461 1340 l 1,34,35
EndSplineSet
EndChar

StartChar: bnttha
Encoding: 190 190 125
AltUni2: 0009a0.ffffffff.0
Width: 1050
GlyphClass: 2
Flags: W
LayerCount: 2
Fore
SplineSet
608 1161 m 1,0,1
 735 993 735 993 798.5 876.5 c 128,-1,2
 862 760 862 760 917 643.5 c 128,-1,3
 972 527 972 527 963.5 429 c 128,-1,4
 955 331 955 331 912.5 205 c 128,-1,5
 870 79 870 79 785.5 42 c 128,-1,6
 701 5 701 5 595 0 c 128,-1,7
 489 -5 489 -5 429.5 9 c 128,-1,8
 370 23 370 23 289.5 51 c 128,-1,9
 209 79 209 79 209 154 c 128,-1,10
 209 229 209 229 260 303.5 c 128,-1,11
 311 378 311 378 328 471 c 128,-1,12
 345 564 345 564 353.5 676 c 128,-1,13
 362 788 362 788 349 904.5 c 128,-1,14
 336 1021 336 1021 218 1180 c 1,15,-1
 353 1180 l 1,16,17
 421 1068 421 1068 451 979.5 c 128,-1,18
 481 891 481 891 502 816.5 c 128,-1,19
 523 742 523 742 506 667 c 128,-1,20
 489 592 489 592 468 508 c 128,-1,21
 447 424 447 424 413 340.5 c 128,-1,22
 379 257 379 257 400 205.5 c 128,-1,23
 421 154 421 154 476.5 149.5 c 128,-1,24
 532 145 532 145 599.5 145 c 128,-1,25
 667 145 667 145 726 182 c 128,-1,26
 785 219 785 219 789.5 293.5 c 128,-1,27
 794 368 794 368 785.5 443 c 128,-1,28
 777 518 777 518 751.5 602 c 128,-1,29
 726 686 726 686 684 756 c 128,-1,30
 642 826 642 826 608 905 c 128,-1,31
 574 984 574 984 489 1171 c 1,32,-1
 608 1161 l 1,0,1
-20 1330 m 1,33,-1
 27 1160 l 1,34,-1
 1030 1180 l 1,35,-1
 1020 1330 l 1,36,-1
 -20 1330 l 1,33,-1
459 1347 m 1,37,38
 356 1406 356 1406 368.5 1475.5 c 128,-1,39
 381 1545 381 1545 428 1620.5 c 128,-1,40
 475 1696 475 1696 530 1789 c 1,41,-1
 444 1830 l 1,42,43
 369 1726 369 1726 330 1651 c 128,-1,44
 291 1576 291 1576 272.5 1494 c 128,-1,45
 254 1412 254 1412 290.5 1370 c 128,-1,46
 327 1328 327 1328 387 1307 c 1,47,-1
 459 1347 l 1,37,38
EndSplineSet
EndChar

StartChar: bndda
Encoding: 191 191 126
AltUni2: 0009a1.ffffffff.0
Width: 1050
GlyphClass: 2
Flags: W
LayerCount: 2
Fore
SplineSet
407 1122 m 1,0,-1
 407 424 l 1,1,2
 678 600 678 600 787.5 520 c 128,-1,3
 897 440 897 440 834 293 c 128,-1,4
 771 146 771 146 641 141 c 128,-1,5
 511 136 511 136 93 373 c 1,6,-1
 0 278 l 1,7,8
 449 -47 449 -47 654 -43.5 c 128,-1,9
 859 -40 859 -40 965.5 111 c 128,-1,10
 1072 262 1072 262 1045 456 c 128,-1,11
 1018 650 1018 650 869.5 748 c 128,-1,12
 721 846 721 846 563 666 c 1,13,-1
 563 1141 l 1,14,-1
 417 1131 l 1,15,-1
 407 1122 l 1,0,-1
18 1330 m 1,16,-1
 18 1154 l 1,17,-1
 1010 1142 l 1,18,-1
 1012 1330 l 1,19,-1
 18 1330 l 1,16,-1
EndSplineSet
EndChar

StartChar: bnddha
Encoding: 192 192 127
AltUni2: 0009a2.ffffffff.0
Width: 1050
GlyphClass: 2
Flags: W
LayerCount: 2
Fore
SplineSet
20 1340 m 1,0,-1
 20 1188 l 1,1,-1
 1078 1178 l 1,2,-1
 1080 1340 l 1,3,-1
 20 1340 l 1,0,-1
272 1184 m 1,4,-1
 274 323 l 1,5,6
 342 271 342 271 410 261 c 1,7,8
 477 219 477 219 603 219 c 1,9,10
 706 208 706 208 805 265 c 1,11,12
 861 350 861 350 848 355 c 1,13,14
 848 382 848 382 830 414 c 0,15,16
 797 474 797 474 752 498 c 1,17,-1
 689 510 l 1,18,-1
 746 673 l 1,19,-1
 861 615 l 2,20,21
 952 568 952 568 994 486 c 0,22,23
 1028 428 1028 428 1030 382 c 0,24,25
 1035 253 1035 253 909 120 c 1,26,27
 778 31 778 31 572 10 c 1,28,29
 357 10 357 10 246 86 c 0,30,31
 104 183 104 183 101 424 c 2,32,-1
 96 1198 l 1,33,-1
 272 1184 l 1,4,-1
EndSplineSet
EndChar

StartChar: bnnna
Encoding: 193 193 128
AltUni2: 0009a3.ffffffff.0
Width: 1050
GlyphClass: 2
Flags: W
LayerCount: 2
Fore
SplineSet
770 808 m 1,0,-1
 765 991 l 1,1,2
 614 1102 614 1102 469 1134 c 0,3,4
 284 1175 284 1175 167 1068 c 0,5,6
 49 961 49 961 31 801.5 c 128,-1,7
 13 642 13 642 100 479 c 0,8,9
 130 423 130 423 161 388 c 1,10,-1
 283 500 l 1,11,12
 246 528 246 528 220 579 c 0,13,14
 120 769 120 769 261 899 c 0,15,16
 383 1011 383 1011 770 808 c 1,0,-1
1118 1170 m 1,17,-1
 939 1170 l 1,18,-1
 939 10 l 1,19,-1
 763 10 l 1,20,-1
 763 1170 l 1,21,-1
 748 1330 l 1,22,-1
 1118 1335 l 1,23,-1
 1118 1170 l 1,17,-1
EndSplineSet
EndChar

StartChar: bnta
Encoding: 194 194 129
AltUni2: 0009a4.ffffffff.0
Width: 1050
GlyphClass: 2
Flags: W
LayerCount: 2
Fore
SplineSet
399 830 m 1,0,-1
 322 902 l 1,1,2
 389 1037 389 1037 489 1120 c 1,3,-1
 644 1130 l 1,4,5
 779 944 779 944 845 747 c 1,6,7
 845 457 845 457 806 348 c 128,-1,8
 767 239 767 239 705.5 177 c 128,-1,9
 644 115 644 115 599.5 79 c 128,-1,10
 555 43 555 43 391 83.5 c 128,-1,11
 227 124 227 124 94 724 c 1,12,-1
 182 909 l 1,13,14
 292 322 292 322 407 280.5 c 128,-1,15
 522 239 522 239 597 301.5 c 128,-1,16
 672 364 672 364 689 519 c 1,17,18
 717 571 717 571 683 778 c 1,19,20
 628 871 628 871 583 923 c 1,21,22
 505 944 505 944 411 850 c 1,23,-1
 399 830 l 1,0,-1
-20 1330 m 1,24,-1
 14 1160 l 1,25,-1
 1026 1170 l 1,26,-1
 1040 1320 l 1,27,-1
 -20 1330 l 1,24,-1
EndSplineSet
Substitution2: "Single Substitution lookup 9 subtable" glyph312
EndChar

StartChar: bntha
Encoding: 195 195 130
AltUni2: 0009a5.ffffffff.0
Width: 1050
GlyphClass: 2
Flags: W
LayerCount: 2
Fore
SplineSet
185 754 m 1,0,-1
 121 672 l 1,1,2
 52 769 52 769 24 897 c 1,3,-1
 56 1081 l 1,4,5
 206 1213 206 1213 346 1266 c 1,6,7
 529 1228 529 1228 588 1168 c 128,-1,8
 647 1108 647 1108 671 1028 c 128,-1,9
 695 948 695 948 707 891 c 128,-1,10
 719 834 719 834 653.5 646.5 c 128,-1,11
 588 459 588 459 393 427 c 1,12,-1
 885 286 l 1,13,-1
 883 1280 l 1,14,-1
 1069 1290 l 1,15,-1
 1059 20 l 1,16,-1
 171 245 l 1,17,-1
 82 509 l 1,18,19
 479 561 479 561 533 690.5 c 128,-1,20
 587 820 587 820 566 916.5 c 128,-1,21
 545 1013 545 1013 452 1053 c 1,22,23
 426 1093 426 1093 287 1081 c 1,24,25
 215 1027 215 1027 171 982 c 1,26,27
 139 893 139 893 175 770 c 1,28,-1
 185 754 l 1,0,-1
EndSplineSet
Substitution2: "Single Substitution lookup 9 subtable" glyph313
EndChar

StartChar: bnda
Encoding: 196 196 131
AltUni2: 0009a6.ffffffff.0
Width: 1050
GlyphClass: 2
Flags: W
LayerCount: 2
Fore
SplineSet
887 -2 m 1,0,-1
 887 749 l 1,1,-1
 657 750 l 1,2,-1
 293 589 l 1,3,-1
 295 1156 l 1,4,-1
 92 1170 l 1,5,-1
 89 425 l 1,6,-1
 292 412 l 1,7,-1
 661 537 l 1,8,-1
 665 7 l 1,9,-1
 887 -2 l 1,0,-1
-20 1330 m 1,10,-1
 14 1160 l 1,11,-1
 1006 1170 l 1,12,-1
 1020 1320 l 1,13,-1
 -20 1330 l 1,10,-1
EndSplineSet
EndChar

StartChar: bndha
Encoding: 197 197 132
AltUni2: 0009a7.ffffffff.0
Width: 1050
GlyphClass: 2
Flags: W
LayerCount: 2
Fore
SplineSet
895 1170 m 1,0,-1
 895 60 l 1,1,-1
 754 50 l 1,2,-1
 97 555 l 1,3,-1
 80 665 l 1,4,-1
 729 1170 l 1,5,-1
 895 1170 l 1,0,-1
650 915 m 1,6,-1
 307 637 l 1,7,-1
 316 575 l 1,8,-1
 659 292 l 1,9,-1
 733 297 l 1,10,-1
 733 920 l 1,11,-1
 650 915 l 1,6,-1
701 1330 m 1,12,-1
 701 1180 l 1,13,-1
 1129 1170 l 1,14,-1
 1130 1330 l 1,15,-1
 701 1330 l 1,12,-1
701 1325 m 1,16,-1
 697 1164 l 1,17,18
 586 1067 586 1067 479 1039 c 0,19,20
 343 1003 343 1003 256 1097 c 256,21,22
 169 1191 169 1191 156 1331 c 128,-1,23
 143 1471 143 1471 207 1614 c 0,24,25
 229 1663 229 1663 252 1694 c 1,26,-1
 342 1596 l 1,27,28
 314 1571 314 1571 296 1526 c 0,29,30
 222 1359 222 1359 326 1245 c 0,31,32
 416 1147 416 1147 701 1325 c 1,16,-1
EndSplineSet
Substitution2: "Single Substitution lookup 9 subtable" glyph314
EndChar

StartChar: bnna
Encoding: 198 198 133
AltUni2: 0009a8.ffffffff.0
Width: 1050
GlyphClass: 2
Flags: W
LayerCount: 2
Fore
SplineSet
690 409 m 1,0,-1
 685 570 l 1,1,2
 553 667 553 667 425 695 c 0,3,4
 263 731 263 731 160 637 c 0,5,6
 56 543 56 543 40.5 403 c 128,-1,7
 25 263 25 263 101 120 c 0,8,9
 127 71 127 71 155 40 c 1,10,-1
 262 138 l 1,11,12
 229 163 229 163 207 208 c 0,13,14
 119 375 119 375 243 489 c 0,15,16
 350 587 350 587 690 409 c 1,0,-1
1058 1170 m 1,17,-1
 879 1170 l 1,18,-1
 879 10 l 1,19,-1
 703 10 l 1,20,-1
 703 1170 l 1,21,-1
 688 1330 l 1,22,-1
 1058 1335 l 1,23,-1
 1058 1170 l 1,17,-1
-20 1330 m 1,24,-1
 3 1160 l 1,25,-1
 691 1170 l 1,26,-1
 700 1320 l 1,27,-1
 -20 1330 l 1,24,-1
EndSplineSet
Substitution2: "Single Substitution lookup 9 subtable" glyph315
EndChar

StartChar: bnpa
Encoding: 200 200 134
AltUni2: 0009aa.ffffffff.0
Width: 1050
GlyphClass: 2
Flags: W
LayerCount: 2
Fore
SplineSet
1080 1180 m 1,0,-1
 915 1180 l 1,1,-1
 915 20 l 1,2,-1
 752 20 l 1,3,-1
 752 1180 l 1,4,-1
 738 1340 l 1,5,-1
 1080 1345 l 1,6,-1
 1080 1180 l 1,0,-1
761 1017 m 1,7,-1
 322 360 l 1,8,-1
 187 381 l 1,9,-1
 25 1056 l 1,10,-1
 124 1221 l 1,11,-1
 736 1119 l 1,12,-1
 761 1017 l 1,7,-1
533 1012 m 1,13,-1
 239 1059 l 1,14,-1
 219 1017 l 1,15,-1
 292 638 l 1,16,-1
 333 595 l 1,17,-1
 580 964 l 1,18,-1
 533 1012 l 1,13,-1
EndSplineSet
EndChar

StartChar: bnpha
Encoding: 201 201 135
AltUni2: 0009ab.ffffffff.0
Width: 1050
GlyphClass: 2
Flags: W
LayerCount: 2
Fore
SplineSet
578 1303 m 1,0,-1
 869 1308 l 1,1,-1
 869 1143 l 1,2,-1
 -17 1148 l 1,3,-1
 -17 1298 l 1,4,-1
 578 1303 l 1,0,-1
741 896 m 1,5,-1
 740 -17 l 1,6,-1
 56 319 l 1,7,-1
 127 497 l 1,8,-1
 342 700 l 1,9,-1
 26 1143 l 1,10,-1
 196 1138 l 1,11,-1
 508 778 l 1,12,-1
 454 615 l 1,13,-1
 259 390 l 1,14,-1
 614 249 l 1,15,-1
 627 886 l 1,16,-1
 741 896 l 1,5,-1
629 649 m 1,17,-1
 632 810 l 1,18,19
 711 907 711 907 788 935 c 0,20,21
 885 971 885 971 947 877 c 256,22,23
 1009 783 1009 783 1018.5 643 c 128,-1,24
 1028 503 1028 503 982 360 c 0,25,26
 967 311 967 311 950 280 c 1,27,-1
 886 378 l 1,28,29
 905 403 905 403 919 448 c 0,30,31
 972 615 972 615 897 729 c 0,32,33
 833 827 833 827 629 649 c 1,17,-1
EndSplineSet
EndChar

StartChar: bnba
Encoding: 202 202 136
AltUni2: 0009ac.ffffffff.0
Width: 1050
GlyphClass: 2
Flags: W
LayerCount: 2
Fore
SplineSet
20 1330 m 1,0,-1
 20 1180 l 1,1,-1
 1078 1170 l 1,2,-1
 1080 1330 l 1,3,-1
 20 1330 l 1,0,-1
846 1170 m 1,4,-1
 846 20 l 1,5,-1
 710 10 l 1,6,-1
 77 533 l 1,7,-1
 60 647 l 1,8,-1
 685 1170 l 1,9,-1
 698 890 l 1,10,-1
 618 885 l 1,11,-1
 287 607 l 1,12,-1
 296 545 l 1,13,-1
 626 262 l 1,14,-1
 698 267 l 1,15,-1
 699 892 l 1,16,-1
 689 1164 l 1,17,-1
 846 1170 l 1,4,-1
EndSplineSet
EndChar

StartChar: bnbha
Encoding: 203 203 137
AltUni2: 0009ad.ffffffff.0
Width: 1050
GlyphClass: 2
Flags: W
LayerCount: 2
Fore
SplineSet
-20 1330 m 1,0,-1
 14 1160 l 1,1,-1
 1026 1170 l 1,2,-1
 1040 1320 l 1,3,-1
 -20 1330 l 1,0,-1
545 890 m 1,4,5
 456 619 456 619 533 591 c 1,6,7
 679 621 679 621 799 681 c 1,8,9
 949 731 949 731 907 358 c 1,10,11
 889 327 889 327 849 211 c 128,-1,12
 809 95 809 95 731 77.5 c 128,-1,13
 653 60 653 60 601 32 c 128,-1,14
 549 4 549 4 355.5 35.5 c 128,-1,15
 162 67 162 67 8 536 c 1,16,-1
 110 680 l 1,17,18
 239 222 239 222 374 189.5 c 128,-1,19
 509 157 509 157 597.5 206 c 128,-1,20
 686 255 686 255 724 298 c 0,21,22
 757 338 757 338 794 554 c 1,23,24
 612 337 612 337 370 471 c 1,25,26
 293 1309 293 1309 784 953 c 1,27,-1
 728 822 l 1,28,-1
 545 890 l 1,4,5
EndSplineSet
EndChar

StartChar: bnma
Encoding: 204 204 138
AltUni2: 0009ae.ffffffff.0
Width: 1050
GlyphClass: 2
Flags: W
LayerCount: 2
Fore
SplineSet
300 106 m 1024,0,-1
588 1217 m 1024,1,-1
910 1217 m 1024,2,-1
910 56 m 1024,3,-1
468 66 m 1024,4,-1
616 1217 m 1024,5,-1
967 1217 m 1024,6,-1
967 56 m 1024,7,-1
1070 1140 m 1,8,-1
 922 1140 l 1,9,-1
 922 -20 l 1,10,-1
 777 -20 l 1,11,-1
 777 180 l 1,12,-1
 464 402 l 1,13,-1
 464 585 l 1,14,-1
 777 350 l 1,15,-1
 777 1140 l 1,16,-1
 6 1160 l 1,17,-1
 -2 1300 l 1,18,-1
 1070 1305 l 1,19,-1
 1070 1140 l 1,8,-1
616 56 m 1024,20,-1
616 1217 m 1024,21,-1
967 1217 m 1024,22,-1
967 56 m 1024,23,-1
457 580 m 1,24,-1
 457 465 l 1,25,26
 334 164 334 164 179 174 c 1,27,28
 94 174 94 174 45 257 c 0,29,30
 0 336 0 336 0 466 c 0,31,32
 0 609 0 609 61 690 c 0,33,34
 114 760 114 760 189 760 c 1,35,-1
 361 630 l 1,36,-1
 287 484 l 1,37,-1
 202 544 l 1,38,39
 115 544 115 544 115 443 c 0,40,41
 115 400 115 400 131.5 369 c 128,-1,42
 148 338 148 338 176 338 c 0,43,44
 244 338 244 338 352 621.5 c 128,-1,45
 460 905 460 905 157 1150 c 1,46,-1
 336 1160 l 1,47,-1
 445 1070 l 1,48,49
 562 905 562 905 463 560 c 1,50,-1
 457 580 l 1,24,-1
EndSplineSet
Substitution2: "Single Substitution lookup 9 subtable" glyph316
EndChar

StartChar: bnya
Encoding: 205 205 139
AltUni2: 0009af.ffffffff.0
Width: 1050
GlyphClass: 2
Flags: W
LayerCount: 2
Fore
SplineSet
721 1340 m 1,0,-1
 1070 1345 l 1,1,-1
 1070 1180 l 1,2,-1
 940 1180 l 1,3,-1
 812 1180 l 1,4,-1
 766 1180 l 1,5,-1
 10 1185 l 1,6,-1
 10 1335 l 1,7,-1
 721 1340 l 1,0,-1
915 1180 m 1,8,-1
 915 20 l 1,9,-1
 97 356 l 1,10,-1
 182 534 l 1,11,-1
 439 737 l 1,12,-1
 61 1180 l 1,13,-1
 265 1175 l 1,14,-1
 638 815 l 1,15,-1
 573 652 l 1,16,-1
 341 427 l 1,17,-1
 765 286 l 1,18,-1
 764 1180 l 1,19,-1
 915 1180 l 1,8,-1
EndSplineSet
EndChar

StartChar: bnra
Encoding: 207 207 140
AltUni2: 0009b0.ffffffff.0
Width: 1050
GlyphClass: 2
Flags: W
LayerCount: 2
Fore
SplineSet
846 1180 m 1,0,-1
 846 11 l 1,1,-1
 710 0 l 1,2,-1
 77 532 l 1,3,-1
 60 648 l 1,4,-1
 685 1180 l 1,5,-1
 846 1180 l 1,0,-1
618 885 m 1,6,-1
 287 607 l 1,7,-1
 296 545 l 1,8,-1
 626 262 l 1,9,-1
 698 267 l 1,10,-1
 698 890 l 1,11,-1
 618 885 l 1,6,-1
20 1330 m 1,12,-1
 20 1180 l 1,13,-1
 1078 1170 l 1,14,-1
 1080 1330 l 1,15,-1
 20 1330 l 1,12,-1
286 170 m 1,16,-1
 213 81 l 1,17,-1
 275 -13 l 1,18,-1
 358 81 l 1,19,-1
 286 170 l 1,16,-1
EndSplineSet
EndChar

StartChar: bnla
Encoding: 209 209 141
AltUni2: 0009b2.ffffffff.0
Width: 1050
GlyphClass: 2
Flags: W
LayerCount: 2
Fore
SplineSet
1050 1131 m 1,0,-1
 942 1131 l 1,1,-1
 942 10 l 1,2,-1
 836 10 l 1,3,-1
 836 1131 l 1,4,-1
 827 1285 l 1,5,-1
 1050 1290 l 1,6,-1
 1050 1131 l 1,0,-1
20 1290 m 1,7,-1
 21 1120 l 1,8,-1
 836 1120 l 1,9,-1
 834 1290 l 1,10,-1
 20 1290 l 1,7,-1
563 369 m 1,11,-1
 580 350 l 1,12,-1
 629 489 l 1,13,14
 677 587 677 587 828 409 c 1,15,-1
 826 570 l 1,16,17
 767 667 767 667 710 695 c 0,18,19
 638 731 638 731 592 637 c 1,20,-1
 566 620 l 1,21,22
 486 717 486 717 409 745 c 0,23,24
 311 781 311 781 249 687 c 0,25,26
 186 593 186 593 177 453 c 128,-1,27
 168 313 168 313 214 170 c 0,28,29
 229 121 229 121 246 90 c 1,30,-1
 311 188 l 1,31,32
 291 213 291 213 278 258 c 0,33,34
 224 425 224 425 299 539 c 0,35,36
 364 637 364 637 563 369 c 1,11,-1
EndSplineSet
Substitution2: "Single Substitution lookup 9 subtable" glyph317
EndChar

StartChar: bnsha
Encoding: 213 213 142
AltUni2: 0009b6.ffffffff.0
Width: 1050
GlyphClass: 2
Flags: W
LayerCount: 2
Fore
SplineSet
10 845 m 1,0,-1
 13 1008 l 1,1,2
 93 1106 93 1106 171 1135 c 0,3,4
 270 1171 270 1171 332 1076 c 0,5,6
 395 981 395 981 404.5 838.5 c 128,-1,7
 414 696 414 696 368 551 c 0,8,9
 353 501 353 501 335 470 c 1,10,-1
 270 569 l 1,11,12
 290 595 290 595 303 641 c 0,13,14
 357 810 357 810 282 926 c 0,15,16
 217 1025 217 1025 10 845 c 1,0,-1
1060 1160 m 1,17,-1
 928 1160 l 1,18,-1
 928 0 l 1,19,-1
 799 0 l 1,20,-1
 799 1160 l 1,21,-1
 788 1320 l 1,22,-1
 1060 1325 l 1,23,-1
 1060 1160 l 1,17,-1
804 845 m 1,24,-1
 801 1008 l 1,25,26
 721 1106 721 1106 643 1135 c 0,27,28
 545 1171 545 1171 482 1076 c 256,29,30
 419 981 419 981 409.5 838.5 c 128,-1,31
 400 696 400 696 446 551 c 0,32,33
 461 501 461 501 479 470 c 1,34,-1
 544 569 l 1,35,36
 524 595 524 595 511 641 c 0,37,38
 457 810 457 810 532 926 c 0,39,40
 598 1025 598 1025 804 845 c 1,24,-1
EndSplineSet
EndChar

StartChar: bnssa
Encoding: 214 214 143
AltUni2: 0009b7.ffffffff.0
Width: 1050
GlyphClass: 2
Flags: W
LayerCount: 2
Fore
SplineSet
715 1340 m 1,0,-1
 1060 1345 l 1,1,-1
 1060 1180 l 1,2,-1
 931 1180 l 1,3,-1
 804 1180 l 1,4,-1
 759 1180 l 1,5,-1
 10 1185 l 1,6,-1
 10 1335 l 1,7,-1
 715 1340 l 1,0,-1
907 1180 m 1,8,-1
 907 20 l 1,9,-1
 96 356 l 1,10,-1
 180 534 l 1,11,-1
 435 737 l 1,12,-1
 60 1180 l 1,13,-1
 262 1175 l 1,14,-1
 632 815 l 1,15,-1
 567 652 l 1,16,-1
 337 427 l 1,17,-1
 758 286 l 1,18,-1
 756 1180 l 1,19,-1
 907 1180 l 1,8,-1
643 790 m 1,20,-1
 771 700 l 1,21,-1
 762 530 l 1,22,-1
 540 640 l 1,23,-1
 643 790 l 1,20,-1
EndSplineSet
EndChar

StartChar: bnsa
Encoding: 215 215 144
AltUni2: 0009b8.ffffffff.0
Width: 1050
GlyphClass: 2
Flags: W
LayerCount: 2
Fore
SplineSet
64.5 988.5 m 128,-1,1
 25 842 25 842 51.5 794.5 c 128,-1,2
 78 747 78 747 131 688.5 c 128,-1,3
 184 630 184 630 294.5 530 c 128,-1,4
 405 430 405 430 357 349.5 c 128,-1,5
 309 269 309 269 15 319 c 1,6,-1
 33 133 l 1,7,8
 405 63 405 63 499 217 c 128,-1,9
 593 371 593 371 570.5 422 c 128,-1,10
 548 473 548 473 512.5 519 c 128,-1,11
 477 565 477 565 415 635 c 128,-1,12
 353 705 353 705 282 761.5 c 128,-1,13
 211 818 211 818 241.5 981.5 c 128,-1,14
 272 1145 272 1145 188 1140 c 128,-1,0
 104 1135 104 1135 64.5 988.5 c 128,-1,1
1040 1140 m 1,15,-1
 902 1140 l 1,16,-1
 902 -20 l 1,17,-1
 766 -20 l 1,18,-1
 766 180 l 1,19,-1
 527 272 l 1,20,-1
 596 445 l 1,21,-1
 766 350 l 1,22,-1
 766 1140 l 1,23,-1
 670 1140 l 1,24,-1
 650 1150 l 1,25,-1
 2 1150 l 1,26,-1
 0 1320 l 1,27,-1
 649 1320 l 1,28,-1
 670 1330 l 1,29,-1
 1025 1325 l 1,30,-1
 1040 1140 l 1,15,-1
EndSplineSet
EndChar

StartChar: bnha
Encoding: 216 216 145
AltUni2: 0009b9.ffffffff.0
Width: 1050
GlyphClass: 2
Flags: W
LayerCount: 2
Fore
SplineSet
-20 1330 m 1,0,-1
 26 1160 l 1,1,-1
 1000 1180 l 1,2,-1
 991 1330 l 1,3,-1
 -20 1330 l 1,0,-1
269 826 m 1,4,5
 326 888 326 888 456 923 c 128,-1,6
 586 958 586 958 665.5 891 c 128,-1,7
 745 824 745 824 732 747.5 c 128,-1,8
 719 671 719 671 611 670 c 128,-1,9
 503 669 503 669 91 529 c 1,10,-1
 126 184 l 1,11,-1
 851 -20 l 1,12,-1
 940 142 l 1,13,-1
 261 396 l 1,14,-1
 274 427 l 1,15,-1
 444 432 l 2,16,17
 614 437 614 437 738.5 513.5 c 128,-1,18
 863 590 863 590 895.5 656 c 128,-1,19
 928 722 928 722 921.5 788.5 c 128,-1,20
 915 855 915 855 869.5 936.5 c 128,-1,21
 824 1018 824 1018 745.5 1074 c 128,-1,22
 667 1130 667 1130 490.5 1140 c 128,-1,23
 314 1150 314 1150 39 957 c 1,24,-1
 269 826 l 1,4,5
EndSplineSet
EndChar

StartChar: eacute
Encoding: 233 233 146
AltUni2: 0009bc.ffffffff.0
Width: 1050
GlyphClass: 2
Flags: W
LayerCount: 2
Fore
SplineSet
156 -64 m 1,0,-1
 -11 -228 l 1,1,-1
 130 -403 l 1,2,-1
 320 -228 l 1,3,-1
 156 -64 l 1,0,-1
EndSplineSet
EndChar

StartChar: bnmatraa
Encoding: 218 218 147
AltUni2: 0009be.ffffffff.0
Width: 1050
GlyphClass: 2
Flags: W
LayerCount: 2
Fore
SplineSet
1068 1132 m 1,0,-1
 599 1132 l 1,1,-1
 599 -10 l 1,2,-1
 423 -10 l 1,3,-1
 423 1132 l 1,4,-1
 -2 1132 l 1,5,-1
 -2 1290 l 1,6,-1
 1068 1295 l 1,7,-1
 1068 1132 l 1,0,-1
EndSplineSet
EndChar

StartChar: bnmatrai
Encoding: 219 219 148
AltUni2: 0009bf.ffffffff.0
Width: 1050
GlyphClass: 2
Flags: W
LayerCount: 2
Fore
SplineSet
988 1585 m 1024,0,-1
1417 1482 m 1,1,2
 1165 1672 1165 1672 983 1672 c 0,3,4
 832 1672 832 1672 729 1601 c 0,5,6
 618 1525 618 1525 618 1401 c 0,7,8
 618 1336 618 1336 674 1298 c 1,9,-1
 1049 1298 l 1,10,-1
 1049 1138 l 1,11,-1
 672 1138 l 1,12,-1
 672 -22 l 1,13,-1
 496 -22 l 1,14,-1
 496 1138 l 1,15,-1
 -7 1148 l 1,16,-1
 -2 1296 l 1,17,-1
 478 1298 l 1,18,19
 454 1357 454 1357 454 1414 c 0,20,21
 454 1603 454 1603 618 1725 c 0,22,23
 769 1836 769 1836 969 1836 c 0,24,25
 1200 1836 1200 1836 1458 1638 c 1,26,-1
 1417 1482 l 1,1,2
868 96 m 1024,27,-1
EndSplineSet
EndChar

StartChar: bnmatraii
Encoding: 220 220 149
AltUni2: 0009c0.ffffffff.0
Width: 1050
GlyphClass: 2
Flags: W
LayerCount: 2
Fore
SplineSet
598 86 m 1024,0,-1
1056 1147 m 1,1,-1
 598 1157 l 1,2,-1
 598 -68 l 1,3,-1
 422 -68 l 1,4,-1
 427 1147 l 1,5,-1
 -2 1149 l 1,6,-1
 -9 1297 l 1,7,-1
 1056 1292 l 1,8,-1
 1056 1147 l 1,1,-1
489 1292 m 1,9,10
 416 1663 416 1663 -124 1927 c 1,11,12
 -230 1831 -230 1831 -188 1771 c 1,13,14
 100 1597 100 1597 286 1295 c 1,15,-1
 121 1299 l 1,16,17
 -38 1424 -38 1424 -323 1610 c 1,18,19
 -413 1785 -413 1785 -400 1884 c 0,20,21
 -373 2084 -373 2084 -293 2100 c 1,22,23
 131 2104 131 2104 438 1814 c 1,24,25
 656 1415 656 1415 639 1293 c 1,26,-1
 489 1292 l 1,9,10
EndSplineSet
EndChar

StartChar: bnmatrau
Encoding: 221 221 150
AltUni2: 0009c1.ffffffff.0
Width: 1050
GlyphClass: 2
Flags: W
LayerCount: 2
Fore
SplineSet
716 -1 m 1,0,-1
 552 -226 l 1,1,2
 425 -156 425 -156 315 -128 c 1,3,4
 165 -142 165 -142 112.5 -184 c 128,-1,5
 60 -226 60 -226 32.5 -275.5 c 128,-1,6
 5 -325 5 -325 10.5 -381.5 c 128,-1,7
 16 -438 16 -438 85 -480 c 128,-1,8
 154 -522 154 -522 223 -532.5 c 128,-1,9
 292 -543 292 -543 377.5 -522 c 128,-1,10
 463 -501 463 -501 534 -457 c 1,11,-1
 1059 -740 l 1,12,-1
 1076 -552 l 1,13,-1
 602 -388 l 1,14,-1
 602 -339 l 1,15,-1
 889 10 l 1,16,-1
 716 -1 l 1,0,-1
455 -328 m 1,17,18
 423 -384 423 -384 396.5 -408.5 c 128,-1,19
 370 -433 370 -433 306.5 -444 c 128,-1,20
 243 -455 243 -455 198.5 -433.5 c 128,-1,21
 154 -412 154 -412 146 -391 c 128,-1,22
 138 -370 138 -370 152 -342 c 128,-1,23
 166 -314 166 -314 210 -282.5 c 128,-1,24
 254 -251 254 -251 317.5 -254 c 128,-1,25
 381 -257 381 -257 414 -274.5 c 128,-1,26
 447 -292 447 -292 455 -328 c 1,17,18
-20 1330 m 1,27,-1
 26 1160 l 1,28,-1
 1000 1180 l 1,29,-1
 991 1330 l 1,30,-1
 -20 1330 l 1,27,-1
EndSplineSet
EndChar

StartChar: bnmatrauu
Encoding: 222 222 151
AltUni2: 0009c2.ffffffff.0
Width: 1050
GlyphClass: 2
Flags: W
LayerCount: 2
Fore
SplineSet
161 20 m 1,0,-1
 288 -40 l 1,1,2
 210 -130 210 -130 176 -215 c 128,-1,3
 142 -300 142 -300 190.5 -365 c 128,-1,4
 239 -430 239 -430 322 -445 c 128,-1,5
 405 -460 405 -460 463.5 -420 c 128,-1,6
 522 -380 522 -380 571 -335 c 128,-1,7
 620 -290 620 -290 639 -260 c 1,8,-1
 1020 -520 l 1,9,-1
 1020 -680 l 1,10,-1
 620 -440 l 1,11,12
 542 -530 542 -530 483.5 -555 c 128,-1,13
 425 -580 425 -580 366.5 -585 c 128,-1,14
 308 -590 308 -590 229.5 -605 c 128,-1,15
 151 -620 151 -620 102.5 -550 c 128,-1,16
 54 -480 54 -480 24.5 -375 c 128,-1,17
 -5 -270 -5 -270 29.5 -165 c 128,-1,18
 64 -60 64 -60 161 20 c 1,0,-1
-20 1330 m 1,19,-1
 26 1160 l 1,20,-1
 1000 1180 l 1,21,-1
 991 1330 l 1,22,-1
 -20 1330 l 1,19,-1
EndSplineSet
EndChar

StartChar: bnri
Encoding: 223 223 152
AltUni2: 0009c3.ffffffff.0
Width: 1050
GlyphClass: 2
Flags: W
LayerCount: 2
Fore
SplineSet
370 -349 m 1,0,-1
 359 -352 l 1,1,-1
 864 -568 l 1,2,-1
 890 -750 l 1,3,-1
 -10 -398 l 1,4,-1
 497 -65 l 1,5,-1
 755 -70 l 1,6,-1
 370 -349 l 1,0,-1
-20 1330 m 1,7,-1
 26 1160 l 1,8,-1
 1000 1180 l 1,9,-1
 991 1330 l 1,10,-1
 -20 1330 l 1,7,-1
EndSplineSet
EndChar

StartChar: uni09C4
Encoding: 2500 2500 153
Width: 1050
GlyphClass: 2
Flags: W
LayerCount: 2
Fore
SplineSet
370 -489 m 1,0,-1
 359 -492 l 1,1,-1
 864 -708 l 1,2,-1
 890 -890 l 1,3,-1
 -10 -538 l 1,4,-1
 497 -205 l 1,5,-1
 755 -210 l 1,6,-1
 370 -489 l 1,0,-1
610 -309 m 1,7,-1
 599 -312 l 1,8,-1
 1104 -528 l 1,9,-1
 1130 -710 l 1,10,-1
 230 -358 l 1,11,-1
 737 -25 l 1,12,-1
 995 -30 l 1,13,-1
 610 -309 l 1,7,-1
-20 1330 m 1,14,-1
 26 1160 l 1,15,-1
 1000 1180 l 1,16,-1
 991 1330 l 1,17,-1
 -20 1330 l 1,14,-1
EndSplineSet
EndChar

StartChar: bnmatrae
Encoding: 225 225 154
AltUni2: 0009c7.ffffffff.0
Width: 1050
GlyphClass: 2
Flags: W
LayerCount: 2
Fore
SplineSet
525 1151 m 1,0,-1
 755 1160 l 1,1,2
 611 970 611 970 532 894.5 c 128,-1,3
 453 819 453 819 438.5 726 c 128,-1,4
 424 633 424 633 417 524.5 c 128,-1,5
 410 416 410 416 795 96 c 1,6,-1
 608 16 l 1,7,8
 267 371 267 371 245 506.5 c 128,-1,9
 223 642 223 642 252 757 c 128,-1,10
 281 872 281 872 317 949.5 c 128,-1,11
 353 1027 353 1027 525 1151 c 1,0,-1
1060 1330 m 1,12,-1
 1062 1170 l 1,13,-1
 12 1165 l 1,14,-1
 10 1330 l 1,15,-1
 1060 1330 l 1,12,-1
EndSplineSet
EndChar

StartChar: bnmatraai
Encoding: 226 226 155
AltUni2: 0009c8.ffffffff.0
Width: 1050
GlyphClass: 2
Flags: W
LayerCount: 2
Fore
SplineSet
480 1151 m 1,0,-1
 710 1160 l 1,1,2
 566 970 566 970 487 894.5 c 128,-1,3
 408 819 408 819 393.5 726 c 128,-1,4
 379 633 379 633 402 484.5 c 128,-1,5
 425 336 425 336 780 36 c 1,6,-1
 563 16 l 1,7,8
 262 291 262 291 205 466.5 c 128,-1,9
 148 642 148 642 192 757 c 128,-1,10
 236 872 236 872 272 949.5 c 128,-1,11
 308 1027 308 1027 480 1151 c 1,0,-1
720 1330 m 1,12,13
 728 1352 728 1352 728 1392 c 0,14,15
 728 1528 728 1528 568 1528 c 2,16,-1
 439 1528 l 2,17,18
 261 1528 261 1528 192 1575 c 0,19,20
 101 1635 101 1635 52 1834 c 1,21,-1
 220 1834 l 1,22,23
 238 1763 238 1763 255 1736 c 0,24,25
 285 1688 285 1688 343 1688 c 2,26,-1
 454 1688 l 2,27,28
 654 1688 654 1688 749 1647 c 0,29,30
 891 1585 891 1585 891 1417 c 0,31,32
 891 1362 891 1362 882 1330 c 1,33,-1
 720 1330 l 1,12,13
1060 1320 m 1,34,-1
 1062 1160 l 1,35,-1
 12 1155 l 1,36,-1
 10 1320 l 1,37,-1
 1060 1320 l 1,34,-1
EndSplineSet
EndChar

StartChar: bnmatrao
Encoding: 229 229 156
AltUni2: 0009cb.ffffffff.0
Width: 1050
GlyphClass: 2
Flags: W
LayerCount: 2
Fore
SplineSet
285 1151 m 1,0,-1
 515 1160 l 1,1,2
 371 970 371 970 292 894.5 c 128,-1,3
 213 819 213 819 198.5 726 c 128,-1,4
 184 633 184 633 177 524.5 c 128,-1,5
 170 416 170 416 555 96 c 1,6,-1
 368 16 l 1,7,8
 27 371 27 371 5 506.5 c 128,-1,9
 -17 642 -17 642 12 757 c 128,-1,10
 41 872 41 872 77 949.5 c 128,-1,11
 113 1027 113 1027 285 1151 c 1,0,-1
690 1330 m 1,12,-1
 661 1170 l 1,13,-1
 31 1160 l 1,14,-1
 10 1330 l 1,15,-1
 690 1330 l 1,12,-1
1038 1165 m 1,16,-1
 859 1165 l 1,17,-1
 859 5 l 1,18,-1
 683 5 l 1,19,-1
 683 1165 l 1,20,-1
 558 1165 l 1,21,-1
 558 1325 l 1,22,-1
 1038 1330 l 1,23,-1
 1038 1165 l 1,16,-1
EndSplineSet
EndChar

StartChar: bnmatraau
Encoding: 230 230 157
AltUni2: 0009cc.ffffffff.0
Width: 1050
GlyphClass: 2
Flags: W
LayerCount: 2
Fore
SplineSet
285 1151 m 1,0,-1
 515 1160 l 1,1,2
 371 970 371 970 292 894.5 c 128,-1,3
 213 819 213 819 198.5 726 c 128,-1,4
 184 633 184 633 177 524.5 c 128,-1,5
 170 416 170 416 555 96 c 1,6,-1
 368 16 l 1,7,8
 27 371 27 371 5 506.5 c 128,-1,9
 -17 642 -17 642 12 757 c 128,-1,10
 41 872 41 872 77 949.5 c 128,-1,11
 113 1027 113 1027 285 1151 c 1,0,-1
690 1330 m 1,12,-1
 661 1170 l 1,13,-1
 31 1160 l 1,14,-1
 10 1330 l 1,15,-1
 690 1330 l 1,12,-1
3164 1347 m 1024,16,-1
3164 186 m 1024,17,-1
730 1335 m 1,18,19
 738 1357 738 1357 738 1397 c 0,20,21
 738 1533 738 1533 578 1533 c 2,22,-1
 449 1533 l 2,23,24
 271 1533 271 1533 202 1580 c 0,25,26
 111 1640 111 1640 62 1839 c 1,27,-1
 230 1839 l 1,28,29
 248 1768 248 1768 265 1741 c 0,30,31
 295 1693 295 1693 353 1693 c 2,32,-1
 464 1693 l 2,33,34
 664 1693 664 1693 759 1652 c 0,35,36
 901 1590 901 1590 901 1422 c 0,37,38
 901 1367 901 1367 892 1335 c 1,39,-1
 730 1335 l 1,18,19
1043 1185 m 1,40,-1
 864 1185 l 1,41,-1
 864 25 l 1,42,-1
 688 25 l 1,43,-1
 688 1185 l 1,44,-1
 563 1185 l 1,45,-1
 563 1345 l 1,46,-1
 1043 1350 l 1,47,-1
 1043 1185 l 1,40,-1
EndSplineSet
EndChar

StartChar: u09CD
Encoding: 232 232 158
AltUni2: 0009cd.ffffffff.0
Width: 1050
GlyphClass: 2
Flags: W
LayerCount: 2
Fore
SplineSet
139 -220 m 1,0,-1
 297 -106 l 1,1,-1
 724 -654 l 1,2,-1
 561 -782 l 1,3,-1
 139 -220 l 1,0,-1
-20 1330 m 1,4,-1
 26 1160 l 1,5,-1
 1000 1180 l 1,6,-1
 991 1330 l 1,7,-1
 -20 1330 l 1,4,-1
EndSplineSet
EndChar

StartChar: bnaulength
Encoding: 2519 2519 159
Width: 1050
GlyphClass: 2
Flags: W
LayerCount: 2
Fore
SplineSet
624 1307 m 1024,0,-1
624 146 m 1024,1,-1
539 1325 m 1,2,3
 545 1347 545 1347 545 1387 c 0,4,5
 545 1523 545 1523 418 1523 c 2,6,-1
 315 1523 l 2,7,8
 173 1523 173 1523 118 1570 c 0,9,10
 46 1630 46 1630 7 1829 c 1,11,-1
 141 1829 l 1,12,13
 155 1758 155 1758 169 1731 c 0,14,15
 193 1683 193 1683 239 1683 c 2,16,-1
 327 1683 l 2,17,18
 486 1683 486 1683 562 1642 c 0,19,20
 675 1580 675 1580 675 1412 c 0,21,22
 675 1357 675 1357 668 1325 c 1,23,-1
 539 1325 l 1,2,3
1051 1149 m 1,24,-1
 613 1149 l 1,25,-1
 614 -5 l 1,26,-1
 438 -5 l 1,27,-1
 438 1150 l 1,28,-1
 1 1150 l 1,29,-1
 3 1333 l 1,30,-1
 1052 1329 l 1,31,-1
 1051 1149 l 1,24,-1
EndSplineSet
EndChar

StartChar: bnrra
Encoding: 2524 2524 160
Width: 1050
GlyphClass: 2
Flags: W
LayerCount: 2
Fore
SplineSet
422 1122 m 1,0,-1
 422 524 l 1,1,2
 703 600 703 600 817 520 c 128,-1,3
 931 440 931 440 865.5 293 c 128,-1,4
 800 146 800 146 665 141 c 128,-1,5
 530 136 530 136 97 373 c 1,6,-1
 0 278 l 1,7,8
 466 3 466 3 650 31.5 c 128,-1,9
 834 60 834 60 969 231 c 128,-1,10
 1104 402 1104 402 1039.5 501 c 128,-1,11
 975 600 975 600 828.5 633 c 128,-1,12
 682 666 682 666 551 666 c 1,13,-1
 551 1131 l 1,14,-1
 433 1131 l 1,15,-1
 422 1122 l 1,0,-1
19 1330 m 1,16,-1
 19 1154 l 1,17,-1
 1048 1142 l 1,18,-1
 1050 1330 l 1,19,-1
 19 1330 l 1,16,-1
657 10 m 1,20,-1
 566 -98 l 1,21,-1
 643 -213 l 1,22,-1
 745 -98 l 1,23,-1
 657 10 l 1,20,-1
EndSplineSet
EndChar

StartChar: bnrha
Encoding: 2525 2525 161
Width: 1050
GlyphClass: 2
Flags: W
LayerCount: 2
Fore
SplineSet
20 1340 m 1,0,-1
 20 1197 l 1,1,-1
 1068 1188 l 1,2,-1
 1070 1340 l 1,3,-1
 20 1340 l 1,0,-1
270 1193 m 1,4,-1
 271 384 l 1,5,6
 339 335 339 335 407 326 c 1,7,8
 472 286 472 286 598 286 c 1,9,10
 699 276 699 276 798 330 c 1,11,12
 853 410 853 410 840 414 c 1,13,14
 840 440 840 440 822 470 c 0,15,16
 789 526 789 526 745 549 c 1,17,-1
 682 560 l 1,18,-1
 740 713 l 1,19,-1
 853 659 l 2,20,21
 943 614 943 614 985 537 c 0,22,23
 1019 483 1019 483 1020 440 c 0,24,25
 1025 318 1025 318 901 193 c 1,26,27
 771 110 771 110 567 90 c 1,28,29
 354 90 354 90 244 161 c 0,30,31
 103 253 103 253 100 479 c 2,32,-1
 96 1207 l 1,33,-1
 270 1193 l 1,4,-1
540 10 m 1,34,-1
 448 -98 l 1,35,-1
 526 -213 l 1,36,-1
 631 -98 l 1,37,-1
 540 10 l 1,34,-1
EndSplineSet
EndChar

StartChar: bnyya
Encoding: 206 206 162
AltUni2: 0009df.ffffffff.0
Width: 1050
GlyphClass: 2
Flags: W
LayerCount: 2
Fore
SplineSet
708 1340 m 1,0,-1
 1050 1345 l 1,1,-1
 1050 1180 l 1,2,-1
 922 1180 l 1,3,-1
 797 1180 l 1,4,-1
 752 1180 l 1,5,-1
 10 1185 l 1,6,-1
 10 1335 l 1,7,-1
 708 1340 l 1,0,-1
898 1180 m 1,8,-1
 898 20 l 1,9,-1
 96 356 l 1,10,-1
 179 534 l 1,11,-1
 431 737 l 1,12,-1
 60 1180 l 1,13,-1
 260 1175 l 1,14,-1
 627 815 l 1,15,-1
 562 652 l 1,16,-1
 334 427 l 1,17,-1
 751 286 l 1,18,-1
 749 1180 l 1,19,-1
 898 1180 l 1,8,-1
492 120 m 1,20,-1
 399 12 l 1,21,-1
 477 -103 l 1,22,-1
 583 12 l 1,23,-1
 492 120 l 1,20,-1
EndSplineSet
EndChar

StartChar: bnrri
Encoding: 2528 2528 163
Width: 1050
GlyphClass: 2
Flags: W
LayerCount: 2
Fore
SplineSet
1050 1200 m 1,0,-1
 940 1200 l 1,1,-1
 940 40 l 1,2,-1
 832 40 l 1,3,-1
 832 240 l 1,4,-1
 678 292 l 1,5,-1
 678 505 l 1,6,-1
 832 410 l 1,7,-1
 832 1200 l 1,8,-1
 755 1200 l 1,9,-1
 755 1360 l 1,10,-1
 1050 1365 l 1,11,-1
 1050 1200 l 1,0,-1
285 1227 m 1,12,-1
 297 1242 l 1,13,-1
 333 1131 l 1,14,15
 368 1053 368 1053 480 1195 c 1,16,-1
 478 1067 l 1,17,18
 435 989 435 989 393 967 c 0,19,20
 339 938 339 938 306 1013 c 1,21,-1
 286 1027 l 1,22,23
 228 949 228 949 172 927 c 0,24,25
 100 898 100 898 53 973 c 0,26,27
 7 1048 7 1048 0.5 1160 c 128,-1,28
 -6 1272 -6 1272 28 1386 c 0,29,30
 39 1425 39 1425 52 1450 c 1,31,-1
 99 1372 l 1,32,33
 84 1352 84 1352 74 1316 c 0,34,35
 36 1183 36 1183 90 1091 c 0,36,37
 138 1013 138 1013 285 1227 c 1,12,-1
683 1150 m 1,38,-1
 683 40 l 1,39,-1
 580 30 l 1,40,-1
 98 535 l 1,41,-1
 86 645 l 1,42,-1
 561 1150 l 1,43,-1
 683 1150 l 1,38,-1
516 895 m 1,44,-1
 264 617 l 1,45,-1
 271 555 l 1,46,-1
 523 272 l 1,47,-1
 577 277 l 1,48,-1
 577 900 l 1,49,-1
 516 895 l 1,44,-1
443 -299 m 1,50,-1
 436 -302 l 1,51,-1
 746 -518 l 1,52,-1
 762 -700 l 1,53,-1
 209 -348 l 1,54,-1
 582 25 l 1,55,-1
 704 40 l 1,56,-1
 443 -299 l 1,50,-1
EndSplineSet
EndChar

StartChar: uni09E1
Encoding: 2529 2529 164
Width: 1050
GlyphClass: 2
Flags: W
LayerCount: 2
Fore
SplineSet
770 540 m 1,0,1
 970 368 970 368 1025 265.5 c 128,-1,2
 1080 163 1080 163 1049.5 74.5 c 128,-1,3
 1019 -14 1019 -14 927 -68 c 128,-1,4
 835 -122 835 -122 831 -111 c 2,5,-1
 799 -58 l 1,6,7
 888 -4 888 -4 949 61 c 1,8,9
 872 169 872 169 812.5 169 c 128,-1,10
 753 169 753 169 688 77 c 1,11,-1
 644 109 l 1,12,13
 721 217 721 217 751.5 230.5 c 128,-1,14
 782 244 782 244 831 233 c 128,-1,15
 880 222 880 222 999 109 c 1,16,17
 921 309 921 309 882 352 c 128,-1,18
 843 395 843 395 741 486 c 1,19,-1
 770 540 l 1,0,1
235 1270 m 1,20,21
 606 950 606 950 708 760 c 128,-1,22
 810 570 810 570 753.5 405 c 128,-1,23
 697 240 697 240 526.5 140 c 128,-1,24
 356 40 356 40 348 60 c 2,25,-1
 288 160 l 1,26,27
 454 260 454 260 568 380 c 1,28,29
 424 580 424 580 314 580 c 128,-1,30
 204 580 204 580 83 410 c 1,31,-1
 0 470 l 1,32,33
 144 670 144 670 200.5 695 c 128,-1,34
 257 720 257 720 348 700 c 128,-1,35
 439 680 439 680 659 470 c 1,36,37
 515 840 515 840 443 920 c 128,-1,38
 371 1000 371 1000 182 1170 c 1,39,-1
 235 1270 l 1,20,21
EndSplineSet
EndChar

StartChar: uni09E2
Encoding: 2530 2530 165
Width: 1050
GlyphClass: 2
Flags: W
LayerCount: 2
Fore
SplineSet
165 374 m 1,0,1
 410 214 410 214 478 118.5 c 128,-1,2
 546 23 546 23 508 -59.5 c 128,-1,3
 470 -142 470 -142 357.5 -192 c 128,-1,4
 245 -242 245 -242 240 -232 c 2,5,-1
 200 -182 l 1,6,7
 310 -132 310 -132 385 -72 c 1,8,9
 290 28 290 28 217.5 28 c 128,-1,10
 145 28 145 28 65 -57 c 1,11,-1
 10 -27 l 1,12,13
 105 74 105 74 142.5 86.5 c 128,-1,14
 180 99 180 99 240 89 c 128,-1,15
 300 79 300 79 445 -27 c 1,16,17
 350 159 350 159 302.5 199 c 128,-1,18
 255 239 255 239 130 324 c 1,19,-1
 165 374 l 1,0,1
EndSplineSet
EndChar

StartChar: uni09E3
Encoding: 2531 2531 166
Width: 1050
GlyphClass: 2
Flags: W
LayerCount: 2
Fore
SplineSet
535 244 m 1,0,1
 780 84 780 84 848 -11.5 c 128,-1,2
 916 -107 916 -107 878 -189.5 c 128,-1,3
 840 -272 840 -272 727.5 -322 c 128,-1,4
 615 -372 615 -372 610 -362 c 2,5,-1
 570 -312 l 1,6,7
 680 -262 680 -262 755 -202 c 1,8,9
 660 -102 660 -102 587.5 -102 c 128,-1,10
 515 -102 515 -102 435 -187 c 1,11,-1
 380 -157 l 1,12,13
 475 -56 475 -56 512.5 -43.5 c 128,-1,14
 550 -31 550 -31 610 -41 c 128,-1,15
 670 -51 670 -51 815 -157 c 1,16,17
 720 29 720 29 672.5 69 c 128,-1,18
 625 109 625 109 500 194 c 1,19,-1
 535 244 l 1,0,1
155 414 m 1,20,21
 400 254 400 254 468 158.5 c 128,-1,22
 536 63 536 63 498 -19.5 c 128,-1,23
 460 -102 460 -102 347.5 -152 c 128,-1,24
 235 -202 235 -202 230 -192 c 2,25,-1
 190 -142 l 1,26,27
 300 -92 300 -92 375 -32 c 1,28,29
 280 68 280 68 207.5 68 c 128,-1,30
 135 68 135 68 55 -17 c 1,31,-1
 0 13 l 1,32,33
 95 114 95 114 132.5 126.5 c 128,-1,34
 170 139 170 139 230 129 c 128,-1,35
 290 119 290 119 435 13 c 1,36,37
 340 199 340 199 292.5 239 c 128,-1,38
 245 279 245 279 120 364 c 1,39,-1
 155 414 l 1,20,21
EndSplineSet
EndChar

StartChar: ntilde
Encoding: 241 241 167
AltUni2: 0009e6.ffffffff.0
Width: 1050
GlyphClass: 2
Flags: W
LayerCount: 2
Fore
SplineSet
533 160 m 256,0,1
 232 160 232 160 106.5 334.5 c 128,-1,2
 -19 509 -19 509 -1 719 c 128,-1,3
 17 929 17 929 164.5 1104 c 128,-1,4
 312 1279 312 1279 558 1279 c 0,5,6
 802 1279 802 1279 941.5 1104 c 128,-1,7
 1081 929 1081 929 1090.5 719 c 128,-1,8
 1100 509 1100 509 967 334.5 c 128,-1,9
 834 160 834 160 533 160 c 256,0,1
590 1090 m 0,10,11
 418 1113 418 1113 336 999.5 c 128,-1,12
 254 886 254 886 251.5 739 c 128,-1,13
 249 592 249 592 320 463.5 c 128,-1,14
 391 335 391 335 525 329 c 0,15,16
 658 322 658 322 749.5 431.5 c 128,-1,17
 841 541 841 541 862 680 c 128,-1,18
 883 819 883 819 822 942.5 c 128,-1,19
 761 1066 761 1066 590 1090 c 0,10,11
EndSplineSet
EndChar

StartChar: ograve
Encoding: 242 242 168
AltUni2: 0009e7.ffffffff.0
Width: 1050
GlyphClass: 2
Flags: W
LayerCount: 2
Fore
SplineSet
206 1320 m 1,0,1
 621 655 621 655 670 496.5 c 128,-1,2
 719 338 719 338 250 0 c 1,3,-1
 86 87 l 1,4,5
 413 338 413 338 418.5 474.5 c 128,-1,6
 424 611 424 611 10 1233 c 1,7,-1
 206 1320 l 1,0,1
EndSplineSet
EndChar

StartChar: oacute
Encoding: 243 243 169
AltUni2: 0009e8.ffffffff.0
Width: 1050
GlyphClass: 2
Flags: W
LayerCount: 2
Fore
SplineSet
896 -21 m 1,0,-1
 659 22 l 1,1,-1
 267 338 l 1,2,-1
 30 473 l 1,3,-1
 349 687 l 1,4,-1
 551 860 l 2,5,6
 574 880 574 880 525 924 c 128,-1,7
 476 968 476 968 397 1022.5 c 128,-1,8
 318 1077 318 1077 236 1137 c 128,-1,9
 154 1197 154 1197 113 1248 c 0,10,11
 57 1317 57 1317 96 1374 c 128,-1,12
 135 1431 135 1431 166 1407 c 2,13,-1
 823 922 l 1,14,-1
 566 634 l 1,15,-1
 371 500 l 1,16,-1
 781 130 l 1,17,-1
 896 -21 l 1,0,-1
EndSplineSet
EndChar

StartChar: ocircumflex
Encoding: 244 244 170
AltUni2: 0009e9.ffffffff.0
Width: 1050
GlyphClass: 2
Flags: W
LayerCount: 2
Fore
SplineSet
423 857 m 1,0,-1
 310 932 l 1,1,2
 406 1073 406 1073 552 1159 c 1,3,-1
 779 1170 l 1,4,5
 973 976 973 976 1070 770 c 1,6,7
 1070 468 1070 468 1013.5 354.5 c 128,-1,8
 957 241 957 241 868 176 c 128,-1,9
 779 111 779 111 714 73.5 c 128,-1,10
 649 36 649 36 503.5 63 c 128,-1,11
 358 90 358 90 10 371 c 1,12,-1
 74 533 l 1,13,14
 382 327 382 327 491.5 284 c 128,-1,15
 601 241 601 241 710 306 c 128,-1,16
 819 371 819 371 844 533 c 1,17,18
 884 587 884 587 836 803 c 1,19,20
 755 900 755 900 689 954 c 1,21,22
 576 976 576 976 438 878 c 1,23,-1
 423 857 l 1,0,-1
EndSplineSet
EndChar

StartChar: otilde
Encoding: 245 245 171
AltUni2: 0009ea.ffffffff.0
Width: 1050
GlyphClass: 2
Flags: W
LayerCount: 2
Fore
SplineSet
1020 425 m 0,0,1
 1020 258 1020 258 897 168 c 0,2,3
 773 75 773 75 503 75 c 0,4,5
 350 75 350 75 187.5 154.5 c 128,-1,6
 25 234 25 234 25 378 c 0,7,8
 25 481 25 481 115 573 c 0,9,10
 161 620 161 620 204 653.5 c 128,-1,11
 247 687 247 687 321 715 c 1,12,13
 261 725 261 725 226.5 750.5 c 128,-1,14
 192 776 192 776 148 805 c 0,15,16
 25 886 25 886 25 998 c 0,17,18
 25 1179 25 1179 176 1264.5 c 128,-1,19
 327 1350 327 1350 531 1350 c 0,20,21
 650 1350 650 1350 798 1292 c 0,22,23
 959 1225 959 1225 989 1091 c 128,-1,24
 1019 957 1019 957 915 847 c 0,25,26
 874 804 874 804 833.5 772 c 128,-1,27
 793 740 793 740 709 722 c 1,28,-1
 735 712 l 1,29,30
 791 712 791 712 824.5 684.5 c 128,-1,31
 858 657 858 657 915 620 c 0,32,33
 979 576 979 576 999.5 531 c 128,-1,34
 1020 486 1020 486 1020 425 c 0,0,1
731 1200 m 0,35,36
 613 1255 613 1255 478 1255 c 0,37,38
 347 1255 347 1255 267 1180.5 c 128,-1,39
 187 1106 187 1106 187 1010 c 0,40,41
 187 957 187 957 220.5 890 c 128,-1,42
 254 823 254 823 343 819 c 2,43,-1
 571 810 l 2,44,45
 627 805 627 805 650 816.5 c 128,-1,46
 673 828 673 828 699 842 c 0,47,48
 832 914 832 914 864.5 1017 c 128,-1,49
 897 1120 897 1120 731 1200 c 0,35,36
903 404 m 0,50,51
 903 463 903 463 873 494.5 c 128,-1,52
 843 526 843 526 788 558 c 0,53,54
 663 632 663 632 538 632 c 0,55,56
 463 632 463 632 391.5 620.5 c 128,-1,57
 320 609 320 609 261 565 c 0,58,59
 146 475 146 475 171 384.5 c 128,-1,60
 196 294 196 294 296 236 c 128,-1,61
 396 178 396 178 541.5 172 c 128,-1,62
 687 166 687 166 812 250 c 0,63,64
 903 311 903 311 903 404 c 0,50,51
EndSplineSet
EndChar

StartChar: odieresis
Encoding: 246 246 172
AltUni2: 0009eb.ffffffff.0
Width: 1050
GlyphClass: 2
Flags: W
LayerCount: 2
Fore
SplineSet
951 933 m 1,0,1
 733 654 733 654 646 524 c 1,2,3
 698 289 698 289 934 201 c 1,4,-1
 585 10 l 1,5,6
 298 1 298 1 154 123 c 128,-1,7
 10 245 10 245 14.5 484.5 c 128,-1,8
 19 724 19 724 163 911 c 128,-1,9
 307 1098 307 1098 568 1290 c 1,10,-1
 951 933 l 1,0,1
540 1090 m 1,11,12
 317 884 317 884 227.5 768.5 c 128,-1,13
 138 653 138 653 135.5 504.5 c 128,-1,14
 133 356 133 356 222.5 299 c 128,-1,15
 312 242 312 242 472 106 c 1,16,-1
 699 244 l 1,17,18
 559 383 559 383 527 528 c 1,19,20
 581 609 581 609 794 877 c 1,21,-1
 540 1090 l 1,11,12
EndSplineSet
EndChar

StartChar: divide
Encoding: 247 247 173
AltUni2: 0009ec.ffffffff.0
Width: 1050
GlyphClass: 2
Flags: W
LayerCount: 2
Fore
SplineSet
452 1219 m 1,0,-1
 452 553 l 1,1,2
 727 638 727 638 838 548 c 128,-1,3
 949 458 949 458 885.5 294 c 128,-1,4
 822 130 822 130 690 125 c 128,-1,5
 558 120 558 120 135 384 c 1,6,-1
 40 278 l 1,7,8
 495 -29 495 -29 674.5 3 c 128,-1,9
 854 35 854 35 986 225.5 c 128,-1,10
 1118 416 1118 416 1054.5 527 c 128,-1,11
 991 638 991 638 848.5 675 c 128,-1,12
 706 712 706 712 579 712 c 1,13,-1
 579 1230 l 1,14,-1
 463 1230 l 1,15,-1
 452 1219 l 1,0,-1
EndSplineSet
EndChar

StartChar: oslash
Encoding: 248 248 174
AltUni2: 0009ed.ffffffff.0
Width: 1050
GlyphClass: 2
Flags: W
LayerCount: 2
Fore
SplineSet
959 55 m 1,0,-1
 947 770 l 1,1,2
 882 730 882 730 767 706 c 0,3,4
 648 679 648 679 520 679 c 0,5,6
 347 679 347 679 220 742 c 0,7,8
 118 793 118 793 70 882 c 0,9,10
 34 945 34 945 31 995 c 0,11,12
 26 1136 26 1136 189 1234 c 0,13,14
 347 1330 347 1330 542 1330 c 0,15,16
 789 1330 789 1330 913 1248 c 0,17,18
 1071 1141 1071 1141 1075 880 c 2,19,-1
 1080 39 l 1,20,-1
 959 55 l 1,0,-1
856 887 m 1,21,-1
 862 906 l 1,22,-1
 867 932 l 2,23,24
 881 1004 881 1004 849.5 1061 c 128,-1,25
 818 1118 818 1118 774 1155 c 0,26,27
 697 1219 697 1219 547 1219 c 0,28,29
 386 1219 386 1219 288 1151 c 0,30,31
 189 1082 189 1082 189 993 c 0,32,33
 189 960 189 960 210 923 c 0,34,35
 249 851 249 851 303 822 c 0,36,37
 376 783 376 783 508 783 c 2,38,-1
 597 783 l 2,39,40
 610 783 610 783 682 799 c 0,41,42
 717 807 717 807 742.5 812 c 128,-1,43
 768 817 768 817 781 821 c 0,44,45
 797 824 797 824 813 850 c 128,-1,46
 829 876 829 876 856 887 c 1,21,-1
EndSplineSet
EndChar

StartChar: ugrave
Encoding: 249 249 175
AltUni2: 0009ee.ffffffff.0
Width: 1050
GlyphClass: 2
Flags: W
LayerCount: 2
Fore
SplineSet
1130 1017 m 1024,0,-1
193 469 m 1,1,-1
 189 450 l 1,2,-1
 185 424 l 2,3,4
 175 350 175 350 198 292.5 c 128,-1,5
 221 235 221 235 253 198 c 0,6,7
 309 132 309 132 419 132 c 0,8,9
 536 132 536 132 607 202 c 0,10,11
 680 271 680 271 680 362 c 0,12,13
 680 395 680 395 664 433 c 0,14,15
 636 506 636 506 597 535 c 0,16,17
 543 574 543 574 447 574 c 2,18,-1
 382 574 l 2,19,20
 373 574 373 574 320 559 c 0,21,22
 294 550 294 550 276 545 c 128,-1,23
 258 540 258 540 248 536 c 0,24,25
 237 533 237 533 225 506.5 c 128,-1,26
 213 480 213 480 193 469 c 1,1,-1
188 1312 m 1,27,-1
 187 598 l 1,28,29
 174 628 174 628 259 653 c 0,30,31
 345 680 345 680 439 680 c 1,32,-1
 489 686 l 1,33,-1
 1086 686 l 1,34,-1
 1084 531 l 1,35,-1
 731 531 l 1,36,37
 712 536 712 536 718 535 c 0,38,39
 745 523 745 523 767 475 c 0,40,41
 793 410 793 410 795 359 c 0,42,43
 799 216 799 216 680 118 c 0,44,45
 565 20 565 20 422 20 c 0,46,47
 242 20 242 20 152 103 c 0,48,49
 36 212 36 212 34 477 c 2,50,-1
 30 1329 l 1,51,-1
 188 1312 l 1,27,-1
EndSplineSet
EndChar

StartChar: uacute
Encoding: 250 250 176
AltUni2: 0009ef.ffffffff.0
Width: 1050
GlyphClass: 2
Flags: W
LayerCount: 2
Fore
SplineSet
331 1290 m 1,0,1
 854 948 854 948 998 745.5 c 128,-1,2
 1142 543 1142 543 1062 366.5 c 128,-1,3
 982 190 982 190 742 83.5 c 128,-1,4
 502 -23 502 -23 491 -2 c 1,5,-1
 406 105 l 1,6,7
 641 212 641 212 801 340 c 1,8,9
 598 553 598 553 443 553 c 128,-1,10
 288 553 288 553 117 372 c 1,11,-1
 0 436 l 1,12,13
 203 649 203 649 283 676 c 128,-1,14
 363 703 363 703 491 681.5 c 128,-1,15
 619 660 619 660 929 436 c 1,16,17
 726 831 726 831 624.5 916.5 c 128,-1,18
 523 1002 523 1002 256 1183 c 1,19,-1
 331 1290 l 1,0,1
EndSplineSet
EndChar

StartChar: uni09F0
Encoding: 2544 2544 177
Width: 1050
GlyphClass: 2
Flags: W
LayerCount: 2
Fore
SplineSet
838 1140 m 1,0,-1
 838 30 l 1,1,-1
 703 20 l 1,2,-1
 76 525 l 1,3,-1
 60 635 l 1,4,-1
 679 1140 l 1,5,-1
 838 1140 l 1,0,-1
612 885 m 1,6,-1
 284 607 l 1,7,-1
 293 545 l 1,8,-1
 621 262 l 1,9,-1
 691 267 l 1,10,-1
 691 890 l 1,11,-1
 612 885 l 1,6,-1
20 1330 m 1,12,-1
 20 1180 l 1,13,-1
 1068 1170 l 1,14,-1
 1070 1330 l 1,15,-1
 20 1330 l 1,12,-1
316 767 m 1,16,-1
 422 910 l 1,17,-1
 845 459 l 1,18,-1
 738 301 l 1,19,-1
 316 767 l 1,16,-1
EndSplineSet
EndChar

StartChar: uni09F1
Encoding: 2545 2545 178
Width: 1050
GlyphClass: 2
Flags: W
LayerCount: 2
Fore
SplineSet
846 1170 m 1,0,-1
 846 60 l 1,1,-1
 710 50 l 1,2,-1
 77 555 l 1,3,-1
 60 665 l 1,4,-1
 685 1170 l 1,5,-1
 846 1170 l 1,0,-1
618 885 m 1,6,-1
 287 607 l 1,7,-1
 296 545 l 1,8,-1
 626 262 l 1,9,-1
 698 267 l 1,10,-1
 698 890 l 1,11,-1
 618 885 l 1,6,-1
20 1330 m 1,12,-1
 20 1180 l 1,13,-1
 1078 1170 l 1,14,-1
 1080 1330 l 1,15,-1
 20 1330 l 1,12,-1
22 137 m 1,16,-1
 120 311 l 1,17,-1
 634 -100 l 1,18,-1
 536 -290 l 1,19,-1
 22 137 l 1,16,-1
EndSplineSet
EndChar

StartChar: uni09FA
Encoding: 2554 2554 179
Width: 1050
GlyphClass: 2
Flags: W
LayerCount: 2
Fore
SplineSet
634 1239 m 1,0,-1
 513 1120 l 1,1,-1
 393 1239 l 1,2,-1
 513 1360 l 1,3,-1
 634 1239 l 1,0,-1
1075 1351 m 1,4,5
 1075 1102 1075 1102 935 945 c 0,6,7
 788 781 788 781 540 781 c 256,8,9
 292 781 292 781 146 945 c 0,10,11
 4 1102 4 1102 4 1351 c 1,12,-1
 179 1351 l 1,13,14
 179 1173 179 1173 271 1065 c 0,15,16
 367 951 367 951 539 951 c 0,17,18
 712 951 712 951 808 1065 c 0,19,20
 900 1173 900 1173 900 1351 c 1,21,-1
 1075 1351 l 1,4,5
618 497 m 1024,22,-1
EndSplineSet
EndChar

StartChar: bnja_u09CD_bnnya.zz01
Encoding: 65538 -1 180
Width: 1050
GlyphClass: 2
Flags: W
LayerCount: 2
Fore
SplineSet
352 1148 m 1,0,-1
 352 541 l 1,1,2
 537 618 537 618 579.5 424.5 c 128,-1,3
 622 231 622 231 525 204 c 128,-1,4
 428 177 428 177 425 161.5 c 128,-1,5
 422 146 422 146 46 630 c 1,6,-1
 42 422 l 1,7,8
 380 11 380 11 526 14.5 c 128,-1,9
 672 18 672 18 693.5 105.5 c 128,-1,10
 715 193 715 193 685 395.5 c 128,-1,11
 655 598 655 598 589 641.5 c 128,-1,12
 523 685 523 685 437 685 c 1,13,-1
 437 1158 l 1,14,-1
 359 1158 l 1,15,-1
 352 1148 l 1,0,-1
10 1320 m 1,16,-1
 10 1168 l 1,17,-1
 1068 1158 l 1,18,-1
 1070 1320 l 1,19,-1
 10 1320 l 1,16,-1
845.5 1002 m 128,-1,21
 873 1028 873 1028 917.5 983 c 128,-1,22
 962 938 962 938 949.5 891.5 c 128,-1,23
 937 845 937 845 814 808 c 1,24,-1
 823 606 l 1,25,26
 1030 478 1030 478 1026.5 388.5 c 128,-1,27
 1023 299 1023 299 940.5 275.5 c 128,-1,28
 858 252 858 252 760 311 c 128,-1,29
 662 370 662 370 676 378 c 1,30,-1
 654 239 l 1,31,32
 845 87 845 87 940.5 128.5 c 128,-1,33
 1036 170 1036 170 1060.5 283 c 128,-1,34
 1085 396 1085 396 1053.5 518 c 128,-1,35
 1022 640 1022 640 908 639 c 1,36,-1
 912 744 l 1,37,38
 1044 776 1044 776 1056 859 c 128,-1,39
 1068 942 1068 942 1026 1013.5 c 128,-1,40
 984 1085 984 1085 891 1104.5 c 128,-1,41
 798 1124 798 1124 658 1007 c 1,42,-1
 677 871 l 1,43,20
 818 976 818 976 845.5 1002 c 128,-1,21
438 1056 m 1,44,-1
 562 1036 l 1,45,-1
 643 1015 l 1,46,-1
 681 883 l 1,47,-1
 692 457 l 1,48,-1
 632 569 l 1,49,-1
 632 822 l 1,50,-1
 557 934 l 1,51,-1
 438 934 l 1,52,-1
 438 1056 l 1,44,-1
EndSplineSet
Ligature2: "'akhn' Akhand in Bengali lookup 0 subtable" bnja u09CD bnnya
EndChar

StartChar: bnka_u09CD_bnssa.zz01
Encoding: 65539 -1 181
Width: 1050
GlyphClass: 2
Flags: W
LayerCount: 2
Fore
SplineSet
199 530 m 1,0,-1
 229 677 l 1,1,2
 304 743 304 743 366 748 c 0,3,4
 445 753 445 753 475 650 c 0,5,6
 505 546 505 546 488 415 c 128,-1,7
 471 284 471 284 413 165 c 0,8,9
 392 124 392 124 375 101 c 1,10,-1
 344 209 l 1,11,12
 363 226 363 226 381 264 c 0,13,14
 449 402 449 402 413 528 c 0,15,16
 381 636 381 636 199 530 c 1,0,-1
588 1203 m 1,17,-1
 536 1233 l 1,18,19
 496 1166 496 1166 478 1089 c 0,20,21
 455 990 455 990 478 903 c 256,22,23
 501 816 501 816 545 777 c 128,-1,24
 589 738 589 738 640 758 c 0,25,26
 657 765 657 765 669 777 c 1,27,-1
 645 867 l 1,28,29
 635 851 635 851 619 845 c 0,30,31
 559 822 559 822 531 927 c 0,32,33
 508 1017 508 1017 588 1203 c 1,17,-1
40 1002 m 1,34,-1
 70 1149 l 1,35,36
 145 1216 145 1216 207 1221 c 0,37,38
 286 1226 286 1226 316 1122 c 0,39,40
 346 1019 346 1019 329 887.5 c 128,-1,41
 312 756 312 756 254 638 c 0,42,43
 233 597 233 597 216 573 c 1,44,-1
 185 681 l 1,45,46
 204 699 204 699 221 736 c 0,47,48
 289 875 289 875 254 1001 c 0,49,50
 222 1109 222 1109 40 1002 c 1,34,-1
1053 1228 m 1,51,-1
 757 1230 l 1,52,-1
 757 70 l 1,53,-1
 660 70 l 1,54,-1
 660 270 l 1,55,-1
 489 362 l 1,56,-1
 494 535 l 1,57,-1
 660 440 l 1,58,-1
 660 1230 l 1,59,-1
 1 1240 l 1,60,-1
 -1 1328 l 1,61,-1
 1055 1333 l 1,62,-1
 1053 1228 l 1,51,-1
761 789 m 1,63,-1
 764 950 l 1,64,65
 824 1047 824 1047 883 1075 c 0,66,67
 957 1111 957 1111 1004 1017 c 0,68,69
 1052 923 1052 923 1059 783 c 128,-1,70
 1066 643 1066 643 1031 500 c 0,71,72
 1019 451 1019 451 1007 420 c 1,73,-1
 958 518 l 1,74,75
 972 543 972 543 983 588 c 0,76,77
 1023 755 1023 755 966 869 c 0,78,79
 917 967 917 967 761 789 c 1,63,-1
EndSplineSet
Ligature2: "'akhn' Akhand in Bengali lookup 0 subtable" bnka u09CD bnssa
EndChar

StartChar: bnha_u09CD_bnma.zz01
Encoding: 65540 -1 182
Width: 1050
GlyphClass: 2
Flags: W
LayerCount: 2
Fore
SplineSet
168 460 m 1,0,-1
 199 607 l 1,1,2
 279 673 279 673 344 678 c 0,3,4
 427 683 427 683 459 580 c 0,5,6
 491 476 491 476 473 345 c 128,-1,7
 455 214 455 214 393 95 c 0,8,9
 372 54 372 54 353 31 c 1,10,-1
 321 139 l 1,11,12
 340 156 340 156 360 194 c 0,13,14
 431 332 431 332 393 458 c 0,15,16
 360 566 360 566 168 460 c 1,0,-1
578 1133 m 1,17,-1
 523 1163 l 1,18,19
 481 1096 481 1096 462 1019 c 0,20,21
 438 920 438 920 462 833 c 256,22,23
 486 746 486 746 532 707 c 128,-1,24
 578 668 578 668 632 688 c 0,25,26
 651 695 651 695 663 707 c 1,27,-1
 638 797 l 1,28,29
 627 781 627 781 610 775 c 0,30,31
 548 752 548 752 518 857 c 0,32,33
 493 947 493 947 578 1133 c 1,17,-1
0 932 m 1,34,-1
 32 1079 l 1,35,36
 111 1146 111 1146 176 1151 c 0,37,38
 259 1156 259 1156 291 1052 c 0,39,40
 323 949 323 949 305 817.5 c 128,-1,41
 287 686 287 686 226 568 c 0,42,43
 204 527 204 527 186 503 c 1,44,-1
 153 611 l 1,45,46
 173 629 173 629 191 666 c 0,47,48
 263 805 263 805 226 931 c 0,49,50
 192 1039 192 1039 0 932 c 1,34,-1
859 1160 m 1,51,-1
 755 1160 l 1,52,-1
 755 0 l 1,53,-1
 653 0 l 1,54,-1
 653 200 l 1,55,-1
 473 292 l 1,56,-1
 479 465 l 1,57,-1
 653 370 l 1,58,-1
 653 1160 l 1,59,-1
 581 1160 l 1,60,-1
 581 1320 l 1,61,-1
 859 1325 l 1,62,-1
 859 1160 l 1,51,-1
599 1330 m 1,63,-1
 599 1170 l 1,64,-1
 -10 1180 l 1,65,-1
 -10 1330 l 1,66,-1
 599 1330 l 1,63,-1
756 908 m 1,67,-1
 1050 909 l 1,68,-1
 1050 83 l 1,69,-1
 969 70 l 1,70,-1
 969 744 l 1,71,-1
 756 744 l 1,72,-1
 756 908 l 1,67,-1
EndSplineSet
Ligature2: "'akhn' Akhand in Bengali lookup 0 subtable" bnha u09CD bnma
EndChar

StartChar: bnta_u09CD_bnta.zz01
Encoding: 65541 -1 183
Width: 1050
GlyphClass: 2
Flags: W
LayerCount: 2
Fore
SplineSet
20 1280 m 1,0,-1
 20 1142 l 1,1,-1
 1039 1132 l 1,2,-1
 1040 1280 l 1,3,-1
 20 1280 l 1,0,-1
72 995 m 1,4,-1
 159 913 l 1,5,6
 298 984 298 984 400.5 1005 c 128,-1,7
 503 1026 503 1026 617.5 983.5 c 128,-1,8
 732 941 732 941 776.5 895.5 c 128,-1,9
 821 850 821 850 816.5 793.5 c 128,-1,10
 812 737 812 737 781.5 710 c 128,-1,11
 751 683 751 683 696 653.5 c 128,-1,12
 641 624 641 624 571.5 616 c 128,-1,13
 502 608 502 608 433 600 c 1,14,-1
 435 479 l 1,15,16
 546 483 546 483 600 466 c 128,-1,17
 654 449 654 449 700 421.5 c 128,-1,18
 746 394 746 394 763 359 c 128,-1,19
 780 324 780 324 788.5 278.5 c 128,-1,20
 797 233 797 233 754.5 191 c 128,-1,21
 712 149 712 149 638 135.5 c 128,-1,22
 564 122 564 122 474 116.5 c 128,-1,23
 384 111 384 111 102 208 c 1,24,-1
 27 125 l 1,25,26
 194 43 194 43 270 19 c 128,-1,27
 346 -5 346 -5 450.5 -24.5 c 128,-1,28
 555 -44 555 -44 691.5 -15 c 128,-1,29
 828 14 828 14 885.5 85.5 c 128,-1,30
 943 157 943 157 965 201.5 c 128,-1,31
 987 246 987 246 986.5 274 c 128,-1,32
 986 302 986 302 956 354 c 128,-1,33
 926 406 926 406 885.5 434 c 128,-1,34
 845 462 845 462 729 532 c 1,35,36
 850 593 850 593 892.5 635 c 128,-1,37
 935 677 935 677 957 721 c 128,-1,38
 979 765 979 765 976.5 830 c 128,-1,39
 974 895 974 895 918.5 949 c 128,-1,40
 863 1003 863 1003 800.5 1049 c 128,-1,41
 738 1095 738 1095 646.5 1110.5 c 128,-1,42
 555 1126 555 1126 450 1118 c 128,-1,43
 345 1110 345 1110 271 1097 c 128,-1,44
 197 1084 197 1084 72 995 c 1,4,-1
EndSplineSet
Ligature2: "'akhn' Akhand in Bengali lookup 0 subtable" bnta u09CD bnta
EndChar

StartChar: halfka
Encoding: 65542 -1 184
Width: 1050
GlyphClass: 2
Flags: W
LayerCount: 2
Fore
SplineSet
20 1330 m 1,0,-1
 20 1180 l 1,1,-1
 1059 1170 l 1,2,-1
 1060 1330 l 1,3,-1
 20 1330 l 1,0,-1
639 816 m 1,4,-1
 642 927 l 1,5,6
 718 994 718 994 791 1013 c 0,7,8
 883 1038 883 1038 943 973 c 0,9,10
 1002 908 1002 908 1011 812 c 128,-1,11
 1020 716 1020 716 976 618 c 0,12,13
 961 584 961 584 945 562 c 1,14,-1
 884 630 l 1,15,16
 903 647 903 647 916 678 c 0,17,18
 966 793 966 793 895 871 c 0,19,20
 834 939 834 939 639 816 c 1,4,-1
668 1170 m 1,21,-1
 668 407 l 1,22,-1
 552 400 l 1,23,-1
 14 747 l 1,24,-1
 0 823 l 1,25,-1
 532 1170 l 1,26,-1
 668 1170 l 1,21,-1
464 965 m 1,27,-1
 183 774 l 1,28,-1
 190 731 l 1,29,-1
 471 536 l 1,30,-1
 532 540 l 1,31,-1
 532 968 l 1,32,-1
 464 965 l 1,27,-1
EndSplineSet
Ligature2: "'half' Half Forms in Bengali lookup 3 subtable" bnka u09CD
EndChar

StartChar: bnkha_u09CD.zz04
Encoding: 65543 -1 185
Width: 1050
GlyphClass: 2
Flags: W
LayerCount: 2
Fore
SplineSet
598 1182 m 1,0,-1
 724 1116 l 1,1,-1
 381 839 l 1,2,-1
 393 784 l 1,3,-1
 881 531 l 1,4,-1
 933 536 l 1,5,-1
 1105 392 l 1,6,-1
 935 385 l 1,7,-1
 227 751 l 1,8,-1
 208 831 l 1,9,-1
 515 1054 l 1,10,11
 444 1015 444 1015 260 1003 c 1,12,13
 146 1048 146 1048 113 1125 c 128,-1,14
 80 1202 80 1202 134 1287 c 0,15,16
 154 1316 154 1316 176 1335 c 1,17,-1
 293 1288 l 1,18,19
 267 1273 267 1273 249 1246 c 0,20,21
 185 1146 185 1146 320 1091 c 1,22,23
 510 1102 510 1102 598 1182 c 1,0,-1
EndSplineSet
Ligature2: "'half' Half Forms in Bengali lookup 3 subtable" bnkha u09CD
EndChar

StartChar: bnga_u09CD.zz04
Encoding: 65544 -1 186
Width: 1050
GlyphClass: 2
Flags: W
LayerCount: 2
Fore
SplineSet
518 1315 m 1,0,1
 404 1309 404 1309 289 1320.5 c 128,-1,2
 174 1332 174 1332 95.5 1266.5 c 128,-1,3
 17 1201 17 1201 9.5 1164.5 c 128,-1,4
 2 1128 2 1128 23.5 1095.5 c 128,-1,5
 45 1063 45 1063 88 1023.5 c 128,-1,6
 131 984 131 984 220.5 915.5 c 128,-1,7
 310 847 310 847 270.5 792.5 c 128,-1,8
 231 738 231 738 -5 772 c 1,9,-1
 9 645 l 1,10,11
 310 598 310 598 385.5 702.5 c 128,-1,12
 461 807 461 807 443 841.5 c 128,-1,13
 425 876 425 876 396 908 c 128,-1,14
 367 940 367 940 317 987.5 c 128,-1,15
 267 1035 267 1035 209.5 1073 c 128,-1,16
 152 1111 152 1111 152 1146 c 128,-1,17
 152 1181 152 1181 195.5 1201 c 128,-1,18
 239 1221 239 1221 318 1211 c 128,-1,19
 397 1201 397 1201 518 1193 c 1,20,-1
 518 1315 l 1,0,1
998 1216 m 1,21,-1
 819 1216 l 1,22,-1
 819 520 l 1,23,-1
 643 520 l 1,24,-1
 643 1216 l 1,25,-1
 518 1216 l 1,26,-1
 518 1312 l 1,27,-1
 998 1315 l 1,28,-1
 998 1216 l 1,21,-1
EndSplineSet
Ligature2: "'half' Half Forms in Bengali lookup 3 subtable" bnga u09CD
EndChar

StartChar: bngha_u09CD.zz04
Encoding: 65545 -1 187
Width: 1050
GlyphClass: 2
Flags: W
LayerCount: 2
Fore
SplineSet
697 201 m 1,0,1
 473 218 473 218 398 260.5 c 128,-1,2
 323 303 323 303 304 369.5 c 128,-1,3
 285 436 285 436 371 501 c 0,4,5
 415 534 415 534 468.5 542.5 c 128,-1,6
 522 551 522 551 507 551 c 1,7,-1
 519 681 l 1,8,-1
 432 688 l 2,9,10
 365 690 365 690 340 739.5 c 128,-1,11
 315 789 315 789 315 828 c 0,12,13
 315 898 315 898 375 953 c 128,-1,14
 435 1008 435 1008 556 1153 c 1,15,-1
 382 1158 l 1,16,-1
 359 1152 l 1,17,18
 89 973 89 973 89 826 c 0,19,20
 89 736 89 736 212 671 c 0,21,22
 255 647 255 647 289 626 c 128,-1,23
 323 605 323 605 384 598 c 1,24,25
 310 575 310 575 267 548 c 128,-1,26
 224 521 224 521 179 483 c 0,27,28
 89 408 89 408 89 325 c 0,29,30
 89 209 89 209 250.5 144.5 c 128,-1,31
 412 80 412 80 847 80 c 1,32,-1
 844 1151 l 1,33,-1
 1080 1153 l 1,34,-1
 1069 1216 l 1,35,-1
 1070 1290 l 1,36,-1
 30 1290 l 1,37,-1
 30 1149 l 1,38,-1
 704 1154 l 1,39,-1
 697 201 l 1,0,1
EndSplineSet
Ligature2: "'half' Half Forms in Bengali lookup 3 subtable" bngha u09CD
EndChar

StartChar: bnnga_u09CD.zz04
Encoding: 65546 -1 188
Width: 1050
GlyphClass: 2
Flags: W
LayerCount: 2
Fore
SplineSet
506 1283 m 1,0,1
 555 1276 555 1276 561 1215 c 1,2,3
 561 1160 561 1160 525 1140 c 1,4,5
 494 1153 494 1153 481 1201 c 1,6,7
 488 1242 488 1242 506 1283 c 1,0,1
424 1086 m 1,8,9
 598 994 598 994 625.5 1072 c 128,-1,10
 653 1150 653 1150 650 1209.5 c 128,-1,11
 647 1269 647 1269 638 1299.5 c 128,-1,12
 629 1330 629 1330 570.5 1357 c 128,-1,13
 512 1384 512 1384 472.5 1363.5 c 128,-1,14
 433 1343 433 1343 402 1304 c 128,-1,15
 371 1265 371 1265 359 1205 c 1,16,-1
 114 1330 l 1,17,-1
 114 1222 l 1,18,-1
 347 1133 l 1,19,-1
 213 842 l 1,20,21
 439 859 439 859 497 788.5 c 128,-1,22
 555 718 555 718 518 632.5 c 128,-1,23
 481 547 481 547 405 545 c 128,-1,24
 329 543 329 543 19 812 c 1,25,-1
 10 709 l 1,26,27
 292 465 292 465 395.5 481.5 c 128,-1,28
 499 498 499 498 576 597 c 128,-1,29
 653 696 653 696 616.5 754 c 128,-1,30
 580 812 580 812 512.5 873.5 c 128,-1,31
 445 935 445 935 347 912 c 1,32,-1
 424 1086 l 1,8,9
EndSplineSet
Ligature2: "'half' Half Forms in Bengali lookup 3 subtable" bnnga u09CD
EndChar

StartChar: bnca_u09CD.zz04
Encoding: 65547 -1 189
Width: 1050
GlyphClass: 2
Flags: W
LayerCount: 2
Fore
SplineSet
20 1320 m 1,0,-1
 20 1177 l 1,1,-1
 1088 1168 l 1,2,-1
 1090 1320 l 1,3,-1
 20 1320 l 1,0,-1
424 1177 m 1,4,-1
 433 813 l 1,5,-1
 498 742 l 1,6,7
 486 706 486 706 511.5 677 c 128,-1,8
 537 648 537 648 573 629 c 1,9,10
 705 596 705 596 784 631 c 0,11,12
 864 666 864 666 864 711 c 0,13,14
 864 728 864 728 847 747 c 0,15,16
 815 784 815 784 772 798 c 1,17,18
 578 801 578 801 568 799 c 0,19,20
 554 798 554 798 541.5 784.5 c 128,-1,21
 529 771 529 771 507 765 c 1,22,-1
 502 756 l 1,23,-1
 448 820 l 1,24,25
 571 901 571 901 828 882 c 1,26,27
 921 801 921 801 960 756 c 0,28,29
 989 724 989 724 966 699 c 1,30,31
 996 627 996 627 864 577 c 1,32,33
 694 438 694 438 461 570 c 1,34,35
 333 624 333 624 329 757 c 2,36,-1
 326 1185 l 1,37,-1
 424 1177 l 1,4,-1
EndSplineSet
Ligature2: "'half' Half Forms in Bengali lookup 3 subtable" bnca u09CD
EndChar

StartChar: bncha_u09CD.zz04
Encoding: 65548 -1 190
Width: 1050
GlyphClass: 2
Flags: W
LayerCount: 2
Fore
SplineSet
250 1189 m 1,0,-1
 259 825 l 1,1,2
 311 845 311 845 353 879 c 128,-1,3
 395 913 395 913 690 879 c 1,4,5
 742 813 742 813 781 768 c 0,6,7
 809 736 809 736 787 711 c 1,8,9
 816 639 816 639 686 589 c 1,10,11
 517 450 517 450 286 582 c 1,12,13
 160 636 160 636 156 769 c 2,14,-1
 153 1197 l 1,15,-1
 250 1189 l 1,0,-1
332 765 m 1,16,-1
 327 756 l 1,17,-1
 323 742 l 2,18,19
 312 706 312 706 337 677 c 128,-1,20
 362 648 362 648 397 629 c 1,21,22
 528 596 528 596 606 631 c 0,23,24
 686 666 686 666 686 711 c 0,25,26
 686 728 686 728 669 747 c 0,27,28
 637 784 637 784 594 798 c 1,29,30
 403 801 403 801 392 799 c 0,31,32
 379 798 379 798 366.5 784.5 c 128,-1,33
 354 771 354 771 332 765 c 1,16,-1
20 1280 m 1,34,-1
 20 1137 l 1,35,-1
 1068 1128 l 1,36,-1
 1070 1280 l 1,37,-1
 20 1280 l 1,34,-1
740 840 m 1,38,39
 770 952 770 952 845 956.5 c 128,-1,40
 920 961 920 961 946.5 863 c 128,-1,41
 973 765 973 765 967.5 695 c 128,-1,42
 962 625 962 625 926 569 c 128,-1,43
 890 513 890 513 405 414 c 1,44,-1
 418 189 l 1,45,-1
 1022 36 l 1,46,-1
 1062 139 l 1,47,-1
 483 292 l 1,48,-1
 489 321 l 1,49,-1
 836 405 l 1,50,51
 914 410 914 410 970.5 480 c 128,-1,52
 1027 550 1027 550 1042 610.5 c 128,-1,53
 1057 671 1057 671 1054 732 c 128,-1,54
 1051 793 1051 793 1030 868 c 128,-1,55
 1009 943 1009 943 973 994.5 c 128,-1,56
 937 1046 937 1046 857 1055 c 128,-1,57
 777 1064 777 1064 651 887 c 1,58,-1
 740 840 l 1,38,39
641 -94 m 1,59,-1
 733 -16 l 1,60,-1
 979 -392 l 1,61,-1
 885 -480 l 1,62,-1
 641 -94 l 1,59,-1
EndSplineSet
Ligature2: "'half' Half Forms in Bengali lookup 3 subtable" bncha u09CD
EndChar

StartChar: bnja_u09CD.zz04
Encoding: 65549 -1 191
Width: 1050
GlyphClass: 2
Flags: W
LayerCount: 2
Fore
SplineSet
434 1208 m 1,0,-1
 434 813 l 1,1,2
 664 863 664 863 717 737 c 128,-1,3
 770 611 770 611 649 593.5 c 128,-1,4
 528 576 528 576 525 566 c 128,-1,5
 522 556 522 556 55 871 c 1,6,-1
 50 736 l 1,7,8
 469 468 469 468 650 470.5 c 128,-1,9
 831 473 831 473 858 529.5 c 128,-1,10
 885 586 885 586 848 718 c 128,-1,11
 811 850 811 850 728.5 878.5 c 128,-1,12
 646 907 646 907 540 907 c 1,13,-1
 540 1214 l 1,14,-1
 442 1214 l 1,15,-1
 434 1208 l 1,0,-1
10 1320 m 1,16,-1
 10 1189 l 1,17,-1
 1058 1180 l 1,18,-1
 1060 1320 l 1,19,-1
 10 1320 l 1,16,-1
527 1082 m 1,20,21
 881 1043 881 1043 1152 1102 c 1,22,23
 1138 788 1138 788 1160.5 708 c 128,-1,24
 1183 628 1183 628 1333 551 c 1,25,-1
 1273 487 l 1,26,27
 1122 570 1122 570 1092 621 c 128,-1,28
 1062 672 1062 672 1040 980 c 1,29,30
 859 973 859 973 534 972 c 1,31,-1
 527 1082 l 1,20,21
EndSplineSet
Ligature2: "'half' Half Forms in Bengali lookup 3 subtable" bnja u09CD
EndChar

StartChar: bnjha_u09CD.zz04
Encoding: 65550 -1 192
Width: 1050
GlyphClass: 2
Flags: W
LayerCount: 2
Fore
SplineSet
20 1332 m 1,0,-1
 20 1234 l 1,1,-1
 858 1227 l 1,2,-1
 859 1332 l 1,3,-1
 20 1332 l 1,0,-1
1100 1227 m 1,4,-1
 985 1227 l 1,5,-1
 985 470 l 1,6,-1
 873 470 l 1,7,-1
 873 601 l 1,8,-1
 675 661 l 1,9,-1
 681 774 l 1,10,-1
 873 712 l 1,11,-1
 873 1227 l 1,12,-1
 793 1227 l 1,13,-1
 793 1332 l 1,14,-1
 1100 1335 l 1,15,-1
 1100 1227 l 1,4,-1
673 1208 m 1,16,-1
 673 483 l 1,17,-1
 566 477 l 1,18,-1
 65 806 l 1,19,-1
 52 878 l 1,20,-1
 547 1208 l 1,21,-1
 673 1208 l 1,16,-1
493 1041 m 1,22,-1
 231 860 l 1,23,-1
 238 819 l 1,24,-1
 500 635 l 1,25,-1
 556 638 l 1,26,-1
 556 1044 l 1,27,-1
 493 1041 l 1,22,-1
799 454 m 1,28,-1
 882 514 l 1,29,-1
 1105 227 l 1,30,-1
 1020 160 l 1,31,-1
 799 454 l 1,28,-1
EndSplineSet
Ligature2: "'half' Half Forms in Bengali lookup 3 subtable" bnjha u09CD
EndChar

StartChar: bnnya_u09CD.zz04
Encoding: 65551 -1 193
Width: 1050
GlyphClass: 2
Flags: W
LayerCount: 2
Fore
SplineSet
763 1090 m 1,0,-1
 762 826 l 1,1,2
 710 823 710 823 793 794 c 128,-1,3
 876 765 876 765 945.5 776.5 c 128,-1,4
 1015 788 1015 788 1018 831.5 c 128,-1,5
 1021 875 1021 875 847 937 c 1,6,-1
 839 1035 l 1,7,8
 942 1053 942 1053 952.5 1075.5 c 128,-1,9
 963 1098 963 1098 926 1119.5 c 128,-1,10
 889 1141 889 1141 865.5 1128.5 c 128,-1,11
 842 1116 842 1116 763 1090 c 1,0,-1
712 1113 m 1,12,13
 830 1170 830 1170 908.5 1160.5 c 128,-1,14
 987 1151 987 1151 1022.5 1116 c 128,-1,15
 1058 1081 1058 1081 1047.5 1041 c 128,-1,16
 1037 1001 1037 1001 926 985 c 1,17,-1
 923 934 l 1,18,19
 1019 935 1019 935 1045.5 876 c 128,-1,20
 1072 817 1072 817 1051.5 762 c 128,-1,21
 1031 707 1031 707 950.5 687 c 128,-1,22
 870 667 870 667 709 741 c 1,23,-1
 712 1113 l 1,12,13
261 1227 m 1,24,-1
 333 1129 l 1,25,26
 437 1203 437 1203 489.5 1209 c 128,-1,27
 542 1215 542 1215 611 1142 c 1,28,-1
 605 629 l 1,29,30
 522 739 522 739 356 770 c 1,31,32
 127 611 127 611 121 629 c 1,33,-1
 0 751 l 1,34,-1
 0 648 l 1,35,-1
 89 550 l 1,36,37
 153 556 153 556 264.5 614 c 128,-1,38
 376 672 376 672 439.5 653.5 c 128,-1,39
 503 635 503 635 528.5 595.5 c 128,-1,40
 554 556 554 556 707 550 c 1,41,-1
 713 1190 l 1,42,43
 668 1276 668 1276 611 1300.5 c 128,-1,44
 554 1325 554 1325 458.5 1312.5 c 128,-1,45
 363 1300 363 1300 261 1227 c 1,24,-1
EndSplineSet
Ligature2: "'half' Half Forms in Bengali lookup 3 subtable" bnnya u09CD
EndChar

StartChar: bntta_u09CD.zz04
Encoding: 65552 -1 194
Width: 1050
GlyphClass: 2
Flags: W
LayerCount: 2
Fore
SplineSet
1080 1340 m 1,0,-1
 1078 1188 l 1,1,-1
 20 1197 l 1,2,-1
 20 1340 l 1,3,-1
 1080 1340 l 1,0,-1
652 1189 m 1,4,-1
 653 734 l 1,5,6
 740 667 740 667 794 662 c 1,7,8
 847 639 847 639 947 639 c 1,9,10
 1028 634 1028 634 1105 664 c 1,11,12
 1177 715 1177 715 1160 756 c 1,13,14
 1160 771 1160 771 1146 788 c 0,15,16
 1119 819 1119 819 1083 832 c 2,17,-1
 1034 850 l 1,18,-1
 1087 919 l 1,19,-1
 1177 889 l 2,20,21
 1249 863 1249 863 1282 820 c 0,22,23
 1308 789 1308 789 1310 765 c 0,24,25
 1314 697 1314 697 1215 626 c 1,26,27
 1082 555 1082 555 916 568 c 1,28,29
 745 568 745 568 658 608 c 0,30,31
 546 660 546 660 543 787 c 2,32,-1
 540 1197 l 1,33,-1
 652 1189 l 1,4,-1
530 1330 m 1,34,35
 620 1460 620 1460 565 1530 c 128,-1,36
 510 1600 510 1600 410 1655 c 128,-1,37
 310 1710 310 1710 190 1780 c 1,38,-1
 270 1880 l 1,39,40
 420 1810 420 1810 510 1750 c 128,-1,41
 600 1690 600 1690 670 1610 c 128,-1,42
 740 1530 740 1530 720 1460 c 128,-1,43
 700 1390 700 1390 640 1330 c 1,44,-1
 530 1330 l 1,34,35
EndSplineSet
Ligature2: "'half' Half Forms in Bengali lookup 3 subtable" bntta u09CD
EndChar

StartChar: bnttha_u09CD.zz04
Encoding: 65553 -1 195
Width: 1050
GlyphClass: 2
Flags: W
LayerCount: 2
Fore
SplineSet
634 1161 m 1,0,1
 766 993 766 993 832 876.5 c 128,-1,2
 898 760 898 760 955 643.5 c 128,-1,3
 1012 527 1012 527 1003.5 429 c 128,-1,4
 995 331 995 331 951 205 c 128,-1,5
 907 79 907 79 819 42 c 128,-1,6
 731 5 731 5 620.5 0 c 128,-1,7
 510 -5 510 -5 448 9 c 128,-1,8
 386 23 386 23 302.5 51 c 128,-1,9
 219 79 219 79 219 154 c 128,-1,10
 219 229 219 229 272 303.5 c 128,-1,11
 325 378 325 378 342.5 471 c 128,-1,12
 360 564 360 564 368.5 676 c 128,-1,13
 377 788 377 788 364 904.5 c 128,-1,14
 351 1021 351 1021 228 1180 c 1,15,-1
 369 1180 l 1,16,17
 440 1068 440 1068 470.5 979.5 c 128,-1,18
 501 891 501 891 523 816.5 c 128,-1,19
 545 742 545 742 527.5 667 c 128,-1,20
 510 592 510 592 488 508 c 128,-1,21
 466 424 466 424 430.5 340.5 c 128,-1,22
 395 257 395 257 417.5 205.5 c 128,-1,23
 440 154 440 154 497 149.5 c 128,-1,24
 554 145 554 145 624.5 145 c 128,-1,25
 695 145 695 145 756.5 182 c 128,-1,26
 818 219 818 219 823 293.5 c 128,-1,27
 828 368 828 368 819 443 c 128,-1,28
 810 518 810 518 783.5 602 c 128,-1,29
 757 686 757 686 713 756 c 128,-1,30
 669 826 669 826 633.5 905 c 128,-1,31
 598 984 598 984 510 1171 c 1,32,-1
 634 1161 l 1,0,1
-20 1330 m 1,33,-1
 18 1160 l 1,34,-1
 1052 1180 l 1,35,-1
 1044 1330 l 1,36,-1
 -20 1330 l 1,33,-1
479 1347 m 1,37,38
 371 1406 371 1406 384 1475.5 c 128,-1,39
 397 1545 397 1545 446 1620.5 c 128,-1,40
 495 1696 495 1696 553 1789 c 1,41,-1
 463 1830 l 1,42,43
 385 1726 385 1726 344.5 1651 c 128,-1,44
 304 1576 304 1576 284.5 1494 c 128,-1,45
 265 1412 265 1412 303 1370 c 128,-1,46
 341 1328 341 1328 403 1307 c 1,47,-1
 479 1347 l 1,37,38
580 -130 m 1,48,-1
 701 -16 l 1,49,-1
 1030 -564 l 1,50,-1
 905 -692 l 1,51,-1
 580 -130 l 1,48,-1
EndSplineSet
Ligature2: "'half' Half Forms in Bengali lookup 3 subtable" bnttha u09CD
EndChar

StartChar: bndda_u09CD.zz04
Encoding: 65554 -1 196
Width: 1050
GlyphClass: 2
Flags: W
LayerCount: 2
Fore
SplineSet
409 1126 m 1,0,-1
 409 571 l 1,1,2
 680 711 680 711 790.5 647.5 c 128,-1,3
 901 584 901 584 837.5 467 c 128,-1,4
 774 350 774 350 643.5 346 c 128,-1,5
 513 342 513 342 94 531 c 1,6,-1
 0 455 l 1,7,8
 451 197 451 197 656.5 199.5 c 128,-1,9
 862 202 862 202 969 322 c 128,-1,10
 1076 442 1076 442 1049 596.5 c 128,-1,11
 1022 751 1022 751 872.5 829 c 128,-1,12
 723 907 723 907 565 763 c 1,13,-1
 565 1141 l 1,14,-1
 419 1133 l 1,15,-1
 409 1126 l 1,0,-1
23 1330 m 1,16,-1
 23 1154 l 1,17,-1
 1058 1142 l 1,18,-1
 1060 1330 l 1,19,-1
 23 1330 l 1,16,-1
EndSplineSet
Ligature2: "'half' Half Forms in Bengali lookup 3 subtable" bndda u09CD
EndChar

StartChar: bnddha_u09CD.zz04
Encoding: 65555 -1 197
Width: 1050
GlyphClass: 2
Flags: W
LayerCount: 2
Fore
SplineSet
20 1340 m 1,0,-1
 20 1197 l 1,1,-1
 1068 1188 l 1,2,-1
 1070 1340 l 1,3,-1
 20 1340 l 1,0,-1
527 1198 m 1,4,-1
 528 664 l 1,5,6
 581 632 581 632 634 626 c 1,7,8
 686 599 686 599 784 599 c 1,9,10
 864 593 864 593 941 628 c 1,11,12
 985 681 985 681 975 684 c 1,13,14
 975 701 975 701 960 721 c 0,15,16
 934 758 934 758 900 773 c 1,17,-1
 851 780 l 1,18,-1
 896 881 l 1,19,-1
 985 845 l 2,20,21
 1055 816 1055 816 1088 765 c 0,22,23
 1115 729 1115 729 1116 701 c 0,24,25
 1120 620 1120 620 1022 538 c 1,26,27
 920 483 920 483 760 470 c 1,28,29
 593 470 593 470 506 517 c 0,30,31
 396 578 396 578 393 727 c 2,32,-1
 390 1207 l 1,33,-1
 527 1198 l 1,4,-1
EndSplineSet
Ligature2: "'half' Half Forms in Bengali lookup 3 subtable" bnddha u09CD
EndChar

StartChar: bnnna_u09CD.zz04
Encoding: 65556 -1 198
Width: 1050
GlyphClass: 2
Flags: W
LayerCount: 2
Fore
SplineSet
1150 828 m 1,0,-1
 1145 1011 l 1,1,2
 994 1122 994 1122 849 1154 c 0,3,4
 664 1195 664 1195 547 1088 c 0,5,6
 429 981 429 981 411 821.5 c 128,-1,7
 393 662 393 662 480 499 c 0,8,9
 510 443 510 443 541 408 c 1,10,-1
 663 520 l 1,11,12
 626 548 626 548 600 599 c 0,13,14
 500 789 500 789 641 919 c 0,15,16
 763 1031 763 1031 1150 828 c 1,0,-1
EndSplineSet
Ligature2: "'half' Half Forms in Bengali lookup 3 subtable" bnnna u09CD
EndChar

StartChar: bnta_u09CD.zz04
Encoding: 65557 -1 199
Width: 1050
GlyphClass: 2
Flags: W
LayerCount: 2
Fore
SplineSet
448 960 m 1,0,-1
 347 1010 l 1,1,2
 434 1105 434 1105 565 1163 c 1,3,-1
 768 1170 l 1,4,5
 943 1040 943 1040 1030 901 c 1,6,7
 1030 698 1030 698 979 621.5 c 128,-1,8
 928 545 928 545 848 501.5 c 128,-1,9
 768 458 768 458 710 432.5 c 128,-1,10
 652 407 652 407 437.5 435.5 c 128,-1,11
 223 464 223 464 50 885 c 1,12,-1
 164 1015 l 1,13,14
 307 603 307 603 457.5 574 c 128,-1,15
 608 545 608 545 706.5 589 c 128,-1,16
 805 633 805 633 827 741 c 1,17,18
 863 778 863 778 820 923 c 1,19,20
 747 988 747 988 688 1025 c 1,21,22
 587 1040 587 1040 463 974 c 1,23,-1
 448 960 l 1,0,-1
-20 1330 m 1,24,-1
 14 1160 l 1,25,-1
 1016 1170 l 1,26,-1
 1030 1320 l 1,27,-1
 -20 1330 l 1,24,-1
EndSplineSet
Ligature2: "'half' Half Forms in Bengali lookup 3 subtable" bnta u09CD
EndChar

StartChar: bntha_u09CD.zz04
Encoding: 65558 -1 200
Width: 1050
GlyphClass: 2
Flags: W
LayerCount: 2
Fore
SplineSet
338 876 m 1,0,-1
 289 813 l 1,1,2
 236 888 236 888 214 987 c 1,3,-1
 239 1129 l 1,4,5
 354 1231 354 1231 462 1271 c 1,6,7
 604 1242 604 1242 649.5 1196 c 128,-1,8
 695 1150 695 1150 713.5 1088 c 128,-1,9
 732 1026 732 1026 741 982 c 128,-1,10
 750 938 750 938 699.5 793.5 c 128,-1,11
 649 649 649 649 499 624 c 1,12,-1
 878 515 l 1,13,-1
 877 1282 l 1,14,-1
 1020 1290 l 1,15,-1
 1012 310 l 1,16,-1
 327 484 l 1,17,-1
 259 687 l 1,18,19
 565 727 565 727 606.5 827 c 128,-1,20
 648 927 648 927 632 1001.5 c 128,-1,21
 616 1076 616 1076 544 1107 c 1,22,23
 524 1138 524 1138 417 1129 c 1,24,25
 361 1087 361 1087 327 1052 c 1,26,27
 303 984 303 984 330 889 c 1,28,-1
 338 876 l 1,0,-1
EndSplineSet
Ligature2: "'half' Half Forms in Bengali lookup 3 subtable" bntha u09CD
EndChar

StartChar: bnda_u09CD.zz04
Encoding: 65559 -1 201
Width: 1050
GlyphClass: 2
Flags: W
LayerCount: 2
Fore
SplineSet
974 350 m 1,0,-1
 974 869 l 1,1,-1
 834 870 l 1,2,-1
 611 758 l 1,3,-1
 612 1150 l 1,4,-1
 488 1160 l 1,5,-1
 486 645 l 1,6,-1
 610 636 l 1,7,-1
 836 723 l 1,8,-1
 839 356 l 1,9,-1
 974 350 l 1,0,-1
-2 1298 m 1,10,-1
 9 1150 l 1,11,-1
 1046 1150 l 1,12,-1
 1055 1295 l 1,13,-1
 -2 1298 l 1,10,-1
EndSplineSet
Ligature2: "'half' Half Forms in Bengali lookup 3 subtable" bnda u09CD
EndChar

StartChar: bndha_u09CD.zz04
Encoding: 65560 -1 202
Width: 1050
GlyphClass: 2
Flags: W
LayerCount: 2
Fore
SplineSet
788 1276 m 1,0,-1
 788 497 l 1,1,-1
 652 490 l 1,2,-1
 16 844 l 1,3,-1
 0 922 l 1,4,-1
 627 1276 l 1,5,-1
 788 1276 l 1,0,-1
551 1097 m 1,6,-1
 219 902 l 1,7,-1
 228 859 l 1,8,-1
 560 660 l 1,9,-1
 631 663 l 1,10,-1
 631 1101 l 1,11,-1
 551 1097 l 1,6,-1
600 1388 m 1,12,-1
 600 1283 l 1,13,-1
 1014 1276 l 1,14,-1
 1015 1388 l 1,15,-1
 600 1388 l 1,12,-1
600 1385 m 1,16,-1
 596 1272 l 1,17,18
 489 1204 489 1204 385 1184 c 0,19,20
 254 1159 254 1159 170 1225 c 256,21,22
 86 1291 86 1291 73.5 1389 c 128,-1,23
 61 1487 61 1487 123 1588 c 0,24,25
 144 1622 144 1622 166 1644 c 1,26,-1
 253 1575 l 1,27,28
 226 1558 226 1558 209 1526 c 0,29,30
 137 1409 137 1409 238 1329 c 0,31,32
 325 1260 325 1260 600 1385 c 1,16,-1
EndSplineSet
Ligature2: "'half' Half Forms in Bengali lookup 3 subtable" bndha u09CD
EndChar

StartChar: bnna_u09CD.zz04
Encoding: 65561 -1 203
Width: 1050
GlyphClass: 2
Flags: W
LayerCount: 2
Fore
SplineSet
1062 807 m 1,0,-1
 1058 924 l 1,1,2
 962 995 962 995 869 1015 c 0,3,4
 751 1042 751 1042 676 973 c 0,5,6
 600 905 600 905 588.5 803 c 128,-1,7
 577 701 577 701 633 596 c 0,8,9
 652 561 652 561 672 538 c 1,10,-1
 750 609 l 1,11,12
 726 628 726 628 710 660 c 0,13,14
 646 782 646 782 736 865 c 0,15,16
 814 937 814 937 1062 807 c 1,0,-1
1159 1250 m 1,17,-1
 1159 645 l 1,18,-1
 1058 640 l 1,19,-1
 1053 1160 l 1,20,-1
 1048 1250 l 1,21,-1
 1159 1250 l 1,17,-1
10 1395 m 1,22,-1
 16 1260 l 1,23,-1
 1162 1255 l 1,24,-1
 1163 1390 l 1,25,-1
 10 1395 l 1,22,-1
EndSplineSet
Ligature2: "'half' Half Forms in Bengali lookup 3 subtable" bnna u09CD
EndChar

StartChar: bnpa_u09CD.zz04
Encoding: 65562 -1 204
Width: 1050
GlyphClass: 2
Flags: W
LayerCount: 2
Fore
SplineSet
1112 1107 m 1,0,-1
 637 450 l 1,1,-1
 491 471 l 1,2,-1
 315 1146 l 1,3,-1
 422 1311 l 1,4,-1
 1085 1209 l 1,5,-1
 1112 1107 l 1,0,-1
815 1102 m 1,6,-1
 497 1149 l 1,7,-1
 475 1107 l 1,8,-1
 554 728 l 1,9,-1
 599 685 l 1,10,-1
 866 1054 l 1,11,-1
 815 1102 l 1,6,-1
EndSplineSet
Ligature2: "'half' Half Forms in Bengali lookup 3 subtable" bnpa u09CD
EndChar

StartChar: bnpha_u09CD.zz04
Encoding: 65563 -1 205
Width: 1050
GlyphClass: 2
Flags: W
LayerCount: 2
Fore
SplineSet
620 1354 m 1,0,-1
 773 1358 l 1,1,-1
 773 1208 l 1,2,-1
 -28 1201 l 1,3,-1
 -37 1351 l 1,4,-1
 620 1354 l 1,0,-1
765 1058 m 1,5,-1
 763 392 l 1,6,-1
 159 637 l 1,7,-1
 221 767 l 1,8,-1
 411 915 l 1,9,-1
 132 1238 l 1,10,-1
 370 1214 l 1,11,-1
 559 972 l 1,12,-1
 510 853 l 1,13,-1
 339 689 l 1,14,-1
 652 586 l 1,15,-1
 664 1050 l 1,16,-1
 765 1058 l 1,5,-1
665 878 m 1,17,-1
 668 995 l 1,18,19
 738 1066 738 1066 805 1086 c 0,20,21
 892 1112 892 1112 946 1044 c 0,22,23
 1001 975 1001 975 1009.5 873 c 128,-1,24
 1018 771 1018 771 978 667 c 0,25,26
 964 631 964 631 949 608 c 1,27,-1
 892 680 l 1,28,29
 909 698 909 698 922 731 c 0,30,31
 968 853 968 853 902 936 c 0,32,33
 846 1007 846 1007 665 878 c 1,17,-1
679 346 m 1,34,-1
 773 414 l 1,35,-1
 1028 86 l 1,36,-1
 931 10 l 1,37,-1
 679 346 l 1,34,-1
EndSplineSet
Ligature2: "'half' Half Forms in Bengali lookup 3 subtable" bnpha u09CD
EndChar

StartChar: bnba_u09CD.zz04
Encoding: 65564 -1 206
Width: 1050
GlyphClass: 2
Flags: W
LayerCount: 2
Fore
SplineSet
1066 1154 m 1,0,-1
 1066 438 l 1,1,-1
 958 432 l 1,2,-1
 453 758 l 1,3,-1
 440 828 l 1,4,-1
 939 1154 l 1,5,-1
 1066 1154 l 1,0,-1
885 990 m 1,6,-1
 621 810 l 1,7,-1
 628 770 l 1,8,-1
 892 588 l 1,9,-1
 948 591 l 1,10,-1
 948 993 l 1,11,-1
 885 990 l 1,6,-1
20 1330 m 1,12,-1
 20 1167 l 1,13,-1
 1068 1157 l 1,14,-1
 1070 1330 l 1,15,-1
 20 1330 l 1,12,-1
EndSplineSet
Ligature2: "'half' Half Forms in Bengali lookup 3 subtable" bnba u09CD
EndChar

StartChar: bnbha_u09CD.zz04
Encoding: 65565 -1 207
Width: 1050
GlyphClass: 2
Flags: W
LayerCount: 2
Fore
SplineSet
10 1320 m 1,0,-1
 3 1150 l 1,1,-1
 1037 1160 l 1,2,-1
 1060 1330 l 1,3,-1
 10 1320 l 1,0,-1
588 998 m 1,4,5
 490 813 490 813 574 794 c 1,6,7
 733 814 733 814 866 855 c 1,8,9
 1029 889 1029 889 983 634 c 1,10,11
 963 612 963 612 920 532.5 c 128,-1,12
 877 453 877 453 791.5 441 c 128,-1,13
 706 429 706 429 648.5 409.5 c 128,-1,14
 591 390 591 390 380.5 412 c 128,-1,15
 170 434 170 434 0 756 c 1,16,-1
 112 854 l 1,17,18
 253 540 253 540 401 518 c 128,-1,19
 549 496 549 496 645 529.5 c 128,-1,20
 741 563 741 563 784 592 c 0,21,22
 819 620 819 620 859 768 c 1,23,24
 661 619 661 619 396 711 c 1,25,26
 312 1286 312 1286 848 1042 c 1,27,-1
 788 952 l 1,28,-1
 588 998 l 1,4,5
EndSplineSet
Ligature2: "'half' Half Forms in Bengali lookup 3 subtable" bnbha u09CD
EndChar

StartChar: bnma_u09CD.zz04
Encoding: 65566 -1 208
Width: 1050
GlyphClass: 2
Flags: W
LayerCount: 2
Fore
SplineSet
1060 1170 m 1,0,-1
 1049 1180 l 1,1,-1
 1049 420 l 1,2,-1
 911 420 l 1,3,-1
 891 460 l 1,4,-1
 592 682 l 1,5,-1
 592 835 l 1,6,-1
 891 630 l 1,7,-1
 871 1190 l 1,8,-1
 16 1190 l 1,9,-1
 8 1330 l 1,10,-1
 1060 1335 l 1,11,-1
 1060 1170 l 1,0,-1
628 496 m 1024,12,-1
603 832 m 1,13,-1
 603 760 l 1,14,15
 510 574 510 574 395 581 c 0,16,17
 331 581 331 581 294 632 c 0,18,19
 260 681 260 681 260 761 c 0,20,21
 260 849 260 849 306 900 c 0,22,23
 346 943 346 943 402 943 c 1,24,-1
 531 862 l 1,25,-1
 475 772 l 1,26,-1
 412 809 l 1,27,28
 347 809 347 809 347 747 c 0,29,30
 347 720 347 720 359 701 c 128,-1,31
 371 682 371 682 392 682 c 0,32,33
 443 682 443 682 524 857 c 128,-1,34
 605 1032 605 1032 378 1184 c 1,35,-1
 512 1190 l 1,36,-1
 594 1134 l 1,37,38
 682 1032 682 1032 608 819 c 1,39,-1
 603 832 l 1,13,-1
EndSplineSet
Ligature2: "'half' Half Forms in Bengali lookup 3 subtable" bnma u09CD
EndChar

StartChar: bnya_u09CD.zz04
Encoding: 65567 -1 209
Width: 1050
GlyphClass: 2
Flags: W
LayerCount: 2
Fore
SplineSet
652 1340 m 1,0,-1
 967 1345 l 1,1,-1
 967 1180 l 1,2,-1
 850 1180 l 1,3,-1
 734 1180 l 1,4,-1
 693 1180 l 1,5,-1
 10 1185 l 1,6,-1
 10 1335 l 1,7,-1
 652 1340 l 1,0,-1
828 1180 m 1,8,-1
 828 20 l 1,9,-1
 89 356 l 1,10,-1
 165 534 l 1,11,-1
 397 737 l 1,12,-1
 56 1180 l 1,13,-1
 240 1175 l 1,14,-1
 578 815 l 1,15,-1
 518 652 l 1,16,-1
 309 427 l 1,17,-1
 692 286 l 1,18,-1
 691 1180 l 1,19,-1
 828 1180 l 1,8,-1
594 -130 m 1,20,-1
 717 -16 l 1,21,-1
 1050 -564 l 1,22,-1
 923 -692 l 1,23,-1
 594 -130 l 1,20,-1
EndSplineSet
Ligature2: "'half' Half Forms in Bengali lookup 3 subtable" bnya u09CD
EndChar

StartChar: bnra_u09CD.zz04
Encoding: 65568 -1 210
Width: 1050
GlyphClass: 2
Flags: W
LayerCount: 2
Fore
SplineSet
830 1140 m 1,0,-1
 830 30 l 1,1,-1
 696 20 l 1,2,-1
 76 525 l 1,3,-1
 60 635 l 1,4,-1
 673 1140 l 1,5,-1
 830 1140 l 1,0,-1
606 885 m 1,6,-1
 282 607 l 1,7,-1
 290 545 l 1,8,-1
 615 262 l 1,9,-1
 685 267 l 1,10,-1
 685 890 l 1,11,-1
 606 885 l 1,6,-1
20 1330 m 1,12,-1
 20 1180 l 1,13,-1
 1058 1170 l 1,14,-1
 1060 1330 l 1,15,-1
 20 1330 l 1,12,-1
296 160 m 1,16,-1
 194 32 l 1,17,-1
 280 -103 l 1,18,-1
 397 32 l 1,19,-1
 296 160 l 1,16,-1
606 -130 m 1,20,-1
 731 -16 l 1,21,-1
 1070 -564 l 1,22,-1
 941 -692 l 1,23,-1
 606 -130 l 1,20,-1
EndSplineSet
Ligature2: "'half' Half Forms in Bengali lookup 3 subtable" bnra u09CD
EndChar

StartChar: bnla_u09CD.zz04
Encoding: 65569 -1 211
Width: 1050
GlyphClass: 2
Flags: W
LayerCount: 2
Fore
SplineSet
30 1350 m 1,0,-1
 32 1180 l 1,1,-1
 1080 1180 l 1,2,-1
 1078 1350 l 1,3,-1
 30 1350 l 1,0,-1
748 649 m 1,4,-1
 769 630 l 1,5,-1
 828 769 l 1,6,7
 886 867 886 867 1070 689 c 1,8,-1
 1067 850 l 1,9,10
 996 947 996 947 926 975 c 0,11,12
 839 1011 839 1011 783 917 c 1,13,-1
 751 900 l 1,14,15
 655 997 655 997 561 1025 c 0,16,17
 442 1061 442 1061 367 967 c 0,18,19
 291 873 291 873 279.5 733 c 128,-1,20
 268 593 268 593 324 450 c 0,21,22
 343 401 343 401 363 370 c 1,23,-1
 442 468 l 1,24,25
 418 493 418 493 401 538 c 0,26,27
 337 705 337 705 428 819 c 0,28,29
 506 917 506 917 748 649 c 1,4,-1
1259 1340 m 1,30,-1
 1259 630 l 1,31,-1
 1083 630 l 1,32,-1
 1083 1340 l 1,33,-1
 1259 1340 l 1,30,-1
EndSplineSet
Ligature2: "'half' Half Forms in Bengali lookup 3 subtable" bnla u09CD
EndChar

StartChar: bnsha_u09CD.zz04
Encoding: 65570 -1 212
Width: 1050
GlyphClass: 2
Flags: W
LayerCount: 2
Fore
SplineSet
10 845 m 1,0,-1
 14 1008 l 1,1,2
 123 1106 123 1106 229 1135 c 0,3,4
 363 1171 363 1171 448 1076 c 0,5,6
 534 981 534 981 547 838.5 c 128,-1,7
 560 696 560 696 497 551 c 0,8,9
 476 501 476 501 452 470 c 1,10,-1
 364 569 l 1,11,12
 391 595 391 595 409 641 c 0,13,14
 482 810 482 810 380 926 c 0,15,16
 291 1025 291 1025 10 845 c 1,0,-1
1070 845 m 1,17,-1
 1066 1008 l 1,18,19
 957 1106 957 1106 851 1135 c 0,20,21
 717 1171 717 1171 632 1076 c 0,22,23
 546 981 546 981 533 838.5 c 128,-1,24
 520 696 520 696 583 551 c 0,25,26
 604 501 604 501 628 470 c 1,27,-1
 716 569 l 1,28,29
 689 595 689 595 671 641 c 0,30,31
 598 810 598 810 700 926 c 0,32,33
 789 1025 789 1025 1070 845 c 1,17,-1
EndSplineSet
Ligature2: "'half' Half Forms in Bengali lookup 3 subtable" bnsha u09CD
EndChar

StartChar: bnssa_u09CD.zz04
Encoding: 65571 -1 213
Width: 1050
GlyphClass: 2
Flags: W
LayerCount: 2
Fore
SplineSet
834 1340 m 1,0,-1
 1078 1345 l 1,1,-1
 1078 1180 l 1,2,-1
 1087 1180 l 1,3,-1
 939 1180 l 1,4,-1
 886 1180 l 1,5,-1
 10 1185 l 1,6,-1
 10 1335 l 1,7,-1
 834 1340 l 1,0,-1
1059 1180 m 1,8,-1
 1059 420 l 1,9,-1
 111 640 l 1,10,-1
 209 757 l 1,11,-1
 507 890 l 1,12,-1
 69 1180 l 1,13,-1
 305 1177 l 1,14,-1
 738 941 l 1,15,-1
 662 834 l 1,16,-1
 393 687 l 1,17,-1
 885 594 l 1,18,-1
 883 1180 l 1,19,-1
 1059 1180 l 1,8,-1
748 980 m 1,20,-1
 920 911 l 1,21,-1
 909 780 l 1,22,-1
 610 865 l 1,23,-1
 748 980 l 1,20,-1
EndSplineSet
Ligature2: "'half' Half Forms in Bengali lookup 3 subtable" bnssa u09CD
EndChar

StartChar: bnsa_u09CD.zz04
Encoding: 65572 -1 214
Width: 1050
GlyphClass: 2
Flags: W
LayerCount: 2
Fore
SplineSet
155 1189 m 1,0,1
 72 1019 72 1019 106.5 970.5 c 128,-1,2
 141 922 141 922 209.5 862 c 128,-1,3
 278 802 278 802 421.5 699.5 c 128,-1,4
 565 597 565 597 502.5 515 c 128,-1,5
 440 433 440 433 60 484 c 1,6,-1
 83 294 l 1,7,8
 565 222 565 222 776.5 484.5 c 128,-1,9
 988 747 988 747 1209 419 c 1,10,-1
 1234 1190 l 1,11,-1
 1037 1236 l 1,12,-1
 1010 861 l 1,13,14
 778 706 778 706 637.5 792.5 c 128,-1,15
 497 879 497 879 405 936.5 c 128,-1,16
 313 994 313 994 373 1199 c 1,17,-1
 155 1189 l 1,0,1
30 1350 m 1,18,-1
 32 1180 l 1,19,-1
 1080 1180 l 1,20,-1
 1078 1350 l 1,21,-1
 30 1350 l 1,18,-1
EndSplineSet
Ligature2: "'half' Half Forms in Bengali lookup 3 subtable" bnsa u09CD
EndChar

StartChar: bnha_u09CD.zz04
Encoding: 65573 -1 215
Width: 1050
GlyphClass: 2
Flags: W
LayerCount: 2
Fore
SplineSet
522 983 m 1,0,1
 563 1020 563 1020 655 1041 c 128,-1,2
 747 1062 747 1062 803 1022 c 128,-1,3
 859 982 859 982 850 936.5 c 128,-1,4
 841 891 841 891 764.5 890.5 c 128,-1,5
 688 890 688 890 397 807 c 1,6,-1
 421 601 l 1,7,-1
 934 480 l 1,8,-1
 997 576 l 1,9,-1
 517 727 l 1,10,-1
 527 746 l 1,11,-1
 647 749 l 2,12,13
 767 752 767 752 854.5 797.5 c 128,-1,14
 942 843 942 843 965.5 882 c 128,-1,15
 989 921 989 921 984 960.5 c 128,-1,16
 979 1000 979 1000 947 1048.5 c 128,-1,17
 915 1097 915 1097 859.5 1130.5 c 128,-1,18
 804 1164 804 1164 679 1170 c 128,-1,19
 554 1176 554 1176 360 1061 c 1,20,-1
 522 983 l 1,0,1
-20 1330 m 1,21,-1
 30 1160 l 1,22,-1
 1100 1180 l 1,23,-1
 1090 1330 l 1,24,-1
 -20 1330 l 1,21,-1
EndSplineSet
Ligature2: "'half' Half Forms in Bengali lookup 3 subtable" bnha u09CD
EndChar

StartChar: bnrra_u09CD.zz04
Encoding: 65574 -1 216
Width: 1050
GlyphClass: 2
Flags: W
LayerCount: 2
Fore
SplineSet
382 1111 m 1,0,-1
 382 794 l 1,1,2
 640 834 640 834 744.5 791.5 c 128,-1,3
 849 749 849 749 789 671 c 128,-1,4
 729 593 729 593 604.5 590 c 128,-1,5
 480 587 480 587 83 713 c 1,6,-1
 -5 663 l 1,7,8
 423 517 423 517 591 532 c 128,-1,9
 759 547 759 547 883.5 638 c 128,-1,10
 1008 729 1008 729 948.5 781.5 c 128,-1,11
 889 834 889 834 754.5 851.5 c 128,-1,12
 620 869 620 869 501 869 c 1,13,-1
 501 1116 l 1,14,-1
 392 1116 l 1,15,-1
 382 1111 l 1,0,-1
3 1330 m 1,16,-1
 3 1154 l 1,17,-1
 1040 1142 l 1,18,-1
 1042 1330 l 1,19,-1
 3 1330 l 1,16,-1
553 515 m 1,20,-1
 444 408 l 1,21,-1
 536 295 l 1,22,-1
 659 408 l 1,23,-1
 553 515 l 1,20,-1
EndSplineSet
Ligature2: "'half' Half Forms in Bengali lookup 3 subtable" bnrra u09CD
EndChar

StartChar: bnrha_u09CD.zz04
Encoding: 65575 -1 217
Width: 1050
GlyphClass: 2
Flags: W
LayerCount: 2
Fore
SplineSet
-3 1310 m 1,0,-1
 -3 1170 l 1,1,-1
 980 1161 l 1,2,-1
 982 1310 l 1,3,-1
 -3 1310 l 1,0,-1
334 1138 m 1,4,-1
 335 729 l 1,5,6
 390 704 390 704 446 699 c 1,7,8
 499 679 499 679 601 679 c 1,9,10
 684 674 684 674 765 701 c 1,11,12
 810 742 810 742 800 744 c 1,13,14
 800 757 800 757 785 772 c 0,15,16
 758 800 758 800 721 812 c 1,17,-1
 671 817 l 1,18,-1
 717 895 l 1,19,-1
 810 867 l 2,20,21
 883 845 883 845 918 806 c 0,22,23
 945 779 945 779 947 757 c 0,24,25
 951 695 951 695 849 632 c 1,26,27
 743 590 743 590 577 580 c 1,28,29
 402 580 402 580 313 616 c 0,30,31
 198 662 198 662 195 777 c 2,32,-1
 192 1145 l 1,33,-1
 334 1138 l 1,4,-1
585 591 m 1,34,-1
 484 484 l 1,35,-1
 569 370 l 1,36,-1
 683 484 l 1,37,-1
 585 591 l 1,34,-1
EndSplineSet
Ligature2: "'half' Half Forms in Bengali lookup 3 subtable" bnrha u09CD
EndChar

StartChar: bnyya_u09CD.zz04
Encoding: 65576 -1 218
Width: 1050
GlyphClass: 2
Flags: W
LayerCount: 2
Fore
SplineSet
714 1395 m 1,0,-1
 1062 1400 l 1,1,-1
 1062 1249 l 1,2,-1
 932 1249 l 1,3,-1
 805 1249 l 1,4,-1
 759 1249 l 1,5,-1
 5 1254 l 1,6,-1
 5 1391 l 1,7,-1
 714 1395 l 1,0,-1
908 1249 m 1,8,-1
 908 190 l 1,9,-1
 92 497 l 1,10,-1
 176 659 l 1,11,-1
 433 845 l 1,12,-1
 56 1249 l 1,13,-1
 259 1245 l 1,14,-1
 632 916 l 1,15,-1
 566 767 l 1,16,-1
 335 562 l 1,17,-1
 758 433 l 1,18,-1
 756 1249 l 1,19,-1
 908 1249 l 1,8,-1
531 281 m 1,20,-1
 400 145 l 1,21,-1
 510 0 l 1,22,-1
 659 145 l 1,23,-1
 531 281 l 1,20,-1
EndSplineSet
Ligature2: "'half' Half Forms in Bengali lookup 3 subtable" bnyya u09CD
EndChar

StartChar: bnta_u09CD.zz08
Encoding: 65577 -1 219
Width: 1050
GlyphClass: 2
Flags: W
LayerCount: 2
Fore
SplineSet
544 1230 m 1,1,2
 188 1140 188 1140 86 1025 c 256,3,4
 -16 910 -16 910 52 835 c 128,-1,5
 120 760 120 760 265 685 c 128,-1,6
 410 610 410 610 529.5 525 c 128,-1,7
 649 440 649 440 691.5 365 c 128,-1,8
 734 290 734 290 657.5 200 c 128,-1,9
 581 110 581 110 81 40 c 1,10,-1
 507 -60 l 1,11,12
 922 90 922 90 905 235 c 128,-1,13
 888 380 888 380 811 450 c 128,-1,14
 734 520 734 520 614.5 600 c 128,-1,15
 495 680 495 680 393 745 c 128,-1,16
 291 810 291 810 257 865 c 128,-1,17
 223 920 223 920 291 985 c 128,-1,18
 359 1050 359 1050 560 1075 c 1,19,-1
 800 900 l 1,20,-1
 1089 940 l 1,21,0
 859 1180 859 1180 544 1230 c 1,1,2
EndSplineSet
Ligature2: "'haln' Halant Forms in Bengali lookup 7 subtable" bnta u09CD
EndChar

StartChar: bnja_u09CD_bnnya.zz01_u09CD.zz04
Encoding: 65578 -1 220
Width: 1050
GlyphClass: 2
Flags: W
LayerCount: 2
Fore
SplineSet
287 1233 m 1,0,-1
 287 783 l 1,1,2
 435 840 435 840 469 697 c 128,-1,3
 503 554 503 554 425.5 533.5 c 128,-1,4
 348 513 348 513 345.5 502 c 128,-1,5
 343 491 343 491 42 849 c 1,6,-1
 40 695 l 1,7,8
 310 390 310 390 426.5 393 c 128,-1,9
 543 396 543 396 560.5 460.5 c 128,-1,10
 578 525 578 525 554 675 c 128,-1,11
 530 825 530 825 477 857.5 c 128,-1,12
 424 890 424 890 355 890 c 1,13,-1
 355 1240 l 1,14,-1
 293 1240 l 1,15,-1
 287 1233 l 1,0,-1
5 1400 m 1,16,-1
 5 1250 l 1,17,-1
 1050 1240 l 1,18,-1
 1052 1400 l 1,19,-1
 5 1400 l 1,16,-1
682 1124.5 m 128,-1,21
 704 1144 704 1144 739.5 1110.5 c 128,-1,22
 775 1077 775 1077 765 1042.5 c 128,-1,23
 755 1008 755 1008 656 981 c 1,24,-1
 664 831 l 1,25,26
 829 737 829 737 826.5 670.5 c 128,-1,27
 824 604 824 604 757.5 586.5 c 128,-1,28
 691 569 691 569 613 613 c 128,-1,29
 535 657 535 657 546 662 c 1,30,-1
 528 560 l 1,31,32
 682 447 682 447 758.5 478 c 128,-1,33
 835 509 835 509 854.5 592.5 c 128,-1,34
 874 676 874 676 848.5 766 c 128,-1,35
 823 856 823 856 732 856 c 1,36,-1
 735 934 l 1,37,38
 840 957 840 957 850 1018.5 c 128,-1,39
 860 1080 860 1080 826.5 1133.5 c 128,-1,40
 793 1187 793 1187 718.5 1201 c 128,-1,41
 644 1215 644 1215 532 1129 c 1,42,-1
 547 1028 l 1,43,20
 660 1105 660 1105 682 1124.5 c 128,-1,21
355 1165 m 1,44,-1
 455 1150 l 1,45,-1
 520 1135 l 1,46,-1
 550 1037 l 1,47,-1
 559 721 l 1,48,-1
 511 804 l 1,49,-1
 511 992 l 1,50,-1
 451 1074 l 1,51,-1
 355 1074 l 1,52,-1
 355 1165 l 1,44,-1
EndSplineSet
Ligature2: "'half' Half Forms in Bengali lookup 3 subtable" bnja_u09CD_bnnya.zz01 u09CD
EndChar

StartChar: bnka_u09CD_bnssa.zz01_u09CD.zz04
Encoding: 65579 -1 221
Width: 1050
GlyphClass: 2
Flags: W
LayerCount: 2
Fore
SplineSet
283 659 m 1,0,-1
 327 779 l 1,1,2
 438 832 438 832 529 836 c 0,3,4
 647 840 647 840 691 757 c 0,5,6
 735 672 735 672 710 565.5 c 128,-1,7
 685 459 685 459 599 362 c 0,8,9
 569 329 569 329 543 310 c 1,10,-1
 497 398 l 1,11,12
 525 412 525 412 551 443 c 0,13,14
 651 555 651 555 599 657 c 0,15,16
 552 745 552 745 283 659 c 1,0,-1
811 987 m 0,18,19
 853 899 853 899 944 919 c 0,20,21
 968 924 968 924 984 937 c 1,22,-1
 1020 862 l 1,23,24
 1002 852 1002 852 976 846 c 0,25,26
 898 829 898 829 831.5 861.5 c 128,-1,27
 765 894 765 894 730 967 c 256,28,29
 695 1040 695 1040 730 1123 c 0,30,31
 757 1187 757 1187 818 1243 c 1,32,-1
 897 1218 l 1,33,17
 775 1062 775 1062 811 987 c 0,18,19
108 1083 m 1,34,-1
 152 1202 l 1,35,36
 263 1257 263 1257 354 1261 c 0,37,38
 471 1265 471 1265 515 1180 c 0,39,40
 560 1097 560 1097 535 990 c 128,-1,41
 510 883 510 883 424 787 c 0,42,43
 393 753 393 753 367 734 c 1,44,-1
 322 822 l 1,45,46
 350 836 350 836 376 867 c 0,47,48
 476 980 476 980 424 1082 c 0,49,50
 377 1170 377 1170 108 1083 c 1,34,-1
1348 1252 m 1,51,-1
 1169 1252 l 1,52,-1
 1169 320 l 1,53,-1
 993 320 l 1,54,-1
 993 481 l 1,55,-1
 683 555 l 1,56,-1
 693 694 l 1,57,-1
 993 617 l 1,58,-1
 993 1252 l 1,59,-1
 868 1252 l 1,60,-1
 868 1381 l 1,61,-1
 1348 1385 l 1,62,-1
 1348 1252 l 1,51,-1
950 1400 m 1,63,-1
 949 1240 l 1,64,-1
 30 1250 l 1,65,-1
 30 1400 l 1,66,-1
 950 1400 l 1,63,-1
1178 907 m 1,67,-1
 1181 1015 l 1,68,69
 1254 1079 1254 1079 1325 1098 c 0,70,71
 1415 1122 1415 1122 1473 1059 c 0,72,73
 1530 997 1530 997 1538.5 903.5 c 128,-1,74
 1547 810 1547 810 1505 714 c 0,75,76
 1491 682 1491 682 1475 661 c 1,77,-1
 1416 726 l 1,78,79
 1434 743 1434 743 1446 773 c 0,80,81
 1495 885 1495 885 1426 961 c 0,82,83
 1367 1026 1367 1026 1178 907 c 1,67,-1
EndSplineSet
Ligature2: "'half' Half Forms in Bengali lookup 3 subtable" bnka_u09CD_bnssa.zz01 u09CD
EndChar

StartChar: bnha_u09CD_bnma.zz01_u09CD.zz04
Encoding: 65580 -1 222
Width: 1050
GlyphClass: 2
Flags: W
LayerCount: 2
Fore
SplineSet
1170 1118 m 1,0,-1
 1525 1119 l 1,1,-1
 1525 540 l 1,2,-1
 1427 531 l 1,3,-1
 1427 1004 l 1,4,-1
 1170 1004 l 1,5,-1
 1170 1118 l 1,0,-1
283 659 m 1,6,-1
 327 779 l 1,7,8
 438 832 438 832 529 836 c 0,9,10
 647 840 647 840 691 757 c 0,11,12
 735 672 735 672 710 565.5 c 128,-1,13
 685 459 685 459 599 362 c 0,14,15
 569 329 569 329 543 310 c 1,16,-1
 497 398 l 1,17,18
 525 412 525 412 551 443 c 0,19,20
 651 555 651 555 599 657 c 0,21,22
 552 745 552 745 283 659 c 1,6,-1
811 987 m 0,24,25
 853 899 853 899 944 919 c 0,26,27
 968 924 968 924 984 937 c 1,28,-1
 1020 862 l 1,29,30
 1002 852 1002 852 976 846 c 0,31,32
 898 829 898 829 831.5 861.5 c 128,-1,33
 765 894 765 894 730 967 c 256,34,35
 695 1040 695 1040 730 1123 c 0,36,37
 757 1187 757 1187 818 1243 c 1,38,-1
 897 1218 l 1,39,23
 775 1062 775 1062 811 987 c 0,24,25
108 1083 m 1,40,-1
 152 1202 l 1,41,42
 263 1257 263 1257 354 1261 c 0,43,44
 471 1265 471 1265 515 1180 c 0,45,46
 560 1097 560 1097 535 990 c 128,-1,47
 510 883 510 883 424 787 c 0,48,49
 393 753 393 753 367 734 c 1,50,-1
 322 822 l 1,51,52
 350 836 350 836 376 867 c 0,53,54
 476 980 476 980 424 1082 c 0,55,56
 377 1170 377 1170 108 1083 c 1,40,-1
1348 1252 m 1,57,-1
 1169 1252 l 1,58,-1
 1169 320 l 1,59,-1
 993 320 l 1,60,-1
 993 481 l 1,61,-1
 683 555 l 1,62,-1
 693 694 l 1,63,-1
 993 617 l 1,64,-1
 993 1252 l 1,65,-1
 868 1252 l 1,66,-1
 868 1381 l 1,67,-1
 1348 1385 l 1,68,-1
 1348 1252 l 1,57,-1
950 1400 m 1,69,-1
 949 1240 l 1,70,-1
 30 1250 l 1,71,-1
 30 1400 l 1,72,-1
 950 1400 l 1,69,-1
EndSplineSet
Ligature2: "'half' Half Forms in Bengali lookup 3 subtable" bnha_u09CD_bnma.zz01 u09CD
EndChar

StartChar: bnta_u09CD_bnta.zz01_u09CD.zz04
Encoding: 65581 -1 223
Width: 1050
GlyphClass: 2
Flags: W
LayerCount: 2
Fore
SplineSet
20 1390 m 1,0,-1
 20 1240 l 1,1,-1
 1039 1230 l 1,2,-1
 1040 1390 l 1,3,-1
 20 1390 l 1,0,-1
72 1081 m 1,4,-1
 159 992 l 1,5,6
 298 1069 298 1069 400.5 1092 c 128,-1,7
 503 1115 503 1115 617.5 1069 c 128,-1,8
 732 1023 732 1023 776.5 973.5 c 128,-1,9
 821 924 821 924 816.5 862.5 c 128,-1,10
 812 801 812 801 781.5 772 c 128,-1,11
 751 743 751 743 696 711 c 128,-1,12
 641 679 641 679 571.5 670.5 c 128,-1,13
 502 662 502 662 433 653 c 1,14,-1
 435 522 l 1,15,16
 546 526 546 526 600 507.5 c 128,-1,17
 654 489 654 489 700 459.5 c 128,-1,18
 746 430 746 430 763 392 c 128,-1,19
 780 354 780 354 788.5 304.5 c 128,-1,20
 797 255 797 255 754.5 209.5 c 128,-1,21
 712 164 712 164 638 149.5 c 128,-1,22
 564 135 564 135 474 129 c 128,-1,23
 384 123 384 123 102 228 c 1,24,-1
 27 138 l 1,25,26
 194 49 194 49 270 23 c 128,-1,27
 346 -3 346 -3 450.5 -24 c 128,-1,28
 555 -45 555 -45 691.5 -13.5 c 128,-1,29
 828 18 828 18 885.5 95.5 c 128,-1,30
 943 173 943 173 965 221 c 128,-1,31
 987 269 987 269 986.5 299.5 c 128,-1,32
 986 330 986 330 956 386.5 c 128,-1,33
 926 443 926 443 885.5 473 c 128,-1,34
 845 503 845 503 729 579 c 1,35,36
 850 645 850 645 892.5 690.5 c 128,-1,37
 935 736 935 736 957 784 c 128,-1,38
 979 832 979 832 976.5 902.5 c 128,-1,39
 974 973 974 973 918.5 1031.5 c 128,-1,40
 863 1090 863 1090 800.5 1139.5 c 128,-1,41
 738 1189 738 1189 646.5 1206 c 128,-1,42
 555 1223 555 1223 450 1214.5 c 128,-1,43
 345 1206 345 1206 271 1192 c 128,-1,44
 197 1178 197 1178 72 1081 c 1,4,-1
EndSplineSet
Ligature2: "'half' Half Forms in Bengali lookup 3 subtable" bnta_u09CD_bnta.zz01 u09CD
EndChar

StartChar: bnra_u09CD.zz02
Encoding: 65582 -1 224
Width: 1050
GlyphClass: 2
Flags: W
LayerCount: 2
Fore
SplineSet
670 1950 m 1,0,-1
 512 2064 l 1,1,-1
 -5 1396 l 1,2,-1
 248 1388 l 1,3,-1
 670 1950 l 1,0,-1
10 1395 m 1,4,-1
 16 1260 l 1,5,-1
 1060 1260 l 1,6,-1
 1061 1395 l 1,7,-1
 10 1395 l 1,4,-1
EndSplineSet
Ligature2: "'rphf' Reph Form in Bengali lookup 1 subtable" bnra u09CD
EndChar

StartChar: bnya_u09CD.zz06
Encoding: 65583 -1 225
Width: 1050
GlyphClass: 2
Flags: W
LayerCount: 2
Fore
SplineSet
323 1 m 1,0,1
 363 7 363 7 424 34 c 0,2,3
 611 119 611 119 614 311 c 0,4,5
 615 440 615 440 521 667 c 2,6,-1
 468 793 l 2,7,8
 441 859 441 859 480 917 c 1,9,10
 632 1100 632 1100 653 1186 c 1,11,-1
 464 1197 l 1,12,13
 296 1042 296 1042 271 908 c 0,14,15
 252 806 252 806 335 604 c 2,16,-1
 396 457 l 2,17,18
 471 275 471 275 320 207 c 0,19,20
 275 187 275 187 247 185 c 1,21,-1
 323 1 l 1,0,1
10 1360 m 1,22,-1
 10 1210 l 1,23,-1
 1048 1200 l 1,24,-1
 1050 1360 l 1,25,-1
 10 1360 l 1,22,-1
EndSplineSet
Ligature2: "'psts' Post Base Substitutions in Bengali lookup 5 subtable" bnya u09CD
EndChar

StartChar: bnra_u09CD.zz03
Encoding: 65584 -1 226
Width: 1050
GlyphClass: 2
Flags: W
LayerCount: 2
Fore
SplineSet
139 245 m 1,0,-1
 135 -193 l 1,1,-1
 -8 -186 l 1,2,3
 -243 -187 -243 -187 -77 -190 c 1,4,5
 -306 12 -306 12 -455 -57 c 2,6,-1
 -576 -112 l 2,7,8
 -742 -189 -742 -189 -823 -165 c 0,9,10
 -930 -137 -930 -137 -1046 67 c 1,11,-1
 -889 139 l 1,12,13
 -847 67 -847 67 -822 44 c 0,14,15
 -776 2 -776 2 -722 27 c 2,16,-1
 -618 75 l 2,17,18
 -432 161 -432 161 -328 155 c 1,19,20
 -163 116 -163 116 -56 -18 c 2,21,-1
 -52 -23 l 1,22,-1
 -54 253 l 1,23,-1
 139 245 l 1,0,-1
-20 1330 m 1,24,-1
 26 1160 l 1,25,-1
 1000 1180 l 1,26,-1
 991 1330 l 1,27,-1
 -20 1330 l 1,24,-1
EndSplineSet
Ligature2: "'blwf' Below Base Forms in Bengali lookup 2 subtable" bnra u09CD
EndChar

StartChar: bnba_u09CD.zz03
Encoding: 65585 -1 227
Width: 1050
GlyphClass: 2
Flags: W
LayerCount: 2
Fore
SplineSet
-20 1330 m 1,0,-1
 26 1160 l 1,1,-1
 1000 1180 l 1,2,-1
 991 1330 l 1,3,-1
 -20 1330 l 1,0,-1
0 69 m 1,4,-1
 1 -416 l 1,5,-1
 -104 -422 l 1,6,-1
 -146 -296 l 1,7,-1
 -150 -51 l 1,8,-1
 -207 -42 l 1,9,-1
 -523 -163 l 1,10,-1
 -516 -190 l 1,11,-1
 -144 -299 l 1,12,-1
 -105 -420 l 1,13,-1
 -422 -310 l 1,14,-1
 -724 -199 l 1,15,-1
 -740 -151 l 1,16,-1
 -144 70 l 1,17,-1
 0 69 l 1,4,-1
EndSplineSet
Ligature2: "'blwf' Below Base Forms in Bengali lookup 2 subtable" bnba u09CD
EndChar

StartChar: bnka_bnra_u09CD.zz03.zz07
Encoding: 65586 -1 228
Width: 1050
GlyphClass: 2
Flags: W
LayerCount: 2
Fore
SplineSet
780 649 m 1,0,-1
 782 810 l 1,1,2
 835 907 835 907 886 935 c 0,3,4
 952 971 952 971 994 877 c 0,5,6
 1035 783 1035 783 1041.5 643 c 128,-1,7
 1048 503 1048 503 1017 360 c 0,8,9
 1007 311 1007 311 995 280 c 1,10,-1
 952 378 l 1,11,12
 965 403 965 403 975 448 c 0,13,14
 1010 615 1010 615 960 729 c 0,15,16
 917 827 917 827 780 649 c 1,0,-1
-4 1315 m 1,17,-1
 -5 1156 l 1,18,-1
 1059 1156 l 1,19,-1
 1060 1320 l 1,20,-1
 -4 1315 l 1,17,-1
295 1045 m 1,21,-1
 371 885 l 1,22,23
 462 1045 462 1045 529 1014 c 128,-1,24
 596 983 596 983 651 921 c 1,25,-1
 656 174 l 1,26,27
 569 334 569 334 395 378 c 1,28,29
 155 147 155 147 149 174 c 1,30,-1
 22 352 l 1,31,-1
 22 201 l 1,32,-1
 115 59 l 1,33,34
 265 23 265 23 337.5 103 c 128,-1,35
 410 183 410 183 476.5 147.5 c 128,-1,36
 543 112 543 112 596.5 72 c 128,-1,37
 650 32 650 32 763 59 c 1,38,-1
 769 992 l 1,39,40
 722 1116 722 1116 662.5 1151.5 c 128,-1,41
 603 1187 603 1187 502.5 1169.5 c 128,-1,42
 402 1152 402 1152 295 1045 c 1,21,-1
EndSplineSet
Ligature2: "'vatu' Vattu Variants in Bengali lookup 6 subtable" bnka bnra_u09CD.zz03
EndChar

StartChar: bnkha_bnra_u09CD.zz03.zz07
Encoding: 65587 -1 229
Width: 1050
GlyphClass: 2
Flags: W
LayerCount: 2
Fore
SplineSet
566 1119 m 1,0,-1
 692 1028 l 1,1,-1
 351 646 l 1,2,-1
 363 570 l 1,3,-1
 848 222 l 1,4,-1
 897 218 l 1,5,-1
 898 1304 l 1,6,-1
 1070 1310 l 1,7,-1
 1070 30 l 1,8,-1
 885 40 l 1,9,-1
 198 525 l 1,10,-1
 180 635 l 1,11,-1
 484 943 l 1,12,13
 414 889 414 889 230 872 c 1,14,15
 118 934 118 934 85 1040 c 128,-1,16
 52 1146 52 1146 106 1264 c 0,17,18
 126 1304 126 1304 148 1330 c 1,19,-1
 264 1265 l 1,20,21
 237 1244 237 1244 220 1207 c 0,22,23
 157 1069 157 1069 290 994 c 1,24,25
 479 1009 479 1009 566 1119 c 1,0,-1
1068 175 m 1,26,-1
 1065 -263 l 1,27,-1
 936 -256 l 1,28,29
 725 -257 725 -257 874 -260 c 1,30,31
 669 -58 669 -58 535 -127 c 2,32,-1
 426 -182 l 2,33,34
 277 -259 277 -259 204 -235 c 0,35,36
 108 -207 108 -207 4 -3 c 1,37,-1
 145 69 l 1,38,39
 183 -3 183 -3 205 -26 c 0,40,41
 246 -68 246 -68 295 -43 c 2,42,-1
 388 5 l 2,43,44
 555 91 555 91 649 85 c 1,45,46
 797 46 797 46 893 -88 c 1,47,-1
 897 -93 l 1,48,-1
 895 183 l 1,49,-1
 1068 175 l 1,26,-1
EndSplineSet
Ligature2: "'vatu' Vattu Variants in Bengali lookup 6 subtable" bnkha bnra_u09CD.zz03
EndChar

StartChar: bnga_bnra_u09CD.zz03.zz07
Encoding: 65588 -1 230
Width: 1050
GlyphClass: 2
Flags: W
LayerCount: 2
Fore
SplineSet
681 1342 m 1,0,1
 558 1334 558 1334 434 1350 c 128,-1,2
 310 1366 310 1366 225 1275 c 128,-1,3
 140 1184 140 1184 132.5 1133 c 128,-1,4
 125 1082 125 1082 148 1037 c 128,-1,5
 171 992 171 992 217 936.5 c 128,-1,6
 263 881 263 881 359.5 786 c 128,-1,7
 456 691 456 691 414 615 c 128,-1,8
 372 539 372 539 117 586 c 1,9,-1
 133 410 l 1,10,11
 456 344 456 344 537.5 489.5 c 128,-1,12
 619 635 619 635 599.5 683.5 c 128,-1,13
 580 732 580 732 549 776 c 128,-1,14
 518 820 518 820 464 886 c 128,-1,15
 410 952 410 952 348.5 1005.5 c 128,-1,16
 287 1059 287 1059 287 1107.5 c 128,-1,17
 287 1156 287 1156 333 1184 c 128,-1,18
 379 1212 379 1212 464.5 1198 c 128,-1,19
 550 1184 550 1184 681 1173 c 1,20,-1
 681 1342 l 1,0,1
1060 1180 m 1,21,-1
 921 1180 l 1,22,-1
 921 20 l 1,23,-1
 785 20 l 1,24,-1
 785 1180 l 1,25,-1
 688 1180 l 1,26,-1
 688 1340 l 1,27,-1
 1060 1345 l 1,28,-1
 1060 1180 l 1,21,-1
921 440 m 1,29,-1
 918 2 l 1,30,-1
 808 9 l 1,31,-1
 754 5 l 1,32,33
 577 207 577 207 462 138 c 2,34,-1
 368 83 l 2,35,36
 239 6 239 6 177 30 c 0,37,38
 94 58 94 58 4 262 c 1,39,-1
 126 334 l 1,40,41
 158 262 158 262 177 239 c 0,42,43
 213 197 213 197 255 222 c 2,44,-1
 335 270 l 2,45,46
 479 356 479 356 560 350 c 1,47,48
 688 311 688 311 770 177 c 1,49,-1
 774 172 l 1,50,-1
 772 448 l 1,51,-1
 921 440 l 1,29,-1
EndSplineSet
Ligature2: "'vatu' Vattu Variants in Bengali lookup 6 subtable" bnga bnra_u09CD.zz03
EndChar

StartChar: bngha_bnra_u09CD.zz03.zz07
Encoding: 65589 -1 231
Width: 1050
GlyphClass: 2
Flags: W
LayerCount: 2
Fore
SplineSet
730 262 m 1,0,1
 545 271 545 271 475 312.5 c 128,-1,2
 405 354 405 354 387.5 419 c 128,-1,3
 370 484 370 484 450 548 c 0,4,5
 491 579 491 579 540.5 587.5 c 128,-1,6
 590 596 590 596 576 596 c 1,7,-1
 588 723 l 1,8,-1
 507 730 l 2,9,10
 445 732 445 732 421.5 780 c 128,-1,11
 398 828 398 828 398 866 c 0,12,13
 398 934 398 934 454 987.5 c 128,-1,14
 510 1041 510 1041 601 1041 c 1,15,-1
 729 1033 l 1,16,-1
 730 262 l 1,0,1
761 220 m 1,17,-1
 762 -27 l 1,18,-1
 759 -23 l 1,19,20
 680 97 680 97 559 132 c 1,21,22
 482 138 482 138 345 60 c 2,23,-1
 268 17 l 2,24,25
 228 -5 228 -5 194 33 c 0,26,27
 176 53 176 53 145 118 c 1,28,-1
 29 53 l 1,29,30
 115 -130 115 -130 193 -155 c 0,31,32
 253 -176 253 -176 376 -107 c 2,33,-1
 465 -58 l 2,34,35
 575 4 575 4 744 -177 c 1,36,37
 621 -175 621 -175 795 -174 c 1,38,-1
 900 -180 l 1,39,-1
 903 213 l 1,40,-1
 761 220 l 1,17,-1
888 1160 m 1,41,-1
 416 1161 l 1,42,43
 188 1007 188 1007 188 864 c 0,44,45
 188 776 188 776 303 713 c 0,46,47
 342 689 342 689 374 669 c 128,-1,48
 406 649 406 649 462 642 c 1,49,50
 393 619 393 619 353.5 593 c 128,-1,51
 314 567 314 567 272 530 c 0,52,53
 188 457 188 457 188 375 c 0,54,55
 188 262 188 262 338.5 199.5 c 128,-1,56
 489 137 489 137 893 137 c 1,57,-1
 888 1160 l 1,41,-1
817 1113 m 1,58,-1
 1044 1126 l 1,59,-1
 1044 1198 l 1,60,-1
 1045 1270 l 1,61,-1
 3 1270 l 1,62,-1
 3 1117 l 1,63,-1
 308 1114 l 1,64,-1
 817 1113 l 1,58,-1
EndSplineSet
Ligature2: "'vatu' Vattu Variants in Bengali lookup 6 subtable" bngha bnra_u09CD.zz03
EndChar

StartChar: bnnga_bnra_u09CD.zz03.zz07
Encoding: 65590 -1 232
Width: 1050
GlyphClass: 2
Flags: W
LayerCount: 2
Fore
SplineSet
773 1240 m 1,0,1
 850 1230 850 1230 860 1140 c 1,2,3
 860 1060 860 1060 802 1030 c 1,4,5
 754 1050 754 1050 734 1120 c 1,6,7
 744 1180 744 1180 773 1240 c 1,0,1
642 950 m 1,8,9
 918 815 918 815 961.5 930 c 128,-1,10
 1005 1045 1005 1045 1000 1132.5 c 128,-1,11
 995 1220 995 1220 980.5 1265 c 128,-1,12
 966 1310 966 1310 874.5 1350 c 128,-1,13
 783 1390 783 1390 720 1360 c 128,-1,14
 657 1330 657 1330 608.5 1272.5 c 128,-1,15
 560 1215 560 1215 541 1125 c 1,16,-1
 154 1310 l 1,17,-1
 154 1150 l 1,18,-1
 522 1020 l 1,19,-1
 309 591 l 1,20,21
 667 616 667 616 758.5 512 c 128,-1,22
 850 408 850 408 792 282.5 c 128,-1,23
 734 157 734 157 613.5 153 c 128,-1,24
 493 149 493 149 5 546 c 1,25,-1
 -10 395 l 1,26,27
 435 35 435 35 599 59.5 c 128,-1,28
 763 84 763 84 884 230 c 128,-1,29
 1005 376 1005 376 947 461 c 128,-1,30
 889 546 889 546 782.5 637 c 128,-1,31
 676 728 676 728 522 693 c 1,32,-1
 642 950 l 1,8,9
640 183 m 1,33,-1
 641 -93 l 1,34,-1
 638 -88 l 1,35,36
 563 46 563 46 447 85 c 1,37,38
 375 91 375 91 244 5 c 2,39,-1
 171 -43 l 2,40,41
 133 -68 133 -68 101 -26 c 0,42,43
 84 -3 84 -3 54 69 c 1,44,-1
 -56 -3 l 1,45,46
 25 -207 25 -207 100 -235 c 0,47,48
 157 -259 157 -259 274 -182 c 2,49,-1
 358 -127 l 2,50,51
 463 -58 463 -58 623 -260 c 1,52,53
 507 -257 507 -257 672 -256 c 1,54,-1
 772 -263 l 1,55,-1
 775 175 l 1,56,-1
 640 183 l 1,33,-1
EndSplineSet
Ligature2: "'vatu' Vattu Variants in Bengali lookup 6 subtable" bnnga bnra_u09CD.zz03
EndChar

StartChar: bnca_bnra_u09CD.zz03.zz07
Encoding: 65591 -1 233
Width: 1050
GlyphClass: 2
Flags: W
LayerCount: 2
Fore
SplineSet
236 1153 m 1,0,-1
 237 554 l 1,1,2
 270 569 270 569 372 590 c 0,3,4
 477 613 477 613 590 613 c 0,5,6
 743 613 743 613 855 559 c 0,7,8
 945 514 945 514 987 437 c 0,9,10
 1019 383 1019 383 1022 340 c 0,11,12
 1027 218 1027 218 883 133 c 0,13,14
 743 50 743 50 571 50 c 0,15,16
 352 50 352 50 243 121 c 0,17,18
 103 213 103 213 100 439 c 2,19,-1
 96 1167 l 1,20,-1
 236 1153 l 1,0,-1
352 388 m 1,21,-1
 349 377 l 1,22,-1
 346 361 l 2,23,24
 336 318 336 318 356.5 284 c 128,-1,25
 377 250 377 250 405 228 c 0,26,27
 454 190 454 190 549 190 c 0,28,29
 651 190 651 190 714 231 c 256,30,31
 777 272 777 272 777 325 c 0,32,33
 777 344 777 344 763 367 c 0,34,35
 738 409 738 409 705 427 c 0,36,37
 658 450 658 450 574 450 c 2,38,-1
 517 450 l 2,39,40
 509 450 509 450 463 440 c 0,41,42
 440 436 440 436 424 433 c 128,-1,43
 408 430 408 430 400 427 c 0,44,45
 389 426 389 426 379.5 410.5 c 128,-1,46
 370 395 370 395 352 388 c 1,21,-1
14 1320 m 1,47,-1
 14 1177 l 1,48,-1
 1038 1168 l 1,49,-1
 1040 1320 l 1,50,-1
 14 1320 l 1,47,-1
646 49 m 1,51,-1
 643 -328 l 1,52,-1
 563 -322 l 1,53,54
 433 -323 433 -323 525 -325 c 1,55,56
 397 -152 397 -152 314 -211 c 2,57,-1
 247 -259 l 2,58,59
 154 -325 154 -325 109 -304 c 0,60,61
 50 -280 50 -280 -15 -105 c 1,62,-1
 72 -43 l 1,63,64
 96 -105 96 -105 110 -125 c 0,65,66
 135 -160 135 -160 166 -139 c 2,67,-1
 223 -98 l 2,68,69
 328 -24 328 -24 385 -29 c 1,70,71
 477 -63 477 -63 537 -178 c 2,72,-1
 539 -182 l 1,73,-1
 538 55 l 1,74,-1
 646 49 l 1,51,-1
EndSplineSet
Ligature2: "'vatu' Vattu Variants in Bengali lookup 6 subtable" bnca bnra_u09CD.zz03
EndChar

StartChar: bncha_bnra_u09CD.zz03.zz07
Encoding: 65592 -1 234
Width: 1050
GlyphClass: 2
Flags: W
LayerCount: 2
Fore
SplineSet
282 1189 m 1,0,-1
 291 825 l 1,1,2
 340 845 340 845 380 879 c 128,-1,3
 420 913 420 913 700 879 c 1,4,5
 749 813 749 813 786 768 c 0,6,7
 813 736 813 736 791 711 c 1,8,9
 819 639 819 639 696 589 c 1,10,11
 536 450 536 450 317 582 c 1,12,13
 197 636 197 636 194 769 c 2,14,-1
 190 1197 l 1,15,-1
 282 1189 l 1,0,-1
360 765 m 1,16,-1
 355 756 l 1,17,-1
 352 742 l 2,18,19
 341 706 341 706 365 677 c 128,-1,20
 389 648 389 648 422 629 c 1,21,22
 546 596 546 596 620 631 c 0,23,24
 696 666 696 666 696 711 c 0,25,26
 696 728 696 728 680 747 c 0,27,28
 650 784 650 784 609 798 c 1,29,30
 427 801 427 801 418 799 c 0,31,32
 405 798 405 798 393 784.5 c 128,-1,33
 381 771 381 771 360 765 c 1,16,-1
65 1340 m 1,34,-1
 65 1197 l 1,35,-1
 1058 1188 l 1,36,-1
 1060 1340 l 1,37,-1
 65 1340 l 1,34,-1
748 840 m 1,38,39
 775 952 775 952 846 956.5 c 128,-1,40
 917 961 917 961 942.5 863 c 128,-1,41
 968 765 968 765 962.5 695 c 128,-1,42
 957 625 957 625 923 569 c 128,-1,43
 889 513 889 513 430 414 c 1,44,-1
 442 189 l 1,45,-1
 1015 36 l 1,46,-1
 1053 139 l 1,47,-1
 504 292 l 1,48,-1
 509 321 l 1,49,-1
 838 405 l 1,50,51
 912 410 912 410 965.5 480 c 128,-1,52
 1019 550 1019 550 1033.5 610.5 c 128,-1,53
 1048 671 1048 671 1045 732 c 128,-1,54
 1042 793 1042 793 1022.5 868 c 128,-1,55
 1003 943 1003 943 968.5 994.5 c 128,-1,56
 934 1046 934 1046 858 1055 c 128,-1,57
 782 1064 782 1064 662 887 c 1,58,-1
 748 840 l 1,38,39
795 183 m 1,59,-1
 796 -93 l 1,60,-1
 793 -88 l 2,61,62
 708 46 708 46 576 85 c 1,63,64
 493 91 493 91 345 5 c 2,65,-1
 262 -43 l 2,66,67
 219 -68 219 -68 183 -26 c 0,68,69
 163 -3 163 -3 129 69 c 1,70,-1
 4 -3 l 1,71,72
 96 -207 96 -207 182 -235 c 0,73,74
 246 -259 246 -259 379 -182 c 2,75,-1
 475 -127 l 2,76,77
 594 -58 594 -58 776 -260 c 1,78,79
 644 -257 644 -257 831 -256 c 1,80,-1
 945 -263 l 1,81,-1
 948 175 l 1,82,-1
 795 183 l 1,59,-1
EndSplineSet
Ligature2: "'vatu' Vattu Variants in Bengali lookup 6 subtable" bncha bnra_u09CD.zz03
EndChar

StartChar: bnja_bnra_u09CD.zz03.zz07
Encoding: 65593 -1 235
Width: 1050
GlyphClass: 2
Flags: W
LayerCount: 2
Fore
SplineSet
385 1171 m 1,0,-1
 385 573 l 1,1,2
 594 649 594 649 642 458.5 c 128,-1,3
 690 268 690 268 580.5 241 c 128,-1,4
 471 214 471 214 468 199 c 128,-1,5
 465 184 465 184 41 661 c 1,6,-1
 37 456 l 1,7,8
 417 51 417 51 581.5 54.5 c 128,-1,9
 746 58 746 58 770.5 144 c 128,-1,10
 795 230 795 230 761 429.5 c 128,-1,11
 727 629 727 629 652.5 672 c 128,-1,12
 578 715 578 715 481 715 c 1,13,-1
 481 1180 l 1,14,-1
 393 1180 l 1,15,-1
 385 1171 l 1,0,-1
0 1340 m 1,16,-1
 0 1190 l 1,17,-1
 1108 1180 l 1,18,-1
 1110 1340 l 1,19,-1
 0 1340 l 1,16,-1
470 980 m 1,20,21
 791 921 791 921 1047 1000 c 1,22,-1
 1046 117 l 1,23,-1
 933 85 l 1,24,-1
 935 825 l 1,25,26
 771 815 771 815 476 813 c 1,27,-1
 470 980 l 1,20,21
1050 112 m 1,28,-1
 1051 -255 l 1,29,-1
 971 -259 l 1,30,31
 759 -260 759 -260 909 -262 c 1,32,33
 702 -92 702 -92 567 -150 c 2,34,-1
 458 -197 l 2,35,36
 307 -262 307 -262 234 -242 c 0,37,38
 138 -217 138 -217 33 -45 c 1,39,-1
 175 17 l 1,40,41
 213 -45 213 -45 236 -64 c 0,42,43
 276 -100 276 -100 326 -78 c 2,44,-1
 420 -38 l 2,45,46
 589 35 589 35 682 30 c 1,47,48
 831 -3 831 -3 928 -116 c 1,49,-1
 931 -121 l 1,50,-1
 929 113 l 1,51,-1
 1050 112 l 1,28,-1
EndSplineSet
Ligature2: "'vatu' Vattu Variants in Bengali lookup 6 subtable" bnja bnra_u09CD.zz03
EndChar

StartChar: bnjha_bnra_u09CD.zz03.zz07
Encoding: 65594 -1 236
Width: 1050
GlyphClass: 2
Flags: W
LayerCount: 2
Fore
SplineSet
20 1330 m 1,0,-1
 20 1180 l 1,1,-1
 826 1170 l 1,2,-1
 828 1330 l 1,3,-1
 20 1330 l 1,0,-1
1060 1170 m 1,4,-1
 950 1170 l 1,5,-1
 950 10 l 1,6,-1
 841 10 l 1,7,-1
 841 210 l 1,8,-1
 650 302 l 1,9,-1
 656 475 l 1,10,-1
 841 380 l 1,11,-1
 841 1170 l 1,12,-1
 764 1170 l 1,13,-1
 764 1330 l 1,14,-1
 1060 1335 l 1,15,-1
 1060 1170 l 1,4,-1
655 1175 m 1,16,-1
 655 65 l 1,17,-1
 552 55 l 1,18,-1
 69 560 l 1,19,-1
 57 670 l 1,20,-1
 533 1175 l 1,21,-1
 655 1175 l 1,16,-1
475 885 m 1,22,-1
 223 607 l 1,23,-1
 230 545 l 1,24,-1
 482 262 l 1,25,-1
 536 267 l 1,26,-1
 536 890 l 1,27,-1
 475 885 l 1,22,-1
947 85 m 1,28,-1
 944 -353 l 1,29,-1
 856 -346 l 1,30,31
 711 -347 711 -347 814 -350 c 1,32,33
 672 -148 672 -148 581 -217 c 2,34,-1
 506 -272 l 2,35,36
 404 -349 404 -349 354 -325 c 0,37,38
 288 -297 288 -297 217 -93 c 1,39,-1
 313 -21 l 1,40,41
 339 -93 339 -93 355 -116 c 0,42,43
 383 -158 383 -158 416 -133 c 2,44,-1
 480 -85 l 2,45,46
 595 1 595 1 659 -5 c 1,47,48
 761 -44 761 -44 826 -178 c 1,49,-1
 829 -183 l 1,50,-1
 828 93 l 1,51,-1
 947 85 l 1,28,-1
EndSplineSet
Ligature2: "'vatu' Vattu Variants in Bengali lookup 6 subtable" bnjha bnra_u09CD.zz03
EndChar

